{"glyphs":{"0":{"ha":782,"x_min":58,"x_max":726,"o":"m 726 436 q 688 203 726 306 q 575 42 650 101 q 389 -17 500 -17 q 207 41 281 -17 q 96 197 133 99 q 58 421 58 296 q 78 592 58 511 q 140 738 99 674 q 247 838 182 801 q 400 875 311 875 q 550 840 488 875 q 651 742 613 804 q 708 602 690 681 q 726 436 726 524 m 388 821 q 279 768 319 821 q 222 630 239 715 q 206 446 206 544 q 215 299 206 371 q 247 167 225 226 q 306 72 269 107 q 399 36 343 36 q 508 89 468 36 q 564 228 547 142 q 581 415 581 315 q 571 562 581 490 q 540 692 561 633 q 481 786 518 751 q 388 821 443 821 z "},"1":{"ha":517,"x_min":24,"x_max":485,"o":"m 68 -1 q 68 43 64 22 q 163 58 135 50 q 196 88 190 65 q 201 160 201 110 l 201 678 q 195 725 201 713 q 161 738 189 738 q 113 733 146 738 q 33 719 79 729 q 24 764 25 740 q 146 799 92 782 q 251 835 200 815 q 358 878 301 854 q 371 864 365 871 q 381 846 376 857 q 343 683 343 801 l 343 174 q 346 105 343 129 q 361 69 349 81 q 402 52 374 57 q 481 43 431 47 q 481 -1 485 21 q 403 1 444 -1 q 279 3 361 3 q 155 1 199 3 q 68 -1 111 -1 z "},"2":{"ha":736,"x_min":28,"x_max":676,"o":"m 622 -1 q 435 1 538 1 q 251 1 333 1 q 118 1 172 1 q 35 0 64 1 q 28 38 28 18 q 290 271 196 168 q 424 456 385 374 q 463 606 463 538 q 410 737 463 693 q 281 781 357 781 q 178 763 229 781 q 85 713 128 744 q 71 728 78 719 q 58 746 64 736 q 190 843 118 811 q 340 875 263 875 q 474 848 413 875 q 574 771 536 821 q 613 651 613 721 q 564 490 613 569 q 424 320 515 410 q 204 119 332 231 q 344 120 281 119 q 448 122 408 121 q 489 124 488 124 q 547 131 526 125 q 586 160 568 136 q 633 242 604 185 q 654 240 642 242 q 676 235 667 239 q 647 115 660 176 q 622 -1 633 54 z "},"3":{"ha":726,"x_min":28,"x_max":665,"o":"m 193 353 q 343 426 286 382 q 426 522 400 471 q 453 622 453 574 q 410 734 453 688 q 281 781 368 781 q 179 763 229 781 q 86 713 129 744 q 63 746 68 731 q 192 844 124 814 q 343 875 260 875 q 485 847 428 875 q 570 773 542 819 q 599 672 599 726 q 553 531 599 604 q 415 400 508 457 q 602 308 539 379 q 665 135 665 238 q 631 -6 665 56 q 538 -108 596 -67 q 407 -172 479 -150 q 260 -193 335 -193 q 129 -172 181 -193 q 53 -119 78 -150 q 28 -60 28 -89 q 48 -12 28 -32 q 99 8 68 8 q 176 -30 142 8 q 229 -139 211 -68 q 283 -143 258 -143 q 413 -110 358 -143 q 495 -22 467 -76 q 524 94 524 32 q 499 202 524 150 q 422 288 474 254 q 293 322 371 322 q 207 311 251 322 q 199 332 201 322 q 193 353 196 342 z "},"4":{"ha":807,"x_min":28,"x_max":772,"o":"m 549 -162 q 513 -162 532 -162 q 479 -161 494 -162 l 479 151 l 32 151 q 28 229 28 189 q 268 552 149 394 q 514 869 388 710 q 621 861 574 869 q 619 781 619 808 q 618 735 618 754 l 618 260 l 772 260 q 769 204 771 232 q 765 151 768 176 l 618 151 l 618 -161 q 584 -162 601 -162 q 549 -162 567 -162 m 479 260 l 479 735 q 298 499 385 615 q 124 260 211 382 l 479 260 z "},"5":{"ha":760,"x_min":42,"x_max":690,"o":"m 185 851 l 664 861 q 653 792 660 829 q 638 722 646 754 l 226 722 l 193 494 q 261 503 228 500 q 325 506 294 506 q 535 461 454 506 q 653 344 615 417 q 690 185 690 271 q 658 32 690 101 q 569 -88 626 -37 q 440 -166 513 -139 q 286 -193 368 -193 q 166 -177 214 -193 q 91 -138 118 -161 q 53 -91 64 -115 q 42 -50 42 -67 q 60 -3 42 -19 q 106 14 79 14 q 184 -24 146 14 q 236 -136 222 -61 q 266 -140 253 -139 q 292 -140 279 -140 q 436 -101 378 -140 q 524 3 494 -61 q 554 139 554 67 q 528 258 554 201 q 441 349 501 314 q 279 385 381 385 q 206 380 247 385 q 122 364 164 375 l 113 368 l 185 851 z "},"6":{"ha":793,"x_min":61,"x_max":740,"o":"m 407 -17 q 283 6 344 -17 q 171 78 221 29 q 91 203 121 126 q 61 389 61 281 q 98 617 61 503 q 210 825 135 731 q 398 976 285 919 q 664 1033 511 1033 q 683 1033 669 1033 q 711 1031 697 1033 q 706 979 711 1003 q 687 981 699 981 q 656 982 675 982 q 453 930 540 982 q 311 787 367 878 q 232 579 256 696 q 332 624 278 608 q 442 639 386 639 q 586 606 518 639 q 697 505 654 574 q 740 328 740 436 q 692 136 740 213 q 567 22 643 60 q 407 -17 490 -17 m 221 514 q 215 407 215 463 q 244 192 215 274 q 319 73 274 110 q 415 36 365 36 q 494 61 456 36 q 558 142 533 86 q 583 288 583 197 q 554 447 583 386 q 477 537 525 508 q 375 565 429 565 q 299 553 339 565 q 221 514 258 540 z "},"7":{"ha":699,"x_min":24,"x_max":668,"o":"m 165 -161 l 158 -143 q 363 292 258 76 q 572 731 468 508 q 535 731 571 731 q 442 732 500 732 q 317 732 385 732 q 268 732 294 732 q 211 731 242 732 q 149 722 172 729 q 108 686 125 714 q 68 593 92 658 q 47 594 58 593 q 24 600 35 594 q 65 861 53 738 q 248 856 156 857 q 444 854 340 854 q 528 854 483 854 q 609 856 572 854 q 663 858 646 857 q 666 840 665 849 q 668 818 667 832 q 540 497 607 667 q 413 158 474 328 q 308 -161 353 -11 q 272 -162 293 -162 q 232 -162 250 -162 q 199 -162 215 -162 q 165 -161 183 -162 z "},"8":{"ha":749,"x_min":43,"x_max":706,"o":"m 357 -17 q 187 18 257 -17 q 80 112 117 53 q 43 240 43 171 q 74 357 43 307 q 156 445 106 407 q 261 511 206 483 l 261 514 q 135 617 186 560 q 83 765 83 675 q 122 901 83 840 q 228 997 160 961 q 390 1033 297 1033 q 543 999 481 1033 q 638 910 606 964 q 669 797 669 857 q 640 689 669 736 q 568 607 611 642 q 483 549 525 572 l 483 546 q 591 478 540 514 q 674 392 642 442 q 706 271 706 342 q 663 127 706 193 q 543 22 621 61 q 357 -17 465 -17 m 308 486 q 225 391 258 449 q 192 251 192 333 q 212 144 192 193 q 273 64 232 94 q 376 33 314 33 q 478 61 438 33 q 540 133 519 89 q 561 226 561 178 q 526 331 561 288 q 433 411 490 375 q 308 486 375 447 m 432 572 q 498 649 468 597 q 528 783 528 701 q 513 882 528 836 q 465 956 497 928 q 379 983 432 983 q 264 929 304 983 q 224 803 224 875 q 251 709 224 749 q 326 637 279 669 q 432 572 374 604 z "},"9":{"ha":792,"x_min":53,"x_max":731,"o":"m 565 283 q 451 233 504 246 q 353 221 397 221 q 186 267 253 221 q 86 385 119 313 q 53 536 53 457 q 91 701 53 624 q 203 827 129 779 q 385 875 278 875 q 513 853 451 875 q 624 782 575 831 q 702 654 674 733 q 731 461 731 575 q 695 227 731 343 q 587 16 660 111 q 399 -136 514 -79 q 126 -193 285 -193 q 107 -192 122 -193 q 78 -190 92 -192 q 77 -166 76 -178 q 82 -140 78 -154 q 101 -142 94 -142 q 108 -142 107 -142 q 335 -89 242 -142 q 486 59 429 -36 q 565 283 543 154 m 578 454 q 549 669 578 589 q 473 786 519 750 q 376 822 426 822 q 289 789 326 822 q 231 700 251 756 q 211 576 211 644 q 233 443 211 508 q 301 336 256 378 q 418 294 347 294 q 487 305 447 294 q 572 346 526 315 q 578 454 578 399 z "},"\u0000":{"ha":0,"x_min":0,"x_max":0,"o":""},"\r":{"ha":361,"x_min":0,"x_max":0,"o":""}," ":{"ha":361,"x_min":0,"x_max":0,"o":""}," ":{"ha":361,"x_min":0,"x_max":0,"o":""},"A":{"ha":943,"x_min":-40,"x_max":972,"o":"m -37 -1 q -37 43 -40 21 q 25 53 1 47 q 65 73 49 58 q 97 117 82 88 q 133 201 113 147 l 433 971 q 470 979 449 976 q 507 982 492 982 l 806 189 q 838 110 825 139 q 865 69 850 82 q 904 52 881 57 q 969 43 928 47 q 969 -1 972 21 q 869 0 921 -1 q 767 1 818 1 q 660 0 714 1 q 554 -1 607 -1 q 554 43 550 19 q 649 56 622 50 q 675 89 675 63 q 671 114 675 100 q 660 149 667 128 l 581 363 l 268 363 l 199 171 q 184 127 189 144 q 179 96 179 110 q 208 58 179 65 q 301 43 236 50 q 301 -1 304 19 q 208 0 254 -1 q 115 1 163 1 q 40 0 76 1 q -37 -1 4 -1 m 289 421 l 560 421 l 424 790 l 289 421 z "},"B":{"ha":885,"x_min":43,"x_max":839,"o":"m 453 -3 q 352 -1 404 -3 q 260 1 300 1 q 197 1 238 1 q 115 -1 157 0 q 46 -1 74 -1 q 46 43 43 19 q 139 56 111 50 q 174 84 167 63 q 181 154 181 106 l 181 800 q 174 883 181 858 q 138 916 167 908 q 46 929 110 924 q 46 974 43 950 q 115 973 75 974 q 195 972 156 972 q 261 971 235 971 q 360 972 304 971 q 450 974 417 974 q 701 918 619 974 q 783 757 783 863 q 565 518 783 581 l 565 517 q 702 482 640 511 q 801 400 764 453 q 839 269 839 347 q 779 105 839 171 q 631 15 719 39 q 547 1 592 6 q 453 -3 503 -3 m 415 474 q 377 473 399 474 q 333 469 356 472 l 333 161 q 333 103 333 126 q 335 64 333 79 q 444 51 396 51 q 610 105 551 51 q 669 268 669 158 q 608 424 669 375 q 415 474 547 474 m 333 531 q 353 529 344 529 q 371 529 363 529 q 560 577 504 529 q 617 722 617 625 q 415 917 617 917 q 376 915 394 917 q 333 910 357 913 l 333 531 z "},"C":{"ha":1001,"x_min":69,"x_max":925,"o":"m 925 288 q 900 39 908 165 q 744 -1 824 17 q 575 -19 665 -19 q 308 42 421 -19 q 132 213 194 103 q 69 474 69 324 q 132 741 69 625 q 308 922 194 857 q 576 988 422 988 q 676 981 633 988 q 781 960 719 974 q 829 949 808 954 q 872 943 850 943 q 888 944 879 943 q 901 946 896 944 q 907 819 904 885 q 915 683 910 754 q 868 681 888 679 q 583 932 814 932 q 425 895 490 932 q 319 795 360 858 q 261 653 279 732 q 243 488 243 574 q 279 263 243 365 q 393 99 315 160 q 593 38 471 38 q 777 99 708 38 q 876 289 846 160 q 899 289 888 289 q 925 288 911 289 z "},"D":{"ha":1075,"x_min":43,"x_max":1006,"o":"m 261 971 q 360 972 304 971 q 451 974 415 974 q 865 857 725 974 q 1006 517 1006 740 q 934 237 1006 353 q 736 60 863 121 q 446 -1 610 -1 q 392 -1 426 -1 q 321 1 357 0 q 260 1 285 1 q 197 1 238 1 q 115 -1 157 0 q 46 -1 74 -1 q 46 43 43 19 q 139 56 111 50 q 174 83 167 63 q 181 154 181 104 l 181 800 q 174 883 181 858 q 138 916 167 908 q 46 929 110 924 q 46 974 43 950 q 115 973 75 974 q 195 972 156 972 q 261 971 235 971 m 333 910 l 333 172 q 333 114 333 138 q 335 75 333 90 q 472 56 401 56 q 674 113 593 56 q 797 268 756 169 q 838 492 838 367 q 738 801 838 686 q 444 917 639 917 q 378 914 410 917 q 333 910 347 911 z "},"E":{"ha":889,"x_min":43,"x_max":847,"o":"m 46 -1 q 46 43 43 19 q 139 56 111 50 q 174 84 167 63 q 181 154 181 106 l 181 800 q 174 883 181 858 q 138 916 167 908 q 46 929 110 924 q 46 974 43 950 q 109 973 82 974 q 164 972 136 972 q 231 972 192 972 q 329 971 269 971 q 535 972 439 971 q 694 973 631 972 q 769 974 758 974 q 783 868 775 922 q 800 753 790 814 q 754 753 776 750 q 715 826 738 794 q 669 875 693 858 q 606 904 643 894 q 515 914 569 914 l 333 914 l 333 535 l 410 535 q 511 544 476 535 q 563 584 546 553 q 589 683 579 615 q 636 683 614 688 q 634 590 635 622 q 633 542 633 557 q 633 517 633 526 q 633 503 633 508 l 636 319 q 589 319 615 315 q 564 425 581 393 q 515 465 547 457 q 422 474 482 474 l 333 474 l 333 172 q 334 97 333 125 q 336 60 335 68 l 526 60 q 638 72 596 60 q 708 107 681 83 q 754 160 728 122 q 804 249 781 199 q 847 249 826 251 q 824 108 833 171 q 807 0 814 46 q 671 0 744 0 q 524 1 597 0 q 390 1 450 1 q 293 1 329 1 q 187 1 228 1 q 115 -1 146 0 q 46 -1 83 -1 z "},"F":{"ha":843,"x_min":39,"x_max":822,"o":"m 42 -1 q 42 43 39 19 q 138 56 108 50 q 174 83 167 63 q 181 154 181 104 l 181 800 q 174 883 181 858 q 138 916 167 908 q 46 929 110 924 q 46 974 43 950 q 102 973 79 974 q 150 972 125 972 q 213 972 175 972 q 315 971 251 971 q 476 972 394 971 q 628 972 558 972 q 742 973 699 972 q 789 974 786 974 q 804 864 796 921 q 822 743 813 807 q 799 742 811 742 q 776 743 788 742 q 692 874 740 836 q 535 914 642 914 l 333 914 l 333 521 l 425 521 q 526 530 492 521 q 578 570 561 539 q 604 669 594 601 q 651 669 629 674 q 649 577 650 611 q 649 524 649 543 q 649 488 649 504 q 649 453 649 472 q 649 399 649 433 q 651 304 650 364 q 604 304 631 300 q 579 410 596 378 q 530 451 563 443 q 438 460 497 460 l 333 460 l 333 172 q 336 106 333 129 q 353 68 339 82 q 395 51 367 56 q 478 43 424 47 q 478 -1 482 21 q 407 -1 449 -1 q 324 1 365 0 q 256 1 283 1 q 190 1 229 1 q 112 -1 151 0 q 42 -1 72 -1 z "},"G":{"ha":1094,"x_min":69,"x_max":1061,"o":"m 589 -21 q 315 38 432 -21 q 134 207 199 96 q 69 474 69 318 q 134 744 69 629 q 316 924 199 860 q 592 988 433 988 q 704 980 644 988 q 807 960 764 972 q 856 947 833 953 q 900 942 878 942 q 933 946 917 942 q 939 819 936 885 q 947 683 942 754 q 899 681 918 679 q 797 870 871 808 q 601 932 724 932 q 435 897 504 932 q 324 800 367 861 q 263 659 282 739 q 243 489 243 579 q 283 256 243 357 q 406 97 324 154 q 614 39 489 39 q 700 47 653 39 q 790 71 747 54 l 790 246 q 787 313 790 289 q 769 349 783 338 q 723 365 754 360 q 638 374 692 369 q 638 418 633 396 q 708 417 667 418 q 792 416 750 417 q 863 415 835 415 q 962 417 906 415 q 1058 418 1018 418 q 1058 375 1061 397 q 976 361 1001 368 q 946 333 951 354 q 940 263 940 313 l 940 218 q 944 108 940 153 q 950 44 947 64 q 589 -21 757 -21 z "},"H":{"ha":1167,"x_min":39,"x_max":1126,"o":"m 44 -1 q 44 43 40 19 q 137 56 108 49 q 173 84 165 63 q 181 154 181 106 l 181 800 q 174 883 181 858 q 138 916 167 908 q 43 929 108 924 q 43 974 39 950 q 112 973 71 974 q 193 972 153 972 q 258 971 233 971 q 323 972 283 971 q 403 973 363 972 q 469 974 444 974 q 469 929 474 953 q 376 917 406 924 q 340 888 347 910 q 333 818 333 867 l 333 544 l 833 544 l 833 800 q 826 883 833 858 q 792 916 819 908 q 699 929 764 924 q 699 974 696 950 q 765 973 725 974 q 846 972 806 972 q 911 971 886 971 q 978 972 939 971 q 1056 973 1017 972 q 1124 974 1096 974 q 1124 929 1126 953 q 1029 917 1058 924 q 993 888 1000 910 q 986 818 986 867 l 986 172 q 993 90 986 115 q 1028 56 1000 64 q 1124 43 1057 49 q 1124 -1 1126 19 q 1054 -1 1094 -1 q 974 1 1014 0 q 908 1 935 1 q 844 1 883 1 q 767 -1 806 0 q 700 -1 728 -1 q 700 43 696 19 q 792 56 764 49 q 826 84 819 63 q 833 154 833 106 l 833 483 l 333 483 l 333 172 q 340 89 333 114 q 376 56 347 64 q 469 43 404 49 q 469 -1 472 19 q 401 -1 442 -1 q 322 1 361 0 q 256 1 282 1 q 191 1 231 1 q 112 -1 151 0 q 44 -1 72 -1 z "},"I":{"ha":514,"x_min":38,"x_max":475,"o":"m 333 818 l 333 172 q 336 104 333 129 q 351 68 339 79 q 392 52 364 57 q 471 43 419 47 q 471 -1 475 21 q 403 -1 443 -1 q 323 1 363 0 q 257 1 283 1 q 191 1 231 1 q 112 -1 151 0 q 42 -1 72 -1 q 42 43 38 19 q 138 56 108 50 q 174 83 167 63 q 181 154 181 104 l 181 800 q 174 883 181 858 q 138 916 167 908 q 42 929 108 924 q 42 974 39 950 q 112 973 71 974 q 193 972 153 972 q 260 971 233 971 q 325 972 286 971 q 404 973 364 972 q 471 974 444 974 q 471 929 475 953 q 376 917 406 924 q 340 889 347 910 q 333 818 333 868 z "},"J":{"ha":457,"x_min":-125,"x_max":453,"o":"m 4 -336 q -85 -315 -44 -336 q -125 -247 -125 -294 q -100 -191 -125 -211 q -39 -171 -75 -171 q 32 -195 0 -171 q 86 -262 64 -219 q 139 -210 124 -251 q 157 -105 154 -168 q 160 36 160 -42 l 160 800 q 153 883 160 858 q 117 916 146 908 q 22 929 89 924 q 22 974 18 950 q 90 973 50 974 q 169 972 129 972 q 238 971 210 971 q 306 972 267 971 q 383 973 344 972 q 450 974 421 974 q 450 929 453 953 q 354 917 383 924 q 318 889 325 910 q 311 818 311 868 l 311 103 q 289 -90 311 -11 q 222 -226 267 -169 q 122 -308 179 -281 q 4 -336 65 -336 z "},"K":{"ha":993,"x_min":39,"x_max":1004,"o":"m 42 -1 q 42 43 39 19 q 138 56 108 50 q 174 83 167 63 q 181 154 181 104 l 181 800 q 174 883 181 858 q 138 916 167 908 q 42 929 108 924 q 42 974 39 950 q 110 973 69 974 q 192 972 151 972 q 257 971 232 971 q 322 972 283 971 q 399 973 360 972 q 467 974 439 974 q 467 929 471 953 q 375 917 403 924 q 340 889 347 910 q 333 818 333 868 l 333 475 l 653 814 q 706 892 706 871 q 681 917 706 910 q 599 929 656 925 q 599 974 596 953 q 658 973 622 974 q 731 972 694 972 q 789 971 767 971 q 873 972 833 971 q 960 974 913 974 q 960 929 963 951 q 888 918 917 925 q 834 894 860 911 q 776 847 808 878 q 696 767 744 817 l 492 556 l 778 179 q 833 110 811 136 q 877 72 856 85 q 927 53 899 58 q 1000 43 956 47 q 1000 -1 1004 21 q 938 -1 974 -1 q 867 1 901 0 q 807 1 832 1 q 767 1 792 1 q 724 0 743 0 l 390 449 l 333 386 l 333 172 q 340 88 333 114 q 376 56 347 63 q 467 43 404 49 q 467 -1 471 21 q 399 -1 439 -1 q 320 1 360 0 q 254 1 281 1 q 189 1 228 1 q 110 -1 150 0 q 42 -1 71 -1 z "},"L":{"ha":853,"x_min":43,"x_max":843,"o":"m 46 -1 q 46 43 43 19 q 139 56 111 50 q 174 84 167 63 q 181 154 181 106 l 181 800 q 174 883 181 858 q 138 916 167 908 q 46 929 110 924 q 46 974 43 950 q 115 973 75 974 q 193 972 154 972 q 257 971 232 971 q 323 972 283 971 q 403 973 363 972 q 471 974 444 974 q 471 929 475 953 q 376 917 406 924 q 340 889 347 910 q 333 818 333 868 l 333 172 q 334 97 333 125 q 336 58 335 68 l 533 58 q 704 110 649 58 q 800 265 750 154 q 843 265 822 269 q 816 113 826 181 q 799 0 806 46 q 530 1 664 0 q 261 1 396 1 q 194 1 235 1 q 114 -1 154 0 q 46 -1 74 -1 z "},"M":{"ha":1346,"x_min":26,"x_max":1310,"o":"m 669 211 l 967 972 q 1028 971 996 971 q 1082 971 1060 971 q 1123 972 1093 971 q 1188 972 1153 972 q 1253 973 1224 972 q 1294 974 1283 974 q 1294 931 1299 953 l 1292 931 q 1199 917 1228 924 q 1163 890 1169 911 q 1157 819 1157 868 l 1168 171 q 1171 103 1168 128 q 1186 67 1174 78 q 1226 51 1199 56 q 1306 42 1254 46 q 1306 -1 1310 21 q 1265 -1 1294 -1 q 1199 0 1235 0 q 1134 1 1164 0 q 1093 1 1104 1 q 1053 1 1082 1 q 989 0 1024 0 q 925 -1 954 0 q 885 -1 896 -1 q 885 42 883 19 l 888 42 q 976 55 949 49 q 1010 83 1004 61 q 1017 153 1017 104 l 1004 897 l 654 1 q 624 -4 644 -3 q 588 -6 603 -6 l 258 868 l 236 153 q 240 87 235 107 q 274 58 246 67 q 367 42 301 50 q 367 -1 372 19 q 319 -1 353 -1 q 251 1 285 0 q 201 1 217 1 q 169 1 193 1 q 115 0 144 0 q 62 -1 86 0 q 29 -1 38 -1 q 29 42 26 21 q 122 58 94 50 q 158 92 150 67 q 167 171 165 117 l 193 819 q 189 889 196 868 q 152 917 182 910 q 54 931 122 925 q 54 974 53 953 q 151 972 101 974 q 263 971 201 971 q 318 971 283 971 q 382 972 353 971 l 669 211 z "},"N":{"ha":1101,"x_min":24,"x_max":1083,"o":"m 863 -10 l 244 801 l 244 207 q 247 126 244 154 q 264 82 250 97 q 307 58 278 68 q 390 43 336 49 q 390 -1 393 21 q 298 0 349 -1 q 213 1 247 1 q 127 0 178 1 q 36 -1 76 -1 q 36 43 32 19 q 114 56 86 50 q 154 76 142 63 q 170 115 167 89 q 174 189 174 142 l 174 758 q 170 846 174 814 q 152 894 167 878 q 108 917 138 910 q 25 931 78 925 q 25 974 24 951 q 117 972 68 974 q 214 971 165 971 q 252 971 221 971 q 307 972 283 971 l 871 231 l 871 764 q 869 846 871 817 q 851 889 867 875 q 711 928 822 919 q 711 972 707 951 q 774 972 738 972 q 846 970 811 971 q 903 969 881 969 q 989 971 938 969 q 1081 972 1040 972 q 1081 929 1083 951 q 985 910 1014 921 q 949 872 956 900 q 942 782 942 844 l 942 -3 q 904 -8 928 -6 q 863 -10 881 -10 z "},"O":{"ha":1114,"x_min":69,"x_max":1044,"o":"m 1044 492 q 983 226 1044 342 q 811 45 922 111 q 549 -21 700 -21 q 292 43 399 -21 q 127 219 185 107 q 69 475 69 332 q 131 740 69 624 q 303 922 192 856 q 565 988 415 988 q 821 924 714 988 q 986 748 928 860 q 1044 492 1044 636 m 872 478 q 856 643 872 563 q 802 789 839 724 q 706 892 765 854 q 560 931 646 931 q 412 892 472 931 q 315 789 351 853 q 260 646 278 725 q 243 485 243 567 q 260 324 243 404 q 315 179 278 244 q 415 74 353 114 q 564 35 476 35 q 709 72 650 35 q 804 173 768 110 q 856 315 840 236 q 872 478 872 394 z "},"P":{"ha":822,"x_min":39,"x_max":788,"o":"m 458 431 q 403 433 433 431 q 333 444 372 436 l 333 172 q 336 105 333 129 q 353 68 339 81 q 395 51 368 56 q 482 43 422 47 q 482 -1 485 21 q 409 -1 451 -1 q 326 1 367 0 q 257 1 285 1 q 191 1 231 1 q 112 -1 151 0 q 42 -1 72 -1 q 42 43 39 19 q 138 56 108 50 q 174 83 167 63 q 181 154 181 104 l 181 800 q 174 883 181 858 q 138 916 167 908 q 42 929 108 924 q 42 974 39 950 q 112 973 69 974 q 194 972 154 972 q 253 971 235 971 q 319 972 279 971 q 397 974 358 972 q 458 975 436 975 q 621 951 546 975 q 742 871 696 926 q 788 718 788 815 q 744 561 788 625 q 627 464 701 497 q 458 431 553 431 m 333 500 q 374 492 351 496 q 421 488 396 488 q 565 549 513 488 q 618 711 618 611 q 565 864 618 808 q 407 919 513 919 q 373 918 393 919 q 333 914 353 917 l 333 500 z "},"Q":{"ha":1114,"x_min":69,"x_max":1189,"o":"m 449 -12 q 243 78 328 11 q 114 246 158 144 q 69 472 69 347 q 131 740 69 624 q 303 922 192 856 q 565 988 415 988 q 821 924 714 988 q 986 748 928 860 q 1044 492 1044 636 q 998 257 1044 363 q 864 81 951 151 q 653 -8 776 11 l 653 -12 q 809 -140 743 -94 q 931 -201 875 -185 q 1050 -218 988 -218 q 1109 -214 1081 -218 q 1168 -197 1138 -210 q 1189 -235 1179 -212 q 1072 -307 1138 -278 q 933 -336 1006 -336 q 806 -307 858 -336 q 716 -232 754 -278 q 643 -139 678 -186 q 617 -101 629 -119 q 589 -65 604 -82 q 550 -31 568 -39 q 509 -22 532 -24 q 449 -12 486 -19 m 872 478 q 856 643 872 563 q 802 789 839 724 q 706 892 765 854 q 560 931 646 931 q 412 892 472 931 q 315 790 351 854 q 260 646 278 725 q 243 486 243 567 q 260 325 243 406 q 315 179 278 244 q 415 74 353 114 q 564 35 476 35 q 709 72 650 35 q 804 173 768 110 q 856 315 840 236 q 872 478 872 394 z "},"R":{"ha":963,"x_min":38,"x_max":999,"o":"m 369 439 l 333 443 l 333 172 q 336 104 333 129 q 351 68 339 79 q 390 52 363 57 q 465 43 417 47 q 465 -1 469 21 q 399 -1 438 -1 q 321 1 360 0 q 256 1 282 1 q 190 1 231 1 q 110 -1 150 0 q 42 -1 69 -1 q 42 43 38 19 q 138 55 108 49 q 174 83 167 61 q 181 154 181 104 l 181 801 q 173 883 181 858 q 136 917 165 908 q 42 929 107 925 q 42 974 38 950 q 110 973 68 974 q 194 972 153 972 q 254 971 235 971 q 319 972 279 971 q 398 974 358 972 q 460 975 438 975 q 623 951 547 975 q 745 874 699 928 q 792 731 792 821 q 738 572 792 642 q 569 468 685 503 l 569 464 q 617 408 590 447 l 763 197 q 823 117 799 146 q 869 73 847 88 q 921 53 892 58 q 994 43 950 47 q 994 -1 999 21 q 929 -1 968 -1 q 854 1 890 0 q 796 1 818 1 q 757 1 774 1 q 718 0 740 0 l 461 379 q 419 426 438 415 q 369 439 401 436 m 333 500 q 365 496 351 497 q 392 494 379 494 q 563 550 500 494 q 626 714 626 606 q 572 865 626 813 q 410 918 517 918 q 376 917 396 918 q 333 913 356 915 l 333 500 z "},"S":{"ha":760,"x_min":65,"x_max":697,"o":"m 356 -19 q 310 -17 354 -19 q 210 -6 267 -15 q 124 6 163 3 q 78 10 86 10 q 65 289 76 125 q 88 290 76 290 q 110 290 100 290 q 198 101 136 168 q 361 35 260 35 q 508 84 451 35 q 565 214 565 133 q 534 314 565 275 q 452 380 503 353 q 344 431 401 407 q 217 492 278 460 q 118 576 157 525 q 79 710 79 628 q 123 860 79 797 q 240 955 167 922 q 403 988 314 988 q 460 985 431 988 q 522 976 490 982 q 584 969 563 971 q 613 968 606 968 q 628 969 617 968 q 646 971 639 969 q 651 844 649 910 q 660 708 654 779 q 614 706 632 704 q 535 879 582 826 q 400 933 488 933 q 269 892 324 933 q 215 771 215 851 q 235 694 215 728 q 303 631 256 661 q 433 565 350 600 q 526 522 479 546 q 611 466 572 499 q 674 387 650 433 q 697 276 697 340 q 650 116 697 182 q 526 15 603 50 q 356 -19 449 -19 z "},"T":{"ha":944,"x_min":17,"x_max":928,"o":"m 254 -1 q 254 43 251 19 q 353 56 324 50 q 389 83 382 63 q 396 154 396 104 l 396 913 l 296 913 q 180 892 222 913 q 112 832 138 872 q 61 729 86 792 q 17 729 39 726 q 33 857 25 796 q 46 975 40 918 q 246 969 136 969 q 474 968 356 968 q 703 969 593 968 q 903 975 814 969 q 914 858 908 919 q 928 729 919 796 q 882 729 904 726 q 829 833 856 793 q 762 893 803 874 q 647 913 721 913 l 549 913 l 549 172 q 551 104 549 129 q 567 68 554 79 q 610 52 581 57 q 690 43 639 47 q 690 -1 694 21 q 620 -1 661 -1 q 539 1 579 0 q 471 1 499 1 q 405 1 444 1 q 324 -1 365 0 q 254 -1 283 -1 z "},"U":{"ha":1065,"x_min":15,"x_max":1058,"o":"m 19 974 q 87 973 47 974 q 166 972 126 972 q 232 971 206 971 q 298 972 258 971 q 378 973 338 972 q 446 974 418 974 q 446 931 450 953 q 353 918 382 925 q 317 890 324 911 q 310 819 310 869 l 310 365 q 377 134 310 210 q 574 58 444 58 q 779 143 710 58 q 849 406 849 228 l 849 786 q 845 862 849 835 q 827 901 842 889 q 783 919 813 914 q 701 929 754 924 q 701 972 697 950 q 792 971 739 972 q 876 969 844 969 q 963 971 911 969 q 1054 972 1015 972 q 1054 929 1058 951 q 961 915 990 922 q 924 885 932 908 q 917 804 917 861 l 917 376 q 821 88 917 192 q 531 -15 725 -15 q 335 21 419 -15 q 204 133 251 57 q 157 324 157 208 l 157 801 q 150 885 157 860 q 114 917 143 910 q 19 931 85 925 q 19 974 15 951 z "},"V":{"ha":942,"x_min":-36,"x_max":999,"o":"m 432 -10 l 132 782 q 101 860 114 832 q 72 901 88 888 q 33 920 57 915 q -32 929 8 925 q -32 974 -36 951 q 70 972 17 974 q 174 971 124 971 q 244 972 204 971 q 323 973 283 972 q 393 974 363 974 q 393 929 397 953 q 290 915 319 924 q 261 882 261 907 q 266 858 261 872 q 278 824 271 843 l 515 188 l 747 799 q 763 844 757 825 q 768 875 768 863 q 740 913 768 903 q 633 929 711 924 q 633 974 629 953 q 694 973 654 974 q 775 972 735 972 q 836 971 815 971 q 916 972 881 971 q 994 974 951 974 q 994 929 999 951 q 928 921 954 925 q 885 903 903 917 q 851 859 867 889 q 814 775 835 829 l 507 1 q 469 -7 490 -4 q 432 -10 447 -10 z "},"W":{"ha":1406,"x_min":-26,"x_max":1447,"o":"m 886 -12 l 708 503 l 496 1 q 458 -6 481 -3 q 421 -10 436 -8 l 140 785 q 110 863 122 835 q 82 903 97 890 q 42 920 67 915 q -24 929 18 925 q -24 974 -26 951 q 76 972 22 974 q 176 971 129 971 q 274 972 217 971 q 375 974 332 974 q 375 929 379 953 q 294 917 318 924 q 271 885 271 910 q 275 860 271 875 q 286 824 279 846 l 506 188 l 679 590 l 613 783 q 584 862 596 833 q 558 903 572 890 q 523 920 544 915 q 464 929 501 925 q 464 974 461 951 q 563 972 513 974 q 660 971 613 971 q 761 972 701 971 q 867 974 821 974 q 867 929 871 953 q 772 917 799 924 q 744 883 744 910 q 758 824 744 864 l 969 185 l 1196 801 q 1213 847 1207 829 q 1219 879 1219 865 q 1192 915 1219 906 q 1096 929 1164 924 q 1096 974 1092 953 q 1153 973 1115 974 q 1228 972 1190 972 q 1286 971 1267 971 q 1365 972 1329 971 q 1443 974 1401 974 q 1443 929 1447 951 q 1377 919 1403 925 q 1333 899 1351 914 q 1299 853 1315 885 q 1263 768 1283 822 l 960 -1 q 923 -8 946 -6 q 886 -12 900 -11 z "},"X":{"ha":967,"x_min":-29,"x_max":969,"o":"m 528 -1 q 528 43 525 19 q 615 56 589 49 q 642 82 642 64 q 634 107 642 93 q 614 140 626 121 l 440 413 l 247 146 q 225 111 233 125 q 217 86 217 97 q 247 58 217 67 q 342 43 278 50 q 342 -1 344 19 q 298 -1 326 -1 q 236 0 269 0 q 175 1 203 0 q 132 1 147 1 q 47 0 88 1 q -26 -1 6 -1 q -26 43 -29 21 q 42 54 14 47 q 92 77 69 61 q 138 122 114 93 q 197 196 163 150 l 401 472 l 200 786 q 150 858 171 832 q 108 899 129 885 q 62 919 88 913 q -4 929 36 925 q -4 974 -8 951 q 101 972 46 974 q 207 971 156 971 q 278 972 238 971 q 360 973 319 972 q 431 974 401 974 q 431 929 433 953 q 347 916 371 924 q 322 890 322 908 q 329 867 322 881 q 350 831 336 853 l 504 589 l 678 828 q 707 886 707 869 q 678 914 707 906 q 589 929 650 922 q 589 974 585 953 q 649 973 608 974 q 731 972 690 972 q 792 971 772 971 q 881 972 836 971 q 949 974 925 974 q 949 929 953 951 q 881 918 908 925 q 832 896 854 911 q 785 852 810 881 q 725 776 760 824 l 542 531 l 761 186 q 811 113 790 140 q 853 73 832 86 q 900 53 874 60 q 967 43 926 47 q 967 -1 969 21 q 863 0 915 -1 q 757 1 810 1 q 685 1 728 1 q 601 -1 643 0 q 528 -1 558 -1 z "},"Y":{"ha":861,"x_min":-36,"x_max":907,"o":"m 711 778 l 507 414 l 507 172 q 510 104 507 129 q 525 68 513 79 q 565 52 538 57 q 644 43 593 47 q 644 -1 649 21 q 575 -1 615 -1 q 495 1 535 0 q 429 1 456 1 q 364 1 403 1 q 285 -1 325 0 q 215 -1 244 -1 q 215 43 213 19 q 311 56 282 50 q 347 84 340 63 q 354 154 354 106 l 354 400 l 143 786 q 101 860 118 833 q 69 901 85 888 q 30 919 53 914 q -33 929 7 925 q -33 974 -36 951 q 69 972 17 974 q 174 971 122 971 q 272 972 218 971 q 376 974 326 974 q 376 929 379 953 q 292 916 317 924 q 267 889 267 908 q 274 863 267 879 q 294 824 282 847 l 476 483 l 660 822 q 685 885 685 868 q 656 913 685 906 q 558 929 628 921 q 558 974 556 953 q 615 973 581 974 q 684 972 650 972 q 740 971 718 971 q 823 972 785 971 q 904 974 861 974 q 904 929 907 951 q 839 919 864 925 q 796 899 814 914 q 758 856 778 885 q 711 778 739 828 z "},"Z":{"ha":911,"x_min":35,"x_max":869,"o":"m 857 943 l 236 60 l 546 60 q 736 119 678 60 q 826 275 781 165 q 869 275 849 278 q 843 120 854 189 q 826 0 832 51 q 698 1 806 0 q 383 1 590 1 q 210 1 274 1 q 108 -1 146 0 q 40 -1 71 -1 q 35 26 35 11 l 656 913 l 353 913 q 197 864 247 913 q 121 721 153 821 q 74 721 99 719 q 93 853 85 790 q 107 975 101 915 q 295 969 197 969 q 503 968 393 968 q 683 969 615 968 q 789 971 750 969 q 851 972 828 972 q 856 959 854 967 q 857 943 857 951 z "},"À":{"ha":943,"x_min":-33,"x_max":979,"o":"m -31 -1 q -31 43 -33 21 q 32 53 8 47 q 72 73 56 58 q 104 117 89 88 q 140 201 119 147 l 440 971 q 477 979 456 976 q 514 982 499 982 l 813 189 q 844 110 832 139 q 872 69 857 82 q 911 52 888 57 q 976 43 935 47 q 976 -1 979 21 q 876 0 928 -1 q 774 1 825 1 q 667 0 721 1 q 561 -1 614 -1 q 561 43 557 19 q 656 56 629 50 q 682 89 682 63 q 678 114 682 100 q 667 149 674 128 l 588 363 l 275 363 l 206 171 q 191 127 196 144 q 186 96 186 110 q 215 58 186 65 q 308 43 243 50 q 308 -1 311 19 q 215 0 261 -1 q 122 1 169 1 q 47 0 83 1 q -31 -1 11 -1 m 296 421 l 567 421 l 431 790 l 296 421 m 281 1168 l 281 1172 q 331 1235 301 1206 q 383 1265 361 1265 q 472 1161 422 1219 q 569 1054 522 1103 q 540 1021 556 1029 q 453 1073 503 1044 q 358 1127 404 1101 q 281 1168 311 1153 z "},"Á":{"ha":943,"x_min":-33,"x_max":979,"o":"m -31 -1 q -31 43 -33 21 q 32 53 8 47 q 72 73 56 58 q 104 117 89 88 q 140 201 119 147 l 440 971 q 477 979 456 976 q 514 982 499 982 l 813 189 q 844 110 832 139 q 872 69 857 82 q 911 52 888 57 q 976 43 935 47 q 976 -1 979 21 q 876 0 928 -1 q 774 1 825 1 q 667 0 721 1 q 561 -1 614 -1 q 561 43 557 19 q 656 56 629 50 q 682 89 682 63 q 678 114 682 100 q 667 149 674 128 l 588 363 l 275 363 l 206 171 q 191 127 196 144 q 186 96 186 110 q 215 58 186 65 q 308 43 243 50 q 308 -1 311 19 q 215 0 261 -1 q 122 1 169 1 q 47 0 83 1 q -31 -1 11 -1 m 296 421 l 567 421 l 431 790 l 296 421 m 661 1172 l 661 1168 q 584 1127 631 1153 q 488 1073 538 1101 q 401 1021 439 1044 q 372 1054 386 1029 q 469 1161 419 1103 q 558 1265 519 1219 q 610 1235 581 1265 q 661 1172 640 1206 z "},"Â":{"ha":943,"x_min":-33,"x_max":979,"o":"m -31 -1 q -31 43 -33 21 q 32 53 8 47 q 72 73 56 58 q 104 117 89 88 q 140 201 119 147 l 440 971 q 477 979 456 976 q 514 982 499 982 l 813 189 q 844 110 832 139 q 872 69 857 82 q 911 52 888 57 q 976 43 935 47 q 976 -1 979 21 q 876 0 928 -1 q 774 1 825 1 q 667 0 721 1 q 561 -1 614 -1 q 561 43 557 19 q 656 56 629 50 q 682 89 682 63 q 678 114 682 100 q 667 149 674 128 l 588 363 l 275 363 l 206 171 q 191 127 196 144 q 186 96 186 110 q 215 58 186 65 q 308 43 243 50 q 308 -1 311 19 q 215 0 261 -1 q 122 1 169 1 q 47 0 83 1 q -31 -1 11 -1 m 296 421 l 567 421 l 431 790 l 296 421 m 469 1147 q 378 1083 426 1115 q 276 1021 329 1051 q 238 1039 253 1025 q 299 1108 267 1068 q 363 1187 332 1147 q 417 1256 394 1226 q 442 1260 428 1258 q 471 1261 457 1261 q 498 1260 483 1261 q 524 1256 513 1258 q 578 1187 547 1226 q 643 1108 610 1147 q 704 1039 676 1068 q 665 1021 688 1026 q 563 1083 613 1051 q 469 1147 514 1114 z "},"Ã":{"ha":943,"x_min":-33,"x_max":979,"o":"m -31 -1 q -31 43 -33 21 q 32 53 8 47 q 72 73 56 58 q 104 117 89 88 q 140 201 119 147 l 440 971 q 477 979 456 976 q 514 982 499 982 l 813 189 q 844 110 832 139 q 872 69 857 82 q 911 52 888 57 q 976 43 935 47 q 976 -1 979 21 q 876 0 928 -1 q 774 1 825 1 q 667 0 721 1 q 561 -1 614 -1 q 561 43 557 19 q 656 56 629 50 q 682 89 682 63 q 678 114 682 100 q 667 149 674 128 l 588 363 l 275 363 l 206 171 q 191 127 196 144 q 186 96 186 110 q 215 58 186 65 q 308 43 243 50 q 308 -1 311 19 q 215 0 261 -1 q 122 1 169 1 q 47 0 83 1 q -31 -1 11 -1 m 296 421 l 567 421 l 431 790 l 296 421 m 679 1246 q 703 1239 692 1243 q 724 1231 714 1235 q 653 1103 696 1147 q 554 1058 610 1058 q 513 1065 535 1058 q 461 1089 490 1072 q 410 1117 435 1104 q 358 1131 386 1131 q 275 1050 308 1131 q 231 1065 256 1054 q 303 1191 261 1146 q 401 1236 346 1236 q 442 1229 419 1236 q 493 1206 464 1222 q 545 1177 519 1192 q 596 1163 571 1163 q 679 1246 646 1163 z "},"Ä":{"ha":943,"x_min":-33,"x_max":979,"o":"m -31 -1 q -31 43 -33 21 q 32 53 8 47 q 72 73 56 58 q 104 117 89 88 q 140 201 119 147 l 440 971 q 477 979 456 976 q 514 982 499 982 l 813 189 q 844 110 832 139 q 872 69 857 82 q 911 52 888 57 q 976 43 935 47 q 976 -1 979 21 q 876 0 928 -1 q 774 1 825 1 q 667 0 721 1 q 561 -1 614 -1 q 561 43 557 19 q 656 56 629 50 q 682 89 682 63 q 678 114 682 100 q 667 149 674 128 l 588 363 l 275 363 l 206 171 q 191 127 196 144 q 186 96 186 110 q 215 58 186 65 q 308 43 243 50 q 308 -1 311 19 q 215 0 261 -1 q 122 1 169 1 q 47 0 83 1 q -31 -1 11 -1 m 296 421 l 567 421 l 431 790 l 296 421 m 244 1131 q 267 1191 244 1167 q 329 1215 290 1215 q 391 1191 368 1215 q 414 1131 414 1167 q 391 1069 414 1094 q 329 1044 368 1044 q 267 1069 290 1044 q 244 1131 244 1094 m 526 1131 q 549 1191 526 1167 q 611 1215 572 1215 q 673 1191 650 1215 q 696 1131 696 1167 q 673 1069 696 1094 q 611 1044 650 1044 q 549 1069 572 1044 q 526 1131 526 1094 z "},"Ā":{"ha":943,"x_min":-33,"x_max":979,"o":"m -31 -1 q -31 43 -33 21 q 32 53 8 47 q 72 73 56 58 q 104 117 89 88 q 140 201 119 147 l 440 971 q 477 979 456 976 q 514 982 499 982 l 813 189 q 844 110 832 139 q 872 69 857 82 q 911 52 888 57 q 976 43 935 47 q 976 -1 979 21 q 876 0 928 -1 q 774 1 825 1 q 667 0 721 1 q 561 -1 614 -1 q 561 43 557 19 q 656 56 629 50 q 682 89 682 63 q 678 114 682 100 q 667 149 674 128 l 588 363 l 275 363 l 206 171 q 191 127 196 144 q 186 96 186 110 q 215 58 186 65 q 308 43 243 50 q 308 -1 311 19 q 215 0 261 -1 q 122 1 169 1 q 47 0 83 1 q -31 -1 11 -1 m 296 421 l 567 421 l 431 790 l 296 421 m 271 1143 l 671 1143 q 671 1076 675 1110 l 271 1076 q 271 1143 267 1110 z "},"Ă":{"ha":943,"x_min":-33,"x_max":979,"o":"m -31 -1 q -31 43 -33 21 q 32 53 8 47 q 72 73 56 58 q 104 117 89 88 q 140 201 119 147 l 440 971 q 477 979 456 976 q 514 982 499 982 l 813 189 q 844 110 832 139 q 872 69 857 82 q 911 52 888 57 q 976 43 935 47 q 976 -1 979 21 q 876 0 928 -1 q 774 1 825 1 q 667 0 721 1 q 561 -1 614 -1 q 561 43 557 19 q 656 56 629 50 q 682 89 682 63 q 678 114 682 100 q 667 149 674 128 l 588 363 l 275 363 l 206 171 q 191 127 196 144 q 186 96 186 110 q 215 58 186 65 q 308 43 243 50 q 308 -1 311 19 q 215 0 261 -1 q 122 1 169 1 q 47 0 83 1 q -31 -1 11 -1 m 296 421 l 567 421 l 431 790 l 296 421 m 300 1269 q 361 1172 319 1201 q 471 1142 403 1142 q 583 1172 540 1142 q 644 1269 625 1201 q 667 1265 656 1268 q 689 1260 678 1263 q 617 1092 675 1151 q 472 1032 558 1032 q 328 1092 386 1032 q 254 1260 269 1151 q 300 1269 274 1265 z "},"Å":{"ha":943,"x_min":-33,"x_max":979,"o":"m -31 -1 q -31 43 -33 21 q 32 53 8 47 q 72 73 56 58 q 104 117 89 88 q 140 201 119 147 l 440 971 q 477 979 456 976 q 514 982 499 982 l 813 189 q 844 110 832 139 q 872 69 857 82 q 911 52 888 57 q 976 43 935 47 q 976 -1 979 21 q 876 0 928 -1 q 774 1 825 1 q 667 0 721 1 q 561 -1 614 -1 q 561 43 557 19 q 656 56 629 50 q 682 89 682 63 q 678 114 682 100 q 667 149 674 128 l 588 363 l 275 363 l 206 171 q 191 127 196 144 q 186 96 186 110 q 215 58 186 65 q 308 43 243 50 q 308 -1 311 19 q 215 0 261 -1 q 122 1 169 1 q 47 0 83 1 q -31 -1 11 -1 m 296 421 l 567 421 l 431 790 l 296 421 m 313 1147 q 361 1242 313 1208 q 471 1275 410 1275 q 585 1242 543 1275 q 628 1150 628 1208 q 581 1056 628 1089 q 471 1022 533 1022 q 360 1053 407 1022 q 313 1147 313 1083 m 471 1238 q 416 1214 436 1238 q 396 1150 396 1190 q 416 1086 396 1111 q 471 1061 436 1061 q 526 1084 507 1061 q 546 1147 546 1107 q 526 1213 546 1188 q 471 1238 506 1238 z "},"Æ":{"ha":1321,"x_min":-81,"x_max":1279,"o":"m 479 -1 q 479 43 476 19 q 572 56 544 50 q 607 83 600 63 q 614 154 614 104 l 614 456 l 342 456 l 185 174 q 163 130 171 147 q 154 97 154 113 q 183 59 154 71 q 281 43 213 47 q 281 -1 285 19 q 224 -1 260 -1 q 150 1 188 0 q 86 1 113 1 q 7 0 47 1 q -78 -1 -33 -1 q -78 43 -81 21 q -10 53 -36 47 q 35 75 17 60 q 74 120 54 90 q 122 201 93 150 l 526 917 q 474 924 504 921 q 407 929 444 928 q 407 974 403 950 q 643 972 561 972 q 753 971 725 971 q 855 971 788 971 q 1012 972 922 971 q 1201 974 1101 972 q 1215 868 1207 922 q 1231 753 1222 814 q 1188 753 1210 750 q 1101 875 1153 833 q 1042 904 1076 894 q 951 914 1007 914 l 767 914 l 767 515 l 842 515 q 944 524 908 515 q 996 565 979 533 q 1022 665 1013 597 q 1068 665 1046 668 q 1066 575 1067 608 q 1065 523 1065 542 q 1065 488 1065 504 q 1065 454 1065 474 q 1066 401 1065 435 q 1068 310 1067 368 q 1022 310 1047 308 q 997 410 1014 379 q 947 448 981 440 q 854 456 914 456 l 767 456 l 767 172 q 767 97 767 125 q 769 60 768 68 l 960 60 q 1072 72 1029 60 q 1142 106 1115 83 q 1190 162 1164 125 q 1238 249 1215 199 q 1279 249 1258 251 q 1256 108 1265 171 q 1239 0 1246 46 q 1106 0 1178 0 q 963 1 1033 0 q 834 1 893 1 q 740 1 775 1 q 630 1 675 1 q 550 -1 585 0 q 479 -1 515 -1 m 375 515 l 614 515 l 614 914 l 596 914 l 375 515 z "},"Ǣ":{"ha":1328,"x_min":-81,"x_max":1279,"o":"m 479 -1 q 479 43 476 19 q 572 56 544 50 q 607 83 600 63 q 614 154 614 104 l 614 456 l 342 456 l 185 174 q 163 130 171 147 q 154 97 154 113 q 183 59 154 71 q 281 43 213 47 q 281 -1 285 19 q 224 -1 260 -1 q 150 1 188 0 q 86 1 113 1 q 7 0 47 1 q -78 -1 -33 -1 q -78 43 -81 21 q -10 53 -36 47 q 35 75 17 60 q 74 120 54 90 q 122 201 93 150 l 526 917 q 474 924 504 921 q 407 929 444 928 q 407 974 403 950 q 643 972 561 972 q 753 971 725 971 q 855 971 788 971 q 1012 972 922 971 q 1201 974 1101 972 q 1215 868 1207 922 q 1231 753 1222 814 q 1188 753 1210 750 q 1101 875 1153 833 q 1042 904 1076 894 q 951 914 1007 914 l 767 914 l 767 515 l 842 515 q 944 524 908 515 q 996 565 979 533 q 1022 665 1013 597 q 1068 665 1046 668 q 1066 575 1067 608 q 1065 523 1065 542 q 1065 488 1065 504 q 1065 454 1065 474 q 1066 401 1065 435 q 1068 310 1067 368 q 1022 310 1047 308 q 997 410 1014 379 q 947 448 981 440 q 854 456 914 456 l 767 456 l 767 172 q 767 97 767 125 q 769 60 768 68 l 960 60 q 1072 72 1029 60 q 1142 106 1115 83 q 1190 162 1164 125 q 1238 249 1215 199 q 1279 249 1258 251 q 1256 108 1265 171 q 1239 0 1246 46 q 1106 0 1178 0 q 963 1 1033 0 q 834 1 893 1 q 740 1 775 1 q 630 1 675 1 q 550 -1 585 0 q 479 -1 515 -1 m 375 515 l 614 515 l 614 914 l 596 914 l 375 515 m 611 1143 l 1011 1143 q 1011 1076 1015 1110 l 611 1076 q 611 1143 607 1110 z "},"Ĉ":{"ha":1001,"x_min":69,"x_max":925,"o":"m 925 288 q 900 39 908 165 q 744 -1 824 17 q 575 -19 665 -19 q 308 42 421 -19 q 132 213 194 103 q 69 474 69 324 q 132 741 69 625 q 308 922 194 857 q 576 988 422 988 q 676 981 633 988 q 781 960 719 974 q 829 949 808 954 q 872 943 850 943 q 888 944 879 943 q 901 946 896 944 q 907 819 904 885 q 915 683 910 754 q 868 681 888 679 q 583 932 814 932 q 425 895 490 932 q 319 795 360 858 q 261 653 279 732 q 243 488 243 574 q 279 263 243 365 q 393 99 315 160 q 593 38 471 38 q 777 99 708 38 q 876 289 846 160 q 899 289 888 289 q 925 288 911 289 m 574 1147 q 482 1083 531 1115 q 381 1021 433 1051 q 342 1039 357 1025 q 403 1108 371 1068 q 467 1187 436 1147 q 521 1256 499 1226 q 547 1260 532 1258 q 575 1261 561 1261 q 602 1260 588 1261 q 628 1256 617 1258 q 683 1187 651 1226 q 747 1108 714 1147 q 808 1039 781 1068 q 769 1021 792 1026 q 667 1083 717 1051 q 574 1147 618 1114 z "},"Č":{"ha":1001,"x_min":69,"x_max":925,"o":"m 925 288 q 900 39 908 165 q 744 -1 824 17 q 575 -19 665 -19 q 308 42 421 -19 q 132 213 194 103 q 69 474 69 324 q 132 741 69 625 q 308 922 194 857 q 576 988 422 988 q 676 981 633 988 q 781 960 719 974 q 829 949 808 954 q 872 943 850 943 q 888 944 879 943 q 901 946 896 944 q 907 819 904 885 q 915 683 910 754 q 868 681 888 679 q 583 932 814 932 q 425 895 490 932 q 319 795 360 858 q 261 653 279 732 q 243 488 243 574 q 279 263 243 365 q 393 99 315 160 q 593 38 471 38 q 777 99 708 38 q 876 289 846 160 q 899 289 888 289 q 925 288 911 289 m 576 1135 q 668 1199 619 1167 q 769 1261 717 1231 q 808 1243 793 1257 q 747 1174 781 1214 q 683 1095 714 1135 q 629 1026 651 1056 q 605 1022 619 1024 q 575 1021 590 1021 q 548 1022 563 1021 q 522 1026 533 1024 q 468 1095 500 1056 q 403 1174 436 1135 q 342 1243 371 1214 q 381 1261 358 1256 q 483 1199 433 1231 q 576 1135 532 1168 z "},"Ç":{"ha":1001,"x_min":69,"x_max":925,"o":"m 925 288 q 900 39 908 165 q 744 -1 824 17 q 581 -19 668 -19 l 546 -74 q 643 -125 615 -90 q 671 -203 671 -160 q 644 -287 671 -253 q 572 -341 617 -322 q 475 -360 528 -360 q 393 -337 418 -360 q 368 -292 368 -315 q 383 -256 368 -271 q 421 -242 399 -242 q 463 -258 439 -242 q 501 -315 486 -274 q 565 -294 547 -312 q 583 -250 583 -275 q 544 -183 583 -208 q 438 -151 504 -157 l 435 -144 l 522 -18 q 308 42 401 -8 q 132 213 194 103 q 69 474 69 324 q 132 741 69 625 q 308 922 194 857 q 576 988 422 988 q 676 981 633 988 q 781 960 719 974 q 829 949 808 954 q 872 943 850 943 q 888 944 879 943 q 901 946 896 944 q 907 819 904 885 q 915 683 910 754 q 868 681 888 679 q 583 932 814 932 q 425 895 490 932 q 319 795 360 858 q 261 653 279 732 q 243 488 243 574 q 279 263 243 365 q 393 99 315 160 q 593 38 471 38 q 777 99 708 38 q 876 289 846 160 l 900 289 q 925 288 911 289 z "},"Ḍ":{"ha":1075,"x_min":43,"x_max":1006,"o":"m 261 971 q 360 972 304 971 q 451 974 415 974 q 865 857 725 974 q 1006 517 1006 740 q 934 237 1006 353 q 736 60 863 121 q 446 -1 610 -1 q 392 -1 426 -1 q 321 1 357 0 q 260 1 285 1 q 197 1 238 1 q 115 -1 157 0 q 46 -1 74 -1 q 46 43 43 19 q 139 56 111 50 q 174 83 167 63 q 181 154 181 104 l 181 800 q 174 883 181 858 q 138 916 167 908 q 46 929 110 924 q 46 974 43 950 q 115 973 75 974 q 195 972 156 972 q 261 971 235 971 m 333 910 l 333 172 q 333 114 333 138 q 335 75 333 90 q 472 56 401 56 q 674 113 593 56 q 797 268 756 169 q 838 492 838 367 q 738 801 838 686 q 444 917 639 917 q 378 914 410 917 q 333 910 347 911 m 353 -211 q 381 -143 353 -171 q 450 -115 410 -115 q 517 -143 489 -115 q 546 -210 546 -171 q 518 -276 546 -246 q 447 -306 490 -306 q 381 -278 408 -306 q 353 -211 353 -250 z "},"Ḏ":{"ha":1075,"x_min":43,"x_max":1006,"o":"m 261 971 q 360 972 304 971 q 451 974 415 974 q 865 857 725 974 q 1006 517 1006 740 q 934 237 1006 353 q 736 60 863 121 q 446 -1 610 -1 q 392 -1 426 -1 q 321 1 357 0 q 260 1 285 1 q 197 1 238 1 q 115 -1 157 0 q 46 -1 74 -1 q 46 43 43 19 q 139 56 111 50 q 174 83 167 63 q 181 154 181 104 l 181 800 q 174 883 181 858 q 138 916 167 908 q 46 929 110 924 q 46 974 43 950 q 115 973 75 974 q 195 972 156 972 q 261 971 235 971 m 333 910 l 333 172 q 333 114 333 138 q 335 75 333 90 q 472 56 401 56 q 674 113 593 56 q 797 268 756 169 q 838 492 838 367 q 738 801 838 686 q 444 917 639 917 q 378 914 410 917 q 333 910 347 911 m 254 -143 l 646 -143 q 646 -212 650 -178 l 254 -212 q 254 -143 250 -178 z "},"È":{"ha":889,"x_min":43,"x_max":847,"o":"m 46 -1 q 46 43 43 19 q 139 56 111 50 q 174 84 167 63 q 181 154 181 106 l 181 800 q 174 883 181 858 q 138 916 167 908 q 46 929 110 924 q 46 974 43 950 q 109 973 82 974 q 164 972 136 972 q 231 972 192 972 q 329 971 269 971 q 535 972 439 971 q 694 973 631 972 q 769 974 758 974 q 783 868 775 922 q 800 753 790 814 q 754 753 776 750 q 715 826 738 794 q 669 875 693 858 q 606 904 643 894 q 515 914 569 914 l 333 914 l 333 535 l 410 535 q 511 544 476 535 q 563 584 546 553 q 589 683 579 615 q 636 683 614 688 q 634 590 635 622 q 633 542 633 557 q 633 517 633 526 q 633 503 633 508 l 636 319 q 589 319 615 315 q 564 425 581 393 q 515 465 547 457 q 422 474 482 474 l 333 474 l 333 172 q 334 97 333 125 q 336 60 335 68 l 526 60 q 638 72 596 60 q 708 107 681 83 q 754 160 728 122 q 804 249 781 199 q 847 249 826 251 q 824 108 833 171 q 807 0 814 46 q 671 0 744 0 q 524 1 597 0 q 390 1 450 1 q 293 1 329 1 q 187 1 228 1 q 115 -1 146 0 q 46 -1 83 -1 m 260 1168 l 260 1172 q 310 1235 281 1206 q 363 1265 340 1265 q 451 1161 401 1219 q 549 1054 501 1103 q 519 1021 535 1029 q 433 1073 482 1044 q 337 1127 383 1101 q 260 1168 290 1153 z "},"É":{"ha":889,"x_min":43,"x_max":847,"o":"m 46 -1 q 46 43 43 19 q 139 56 111 50 q 174 84 167 63 q 181 154 181 106 l 181 800 q 174 883 181 858 q 138 916 167 908 q 46 929 110 924 q 46 974 43 950 q 109 973 82 974 q 164 972 136 972 q 231 972 192 972 q 329 971 269 971 q 535 972 439 971 q 694 973 631 972 q 769 974 758 974 q 783 868 775 922 q 800 753 790 814 q 754 753 776 750 q 715 826 738 794 q 669 875 693 858 q 606 904 643 894 q 515 914 569 914 l 333 914 l 333 535 l 410 535 q 511 544 476 535 q 563 584 546 553 q 589 683 579 615 q 636 683 614 688 q 634 590 635 622 q 633 542 633 557 q 633 517 633 526 q 633 503 633 508 l 636 319 q 589 319 615 315 q 564 425 581 393 q 515 465 547 457 q 422 474 482 474 l 333 474 l 333 172 q 334 97 333 125 q 336 60 335 68 l 526 60 q 638 72 596 60 q 708 107 681 83 q 754 160 728 122 q 804 249 781 199 q 847 249 826 251 q 824 108 833 171 q 807 0 814 46 q 671 0 744 0 q 524 1 597 0 q 390 1 450 1 q 293 1 329 1 q 187 1 228 1 q 115 -1 146 0 q 46 -1 83 -1 m 640 1172 l 640 1168 q 563 1127 610 1153 q 467 1073 517 1101 q 381 1021 418 1044 q 351 1054 365 1029 q 449 1161 399 1103 q 538 1265 499 1219 q 590 1235 560 1265 q 640 1172 619 1206 z "},"Ê":{"ha":889,"x_min":43,"x_max":847,"o":"m 46 -1 q 46 43 43 19 q 139 56 111 50 q 174 84 167 63 q 181 154 181 106 l 181 800 q 174 883 181 858 q 138 916 167 908 q 46 929 110 924 q 46 974 43 950 q 109 973 82 974 q 164 972 136 972 q 231 972 192 972 q 329 971 269 971 q 535 972 439 971 q 694 973 631 972 q 769 974 758 974 q 783 868 775 922 q 800 753 790 814 q 754 753 776 750 q 715 826 738 794 q 669 875 693 858 q 606 904 643 894 q 515 914 569 914 l 333 914 l 333 535 l 410 535 q 511 544 476 535 q 563 584 546 553 q 589 683 579 615 q 636 683 614 688 q 634 590 635 622 q 633 542 633 557 q 633 517 633 526 q 633 503 633 508 l 636 319 q 589 319 615 315 q 564 425 581 393 q 515 465 547 457 q 422 474 482 474 l 333 474 l 333 172 q 334 97 333 125 q 336 60 335 68 l 526 60 q 638 72 596 60 q 708 107 681 83 q 754 160 728 122 q 804 249 781 199 q 847 249 826 251 q 824 108 833 171 q 807 0 814 46 q 671 0 744 0 q 524 1 597 0 q 390 1 450 1 q 293 1 329 1 q 187 1 228 1 q 115 -1 146 0 q 46 -1 83 -1 m 449 1147 q 357 1083 406 1115 q 256 1021 308 1051 q 217 1039 232 1025 q 278 1108 246 1068 q 342 1187 311 1147 q 396 1256 374 1226 q 422 1260 407 1258 q 450 1261 436 1261 q 477 1260 463 1261 q 503 1256 492 1258 q 558 1187 526 1226 q 622 1108 589 1147 q 683 1039 656 1068 q 644 1021 667 1026 q 542 1083 592 1051 q 449 1147 493 1114 z "},"Ẽ":{"ha":889,"x_min":43,"x_max":847,"o":"m 46 -1 q 46 43 43 19 q 139 56 111 50 q 174 84 167 63 q 181 154 181 106 l 181 800 q 174 883 181 858 q 138 916 167 908 q 46 929 110 924 q 46 974 43 950 q 109 973 82 974 q 164 972 136 972 q 231 972 192 972 q 329 971 269 971 q 535 972 439 971 q 694 973 631 972 q 769 974 758 974 q 783 868 775 922 q 800 753 790 814 q 754 753 776 750 q 715 826 738 794 q 669 875 693 858 q 606 904 643 894 q 515 914 569 914 l 333 914 l 333 535 l 410 535 q 511 544 476 535 q 563 584 546 553 q 589 683 579 615 q 636 683 614 688 q 634 590 635 622 q 633 542 633 557 q 633 517 633 526 q 633 503 633 508 l 636 319 q 589 319 615 315 q 564 425 581 393 q 515 465 547 457 q 422 474 482 474 l 333 474 l 333 172 q 334 97 333 125 q 336 60 335 68 l 526 60 q 638 72 596 60 q 708 107 681 83 q 754 160 728 122 q 804 249 781 199 q 847 249 826 251 q 824 108 833 171 q 807 0 814 46 q 671 0 744 0 q 524 1 597 0 q 390 1 450 1 q 293 1 329 1 q 187 1 228 1 q 115 -1 146 0 q 46 -1 83 -1 m 658 1246 q 682 1239 671 1243 q 703 1231 693 1235 q 632 1103 675 1147 q 533 1058 589 1058 q 492 1065 514 1058 q 440 1089 469 1072 q 390 1117 414 1104 q 338 1131 365 1131 q 254 1050 288 1131 q 210 1065 235 1054 q 283 1191 240 1146 q 381 1236 325 1236 q 421 1229 399 1236 q 472 1206 443 1222 q 524 1177 499 1192 q 575 1163 550 1163 q 658 1246 625 1163 z "},"Ë":{"ha":889,"x_min":43,"x_max":847,"o":"m 46 -1 q 46 43 43 19 q 139 56 111 50 q 174 84 167 63 q 181 154 181 106 l 181 800 q 174 883 181 858 q 138 916 167 908 q 46 929 110 924 q 46 974 43 950 q 109 973 82 974 q 164 972 136 972 q 231 972 192 972 q 329 971 269 971 q 535 972 439 971 q 694 973 631 972 q 769 974 758 974 q 783 868 775 922 q 800 753 790 814 q 754 753 776 750 q 715 826 738 794 q 669 875 693 858 q 606 904 643 894 q 515 914 569 914 l 333 914 l 333 535 l 410 535 q 511 544 476 535 q 563 584 546 553 q 589 683 579 615 q 636 683 614 688 q 634 590 635 622 q 633 542 633 557 q 633 517 633 526 q 633 503 633 508 l 636 319 q 589 319 615 315 q 564 425 581 393 q 515 465 547 457 q 422 474 482 474 l 333 474 l 333 172 q 334 97 333 125 q 336 60 335 68 l 526 60 q 638 72 596 60 q 708 107 681 83 q 754 160 728 122 q 804 249 781 199 q 847 249 826 251 q 824 108 833 171 q 807 0 814 46 q 671 0 744 0 q 524 1 597 0 q 390 1 450 1 q 293 1 329 1 q 187 1 228 1 q 115 -1 146 0 q 46 -1 83 -1 m 224 1131 q 247 1191 224 1167 q 308 1215 269 1215 q 370 1191 347 1215 q 393 1131 393 1167 q 370 1069 393 1094 q 308 1044 347 1044 q 247 1069 269 1044 q 224 1131 224 1094 m 506 1131 q 528 1191 506 1167 q 590 1215 551 1215 q 652 1191 629 1215 q 675 1131 675 1167 q 652 1069 675 1094 q 590 1044 629 1044 q 528 1069 551 1044 q 506 1131 506 1094 z "},"Ē":{"ha":889,"x_min":43,"x_max":847,"o":"m 46 -1 q 46 43 43 19 q 139 56 111 50 q 174 84 167 63 q 181 154 181 106 l 181 800 q 174 883 181 858 q 138 916 167 908 q 46 929 110 924 q 46 974 43 950 q 109 973 82 974 q 164 972 136 972 q 231 972 192 972 q 329 971 269 971 q 535 972 439 971 q 694 973 631 972 q 769 974 758 974 q 783 868 775 922 q 800 753 790 814 q 754 753 776 750 q 715 826 738 794 q 669 875 693 858 q 606 904 643 894 q 515 914 569 914 l 333 914 l 333 535 l 410 535 q 511 544 476 535 q 563 584 546 553 q 589 683 579 615 q 636 683 614 688 q 634 590 635 622 q 633 542 633 557 q 633 517 633 526 q 633 503 633 508 l 636 319 q 589 319 615 315 q 564 425 581 393 q 515 465 547 457 q 422 474 482 474 l 333 474 l 333 172 q 334 97 333 125 q 336 60 335 68 l 526 60 q 638 72 596 60 q 708 107 681 83 q 754 160 728 122 q 804 249 781 199 q 847 249 826 251 q 824 108 833 171 q 807 0 814 46 q 671 0 744 0 q 524 1 597 0 q 390 1 450 1 q 293 1 329 1 q 187 1 228 1 q 115 -1 146 0 q 46 -1 83 -1 m 250 1143 l 650 1143 q 650 1076 654 1110 l 250 1076 q 250 1143 246 1110 z "},"Ḗ":{"ha":889,"x_min":43,"x_max":847,"o":"m 46 -1 q 46 43 43 19 q 139 56 111 50 q 174 84 167 63 q 181 154 181 106 l 181 800 q 174 883 181 858 q 138 916 167 908 q 46 929 110 924 q 46 974 43 950 q 109 973 82 974 q 164 972 136 972 q 231 972 192 972 q 329 971 269 971 q 535 972 439 971 q 694 973 631 972 q 769 974 758 974 q 783 868 775 922 q 800 753 790 814 q 754 753 776 750 q 715 826 738 794 q 669 875 693 858 q 606 904 643 894 q 515 914 569 914 l 333 914 l 333 535 l 410 535 q 511 544 476 535 q 563 584 546 553 q 589 683 579 615 q 636 683 614 688 q 634 590 635 622 q 633 542 633 557 q 633 517 633 526 q 633 503 633 508 l 636 319 q 589 319 615 315 q 564 425 581 393 q 515 465 547 457 q 422 474 482 474 l 333 474 l 333 172 q 334 97 333 125 q 336 60 335 68 l 526 60 q 638 72 596 60 q 708 107 681 83 q 754 160 728 122 q 804 249 781 199 q 847 249 826 251 q 824 108 833 171 q 807 0 814 46 q 671 0 744 0 q 524 1 597 0 q 390 1 450 1 q 293 1 329 1 q 187 1 228 1 q 115 -1 146 0 q 46 -1 83 -1 m 250 1129 l 650 1129 q 650 1063 654 1096 l 250 1063 q 250 1129 246 1096 m 640 1339 l 640 1335 q 563 1294 610 1319 q 467 1240 517 1268 q 381 1188 418 1211 q 351 1221 365 1196 q 449 1328 399 1269 q 538 1432 499 1386 q 590 1402 560 1432 q 640 1339 619 1372 z "},"Ĕ":{"ha":889,"x_min":43,"x_max":847,"o":"m 46 -1 q 46 43 43 19 q 139 56 111 50 q 174 84 167 63 q 181 154 181 106 l 181 800 q 174 883 181 858 q 138 916 167 908 q 46 929 110 924 q 46 974 43 950 q 109 973 82 974 q 164 972 136 972 q 231 972 192 972 q 329 971 269 971 q 535 972 439 971 q 694 973 631 972 q 769 974 758 974 q 783 868 775 922 q 800 753 790 814 q 754 753 776 750 q 715 826 738 794 q 669 875 693 858 q 606 904 643 894 q 515 914 569 914 l 333 914 l 333 535 l 410 535 q 511 544 476 535 q 563 584 546 553 q 589 683 579 615 q 636 683 614 688 q 634 590 635 622 q 633 542 633 557 q 633 517 633 526 q 633 503 633 508 l 636 319 q 589 319 615 315 q 564 425 581 393 q 515 465 547 457 q 422 474 482 474 l 333 474 l 333 172 q 334 97 333 125 q 336 60 335 68 l 526 60 q 638 72 596 60 q 708 107 681 83 q 754 160 728 122 q 804 249 781 199 q 847 249 826 251 q 824 108 833 171 q 807 0 814 46 q 671 0 744 0 q 524 1 597 0 q 390 1 450 1 q 293 1 329 1 q 187 1 228 1 q 115 -1 146 0 q 46 -1 83 -1 m 279 1269 q 340 1172 299 1201 q 450 1142 382 1142 q 562 1172 519 1142 q 624 1269 604 1201 q 646 1265 635 1268 q 668 1260 657 1263 q 596 1092 654 1151 q 451 1032 538 1032 q 307 1092 365 1032 q 233 1260 249 1151 q 279 1269 253 1265 z "},"Ġ":{"ha":1094,"x_min":69,"x_max":1061,"o":"m 589 -21 q 315 38 432 -21 q 134 207 199 96 q 69 474 69 318 q 134 744 69 629 q 316 924 199 860 q 592 988 433 988 q 704 980 644 988 q 807 960 764 972 q 856 947 833 953 q 900 942 878 942 q 933 946 917 942 q 939 819 936 885 q 947 683 942 754 q 899 681 918 679 q 797 870 871 808 q 601 932 724 932 q 435 897 504 932 q 324 800 367 861 q 263 659 282 739 q 243 489 243 579 q 283 256 243 357 q 406 97 324 154 q 614 39 489 39 q 700 47 653 39 q 790 71 747 54 l 790 246 q 787 313 790 289 q 769 349 783 338 q 723 365 754 360 q 638 374 692 369 q 638 418 633 396 q 708 417 667 418 q 792 416 750 417 q 863 415 835 415 q 962 417 906 415 q 1058 418 1018 418 q 1058 375 1061 397 q 976 361 1001 368 q 946 333 951 354 q 940 263 940 313 l 940 218 q 944 108 940 153 q 950 44 947 64 q 589 -21 757 -21 m 493 1133 q 522 1200 493 1172 q 589 1228 550 1228 q 655 1200 626 1228 q 683 1135 683 1172 q 656 1070 683 1100 q 586 1040 628 1040 q 520 1068 547 1040 q 493 1133 493 1096 z "},"Ḥ":{"ha":1167,"x_min":39,"x_max":1126,"o":"m 44 -1 q 44 43 40 19 q 137 56 108 49 q 173 84 165 63 q 181 154 181 106 l 181 800 q 174 883 181 858 q 138 916 167 908 q 43 929 108 924 q 43 974 39 950 q 112 973 71 974 q 193 972 153 972 q 258 971 233 971 q 323 972 283 971 q 403 973 363 972 q 469 974 444 974 q 469 929 474 953 q 376 917 406 924 q 340 888 347 910 q 333 818 333 867 l 333 544 l 833 544 l 833 800 q 826 883 833 858 q 792 916 819 908 q 699 929 764 924 q 699 974 696 950 q 765 973 725 974 q 846 972 806 972 q 911 971 886 971 q 978 972 939 971 q 1056 973 1017 972 q 1124 974 1096 974 q 1124 929 1126 953 q 1029 917 1058 924 q 993 888 1000 910 q 986 818 986 867 l 986 172 q 993 90 986 115 q 1028 56 1000 64 q 1124 43 1057 49 q 1124 -1 1126 19 q 1054 -1 1094 -1 q 974 1 1014 0 q 908 1 935 1 q 844 1 883 1 q 767 -1 806 0 q 700 -1 728 -1 q 700 43 696 19 q 792 56 764 49 q 826 84 819 63 q 833 154 833 106 l 833 483 l 333 483 l 333 172 q 340 89 333 114 q 376 56 347 64 q 469 43 404 49 q 469 -1 472 19 q 401 -1 442 -1 q 322 1 361 0 q 256 1 282 1 q 191 1 231 1 q 112 -1 151 0 q 44 -1 72 -1 m 486 -211 q 515 -143 486 -171 q 583 -115 543 -115 q 651 -143 622 -115 q 679 -210 679 -171 q 651 -276 679 -246 q 581 -306 624 -306 q 514 -278 542 -306 q 486 -211 486 -250 z "},"Ì":{"ha":514,"x_min":38,"x_max":475,"o":"m 333 818 l 333 172 q 336 104 333 129 q 351 68 339 79 q 392 52 364 57 q 471 43 419 47 q 471 -1 475 21 q 403 -1 443 -1 q 323 1 363 0 q 257 1 283 1 q 191 1 231 1 q 112 -1 151 0 q 42 -1 72 -1 q 42 43 38 19 q 138 56 108 50 q 174 83 167 63 q 181 154 181 104 l 181 800 q 174 883 181 858 q 138 916 167 908 q 42 929 108 924 q 42 974 39 950 q 112 973 71 974 q 193 972 153 972 q 260 971 233 971 q 325 972 286 971 q 404 973 364 972 q 471 974 444 974 q 471 929 475 953 q 376 917 406 924 q 340 889 347 910 q 333 818 333 868 m 65 1168 l 65 1172 q 116 1235 86 1206 q 168 1265 146 1265 q 257 1161 207 1219 q 354 1054 307 1103 q 325 1021 340 1029 q 238 1073 288 1044 q 142 1127 189 1101 q 65 1168 96 1153 z "},"Í":{"ha":514,"x_min":38,"x_max":475,"o":"m 333 818 l 333 172 q 336 104 333 129 q 351 68 339 79 q 392 52 364 57 q 471 43 419 47 q 471 -1 475 21 q 403 -1 443 -1 q 323 1 363 0 q 257 1 283 1 q 191 1 231 1 q 112 -1 151 0 q 42 -1 72 -1 q 42 43 38 19 q 138 56 108 50 q 174 83 167 63 q 181 154 181 104 l 181 800 q 174 883 181 858 q 138 916 167 908 q 42 929 108 924 q 42 974 39 950 q 112 973 71 974 q 193 972 153 972 q 260 971 233 971 q 325 972 286 971 q 404 973 364 972 q 471 974 444 974 q 471 929 475 953 q 376 917 406 924 q 340 889 347 910 q 333 818 333 868 m 446 1172 l 446 1168 q 369 1127 415 1153 q 273 1073 322 1101 q 186 1021 224 1044 q 157 1054 171 1029 q 254 1161 204 1103 q 343 1265 304 1219 q 395 1235 365 1265 q 446 1172 425 1206 z "},"Î":{"ha":514,"x_min":22,"x_max":489,"o":"m 333 818 l 333 172 q 336 104 333 129 q 351 68 339 79 q 392 52 364 57 q 471 43 419 47 q 471 -1 475 21 q 403 -1 443 -1 q 323 1 363 0 q 257 1 283 1 q 191 1 231 1 q 112 -1 151 0 q 42 -1 72 -1 q 42 43 38 19 q 138 56 108 50 q 174 83 167 63 q 181 154 181 104 l 181 800 q 174 883 181 858 q 138 916 167 908 q 42 929 108 924 q 42 974 39 950 q 112 973 71 974 q 193 972 153 972 q 260 971 233 971 q 325 972 286 971 q 404 973 364 972 q 471 974 444 974 q 471 929 475 953 q 376 917 406 924 q 340 889 347 910 q 333 818 333 868 m 254 1147 q 163 1083 211 1115 q 61 1021 114 1051 q 22 1039 38 1025 q 84 1108 51 1068 q 148 1187 117 1147 q 201 1256 179 1226 q 227 1260 213 1258 q 256 1261 242 1261 q 283 1260 268 1261 q 308 1256 297 1258 q 363 1187 332 1226 q 428 1108 394 1147 q 489 1039 461 1068 q 450 1021 472 1026 q 348 1083 397 1051 q 254 1147 299 1114 z "},"Ĩ":{"ha":514,"x_min":15,"x_max":508,"o":"m 333 818 l 333 172 q 336 104 333 129 q 351 68 339 79 q 392 52 364 57 q 471 43 419 47 q 471 -1 475 21 q 403 -1 443 -1 q 323 1 363 0 q 257 1 283 1 q 191 1 231 1 q 112 -1 151 0 q 42 -1 72 -1 q 42 43 38 19 q 138 56 108 50 q 174 83 167 63 q 181 154 181 104 l 181 800 q 174 883 181 858 q 138 916 167 908 q 42 929 108 924 q 42 974 39 950 q 112 973 71 974 q 193 972 153 972 q 260 971 233 971 q 325 972 286 971 q 404 973 364 972 q 471 974 444 974 q 471 929 475 953 q 376 917 406 924 q 340 889 347 910 q 333 818 333 868 m 464 1246 q 488 1239 476 1243 q 508 1231 499 1235 q 438 1103 481 1147 q 339 1058 394 1058 q 297 1065 319 1058 q 246 1089 275 1072 q 195 1117 219 1104 q 143 1131 171 1131 q 60 1050 93 1131 q 15 1065 40 1054 q 88 1191 46 1146 q 186 1236 131 1236 q 226 1229 204 1236 q 278 1206 249 1222 q 330 1177 304 1192 q 381 1163 356 1163 q 464 1246 431 1163 z "},"Ï":{"ha":514,"x_min":29,"x_max":481,"o":"m 333 818 l 333 172 q 336 104 333 129 q 351 68 339 79 q 392 52 364 57 q 471 43 419 47 q 471 -1 475 21 q 403 -1 443 -1 q 323 1 363 0 q 257 1 283 1 q 191 1 231 1 q 112 -1 151 0 q 42 -1 72 -1 q 42 43 38 19 q 138 56 108 50 q 174 83 167 63 q 181 154 181 104 l 181 800 q 174 883 181 858 q 138 916 167 908 q 42 929 108 924 q 42 974 39 950 q 112 973 71 974 q 193 972 153 972 q 260 971 233 971 q 325 972 286 971 q 404 973 364 972 q 471 974 444 974 q 471 929 475 953 q 376 917 406 924 q 340 889 347 910 q 333 818 333 868 m 29 1131 q 52 1191 29 1167 q 114 1215 75 1215 q 176 1191 153 1215 q 199 1131 199 1167 q 176 1069 199 1094 q 114 1044 153 1044 q 52 1069 75 1044 q 29 1131 29 1094 m 311 1131 q 334 1191 311 1167 q 396 1215 357 1215 q 458 1191 435 1215 q 481 1131 481 1167 q 458 1069 481 1094 q 396 1044 435 1044 q 334 1069 357 1044 q 311 1131 311 1094 z "},"Ī":{"ha":514,"x_min":38,"x_max":475,"o":"m 333 818 l 333 172 q 336 104 333 129 q 351 68 339 79 q 392 52 364 57 q 471 43 419 47 q 471 -1 475 21 q 403 -1 443 -1 q 323 1 363 0 q 257 1 283 1 q 191 1 231 1 q 112 -1 151 0 q 42 -1 72 -1 q 42 43 38 19 q 138 56 108 50 q 174 83 167 63 q 181 154 181 104 l 181 800 q 174 883 181 858 q 138 916 167 908 q 42 929 108 924 q 42 974 39 950 q 112 973 71 974 q 193 972 153 972 q 260 971 233 971 q 325 972 286 971 q 404 973 364 972 q 471 974 444 974 q 471 929 475 953 q 376 917 406 924 q 340 889 347 910 q 333 818 333 868 m 56 1143 l 456 1143 q 456 1076 460 1110 l 56 1076 q 56 1143 51 1110 z "},"Ĭ":{"ha":514,"x_min":38,"x_max":475,"o":"m 333 818 l 333 172 q 336 104 333 129 q 351 68 339 79 q 392 52 364 57 q 471 43 419 47 q 471 -1 475 21 q 403 -1 443 -1 q 323 1 363 0 q 257 1 283 1 q 191 1 231 1 q 112 -1 151 0 q 42 -1 72 -1 q 42 43 38 19 q 138 56 108 50 q 174 83 167 63 q 181 154 181 104 l 181 800 q 174 883 181 858 q 138 916 167 908 q 42 929 108 924 q 42 974 39 950 q 112 973 71 974 q 193 972 153 972 q 260 971 233 971 q 325 972 286 971 q 404 973 364 972 q 471 974 444 974 q 471 929 475 953 q 376 917 406 924 q 340 889 347 910 q 333 818 333 868 m 85 1269 q 146 1172 104 1201 q 256 1142 188 1142 q 367 1172 325 1142 q 429 1269 410 1201 q 451 1265 440 1268 q 474 1260 463 1263 q 401 1092 460 1151 q 257 1032 343 1032 q 113 1092 171 1032 q 39 1260 54 1151 q 85 1269 58 1265 z "},"Ḳ":{"ha":993,"x_min":39,"x_max":1004,"o":"m 42 -1 q 42 43 39 19 q 138 56 108 50 q 174 83 167 63 q 181 154 181 104 l 181 800 q 174 883 181 858 q 138 916 167 908 q 42 929 108 924 q 42 974 39 950 q 110 973 69 974 q 192 972 151 972 q 257 971 232 971 q 322 972 283 971 q 399 973 360 972 q 467 974 439 974 q 467 929 471 953 q 375 917 403 924 q 340 889 347 910 q 333 818 333 868 l 333 475 l 653 814 q 706 892 706 871 q 681 917 706 910 q 599 929 656 925 q 599 974 596 953 q 658 973 622 974 q 731 972 694 972 q 789 971 767 971 q 873 972 833 971 q 960 974 913 974 q 960 929 963 951 q 888 918 917 925 q 834 894 860 911 q 776 847 808 878 q 696 767 744 817 l 492 556 l 778 179 q 833 110 811 136 q 877 72 856 85 q 927 53 899 58 q 1000 43 956 47 q 1000 -1 1004 21 q 938 -1 974 -1 q 867 1 901 0 q 807 1 832 1 q 767 1 792 1 q 724 0 743 0 l 390 449 l 333 386 l 333 172 q 340 88 333 114 q 376 56 347 63 q 467 43 404 49 q 467 -1 471 21 q 399 -1 439 -1 q 320 1 360 0 q 254 1 281 1 q 189 1 228 1 q 110 -1 150 0 q 42 -1 71 -1 m 401 -211 q 430 -143 401 -171 q 499 -115 458 -115 q 566 -143 538 -115 q 594 -210 594 -171 q 567 -276 594 -246 q 496 -306 539 -306 q 429 -278 457 -306 q 401 -211 401 -250 z "},"Ḵ":{"ha":993,"x_min":39,"x_max":1004,"o":"m 42 -1 q 42 43 39 19 q 138 56 108 50 q 174 83 167 63 q 181 154 181 104 l 181 800 q 174 883 181 858 q 138 916 167 908 q 42 929 108 924 q 42 974 39 950 q 110 973 69 974 q 192 972 151 972 q 257 971 232 971 q 322 972 283 971 q 399 973 360 972 q 467 974 439 974 q 467 929 471 953 q 375 917 403 924 q 340 889 347 910 q 333 818 333 868 l 333 475 l 653 814 q 706 892 706 871 q 681 917 706 910 q 599 929 656 925 q 599 974 596 953 q 658 973 622 974 q 731 972 694 972 q 789 971 767 971 q 873 972 833 971 q 960 974 913 974 q 960 929 963 951 q 888 918 917 925 q 834 894 860 911 q 776 847 808 878 q 696 767 744 817 l 492 556 l 778 179 q 833 110 811 136 q 877 72 856 85 q 927 53 899 58 q 1000 43 956 47 q 1000 -1 1004 21 q 938 -1 974 -1 q 867 1 901 0 q 807 1 832 1 q 767 1 792 1 q 724 0 743 0 l 390 449 l 333 386 l 333 172 q 340 88 333 114 q 376 56 347 63 q 467 43 404 49 q 467 -1 471 21 q 399 -1 439 -1 q 320 1 360 0 q 254 1 281 1 q 189 1 228 1 q 110 -1 150 0 q 42 -1 71 -1 m 303 -143 l 694 -143 q 694 -212 699 -178 l 303 -212 q 303 -143 299 -178 z "},"Ĺ":{"ha":853,"x_min":43,"x_max":843,"o":"m 46 -1 q 46 43 43 19 q 139 56 111 50 q 174 84 167 63 q 181 154 181 106 l 181 800 q 174 883 181 858 q 138 916 167 908 q 46 929 110 924 q 46 974 43 950 q 115 973 75 974 q 193 972 154 972 q 257 971 232 971 q 323 972 283 971 q 403 973 363 972 q 471 974 444 974 q 471 929 475 953 q 376 917 406 924 q 340 889 347 910 q 333 818 333 868 l 333 172 q 334 97 333 125 q 336 58 335 68 l 533 58 q 704 110 649 58 q 800 265 750 154 q 843 265 822 269 q 816 113 826 181 q 799 0 806 46 q 530 1 664 0 q 261 1 396 1 q 194 1 235 1 q 114 -1 154 0 q 46 -1 74 -1 m 446 1172 l 446 1168 q 369 1127 415 1153 q 273 1073 322 1101 q 186 1021 224 1044 q 157 1054 171 1029 q 254 1161 204 1103 q 343 1265 304 1219 q 395 1235 365 1265 q 446 1172 425 1206 z "},"Ḻ":{"ha":857,"x_min":43,"x_max":843,"o":"m 46 -1 q 46 43 43 19 q 139 56 111 50 q 174 84 167 63 q 181 154 181 106 l 181 800 q 174 883 181 858 q 138 916 167 908 q 46 929 110 924 q 46 974 43 950 q 115 973 75 974 q 193 972 154 972 q 257 971 232 971 q 323 972 283 971 q 403 973 363 972 q 471 974 444 974 q 471 929 475 953 q 376 917 406 924 q 340 889 347 910 q 333 818 333 868 l 333 172 q 334 97 333 125 q 336 58 335 68 l 533 58 q 704 110 649 58 q 800 265 750 154 q 843 265 822 269 q 816 113 826 181 q 799 0 806 46 q 530 1 664 0 q 261 1 396 1 q 194 1 235 1 q 114 -1 154 0 q 46 -1 74 -1 m 226 -143 l 618 -143 q 618 -212 622 -178 l 226 -212 q 226 -143 222 -178 z "},"Ḷ":{"ha":857,"x_min":43,"x_max":843,"o":"m 46 -1 q 46 43 43 19 q 139 56 111 50 q 174 84 167 63 q 181 154 181 106 l 181 800 q 174 883 181 858 q 138 916 167 908 q 46 929 110 924 q 46 974 43 950 q 115 973 75 974 q 193 972 154 972 q 257 971 232 971 q 323 972 283 971 q 403 973 363 972 q 471 974 444 974 q 471 929 475 953 q 376 917 406 924 q 340 889 347 910 q 333 818 333 868 l 333 172 q 334 97 333 125 q 336 58 335 68 l 533 58 q 704 110 649 58 q 800 265 750 154 q 843 265 822 269 q 816 113 826 181 q 799 0 806 46 q 530 1 664 0 q 261 1 396 1 q 194 1 235 1 q 114 -1 154 0 q 46 -1 74 -1 m 325 -211 q 353 -143 325 -171 q 422 -115 382 -115 q 490 -143 461 -115 q 518 -210 518 -171 q 490 -276 518 -246 q 419 -306 463 -306 q 353 -278 381 -306 q 325 -211 325 -250 z "},"Ṁ":{"ha":1343,"x_min":26,"x_max":1310,"o":"m 669 211 l 967 972 q 1028 971 996 971 q 1082 971 1060 971 q 1123 972 1093 971 q 1188 972 1153 972 q 1253 973 1224 972 q 1294 974 1283 974 q 1294 931 1299 953 l 1292 931 q 1199 917 1228 924 q 1163 890 1169 911 q 1157 819 1157 868 l 1168 171 q 1171 103 1168 128 q 1186 67 1174 78 q 1226 51 1199 56 q 1306 42 1254 46 q 1306 -1 1310 21 q 1265 -1 1294 -1 q 1199 0 1235 0 q 1134 1 1164 0 q 1093 1 1104 1 q 1053 1 1082 1 q 989 0 1024 0 q 925 -1 954 0 q 885 -1 896 -1 q 885 42 883 19 l 888 42 q 976 55 949 49 q 1010 83 1004 61 q 1017 153 1017 104 l 1004 897 l 654 1 q 624 -4 644 -3 q 588 -6 603 -6 l 258 868 l 236 153 q 240 87 235 107 q 274 58 246 67 q 367 42 301 50 q 367 -1 372 19 q 319 -1 353 -1 q 251 1 285 0 q 201 1 217 1 q 169 1 193 1 q 115 0 144 0 q 62 -1 86 0 q 29 -1 38 -1 q 29 42 26 21 q 122 58 94 50 q 158 92 150 67 q 167 171 165 117 l 193 819 q 189 889 196 868 q 152 917 182 910 q 54 931 122 925 q 54 974 53 953 q 151 972 101 974 q 263 971 201 971 q 318 971 283 971 q 382 972 353 971 l 669 211 m 576 1133 q 605 1200 576 1172 q 672 1228 633 1228 q 738 1200 710 1228 q 767 1135 767 1172 q 739 1070 767 1100 q 669 1040 711 1040 q 603 1068 631 1040 q 576 1133 576 1096 z "},"Ṃ":{"ha":1343,"x_min":26,"x_max":1310,"o":"m 669 211 l 967 972 q 1028 971 996 971 q 1082 971 1060 971 q 1123 972 1093 971 q 1188 972 1153 972 q 1253 973 1224 972 q 1294 974 1283 974 q 1294 931 1299 953 l 1292 931 q 1199 917 1228 924 q 1163 890 1169 911 q 1157 819 1157 868 l 1168 171 q 1171 103 1168 128 q 1186 67 1174 78 q 1226 51 1199 56 q 1306 42 1254 46 q 1306 -1 1310 21 q 1265 -1 1294 -1 q 1199 0 1235 0 q 1134 1 1164 0 q 1093 1 1104 1 q 1053 1 1082 1 q 989 0 1024 0 q 925 -1 954 0 q 885 -1 896 -1 q 885 42 883 19 l 888 42 q 976 55 949 49 q 1010 83 1004 61 q 1017 153 1017 104 l 1004 897 l 654 1 q 624 -4 644 -3 q 588 -6 603 -6 l 258 868 l 236 153 q 240 87 235 107 q 274 58 246 67 q 367 42 301 50 q 367 -1 372 19 q 319 -1 353 -1 q 251 1 285 0 q 201 1 217 1 q 169 1 193 1 q 115 0 144 0 q 62 -1 86 0 q 29 -1 38 -1 q 29 42 26 21 q 122 58 94 50 q 158 92 150 67 q 167 171 165 117 l 193 819 q 189 889 196 868 q 152 917 182 910 q 54 931 122 925 q 54 974 53 953 q 151 972 101 974 q 263 971 201 971 q 318 971 283 971 q 382 972 353 971 l 669 211 m 519 -211 q 548 -143 519 -171 q 617 -115 576 -115 q 684 -143 656 -115 q 713 -210 713 -171 q 685 -276 713 -246 q 614 -306 657 -306 q 547 -278 575 -306 q 519 -211 519 -250 z "},"Ñ":{"ha":1101,"x_min":24,"x_max":1083,"o":"m 863 -10 l 244 801 l 244 207 q 247 126 244 154 q 264 82 250 97 q 307 58 278 68 q 390 43 336 49 q 390 -1 393 21 q 298 0 349 -1 q 213 1 247 1 q 127 0 178 1 q 36 -1 76 -1 q 36 43 32 19 q 114 56 86 50 q 154 76 142 63 q 170 115 167 89 q 174 189 174 142 l 174 758 q 170 846 174 814 q 152 894 167 878 q 108 917 138 910 q 25 931 78 925 q 25 974 24 951 q 117 972 68 974 q 214 971 165 971 q 252 971 221 971 q 307 972 283 971 l 871 231 l 871 764 q 869 846 871 817 q 851 889 867 875 q 711 928 822 919 q 711 972 707 951 q 774 972 738 972 q 846 970 811 971 q 903 969 881 969 q 989 971 938 969 q 1081 972 1040 972 q 1081 929 1083 951 q 985 910 1014 921 q 949 872 956 900 q 942 782 942 844 l 942 -3 q 904 -8 928 -6 q 863 -10 881 -10 m 776 1246 q 800 1239 789 1243 q 821 1231 811 1235 q 750 1103 793 1147 q 651 1058 707 1058 q 610 1065 632 1058 q 558 1089 588 1072 q 508 1117 532 1104 q 456 1131 483 1131 q 372 1050 406 1131 q 328 1065 353 1054 q 401 1191 358 1146 q 499 1236 443 1236 q 539 1229 517 1236 q 590 1206 561 1222 q 642 1177 617 1192 q 693 1163 668 1163 q 776 1246 743 1163 z "},"Ṅ":{"ha":1101,"x_min":24,"x_max":1083,"o":"m 863 -10 l 244 801 l 244 207 q 247 126 244 154 q 264 82 250 97 q 307 58 278 68 q 390 43 336 49 q 390 -1 393 21 q 298 0 349 -1 q 213 1 247 1 q 127 0 178 1 q 36 -1 76 -1 q 36 43 32 19 q 114 56 86 50 q 154 76 142 63 q 170 115 167 89 q 174 189 174 142 l 174 758 q 170 846 174 814 q 152 894 167 878 q 108 917 138 910 q 25 931 78 925 q 25 974 24 951 q 117 972 68 974 q 214 971 165 971 q 252 971 221 971 q 307 972 283 971 l 871 231 l 871 764 q 869 846 871 817 q 851 889 867 875 q 711 928 822 919 q 711 972 707 951 q 774 972 738 972 q 846 970 811 971 q 903 969 881 969 q 989 971 938 969 q 1081 972 1040 972 q 1081 929 1083 951 q 985 910 1014 921 q 949 872 956 900 q 942 782 942 844 l 942 -3 q 904 -8 928 -6 q 863 -10 881 -10 m 472 1133 q 501 1200 472 1172 q 568 1228 529 1228 q 634 1200 606 1228 q 663 1135 663 1172 q 635 1070 663 1100 q 565 1040 607 1040 q 499 1068 526 1040 q 472 1133 472 1096 z "},"Ṉ":{"ha":1101,"x_min":24,"x_max":1083,"o":"m 863 -10 l 244 801 l 244 207 q 247 126 244 154 q 264 82 250 97 q 307 58 278 68 q 390 43 336 49 q 390 -1 393 21 q 298 0 349 -1 q 213 1 247 1 q 127 0 178 1 q 36 -1 76 -1 q 36 43 32 19 q 114 56 86 50 q 154 76 142 63 q 170 115 167 89 q 174 189 174 142 l 174 758 q 170 846 174 814 q 152 894 167 878 q 108 917 138 910 q 25 931 78 925 q 25 974 24 951 q 117 972 68 974 q 214 971 165 971 q 252 971 221 971 q 307 972 283 971 l 871 231 l 871 764 q 869 846 871 817 q 851 889 867 875 q 711 928 822 919 q 711 972 707 951 q 774 972 738 972 q 846 970 811 971 q 903 969 881 969 q 989 971 938 969 q 1081 972 1040 972 q 1081 929 1083 951 q 985 910 1014 921 q 949 872 956 900 q 942 782 942 844 l 942 -3 q 904 -8 928 -6 q 863 -10 881 -10 m 358 -143 l 750 -143 q 750 -212 754 -178 l 358 -212 q 358 -143 354 -178 z "},"Ṇ":{"ha":1101,"x_min":24,"x_max":1083,"o":"m 863 -10 l 244 801 l 244 207 q 247 126 244 154 q 264 82 250 97 q 307 58 278 68 q 390 43 336 49 q 390 -1 393 21 q 298 0 349 -1 q 213 1 247 1 q 127 0 178 1 q 36 -1 76 -1 q 36 43 32 19 q 114 56 86 50 q 154 76 142 63 q 170 115 167 89 q 174 189 174 142 l 174 758 q 170 846 174 814 q 152 894 167 878 q 108 917 138 910 q 25 931 78 925 q 25 974 24 951 q 117 972 68 974 q 214 971 165 971 q 252 971 221 971 q 307 972 283 971 l 871 231 l 871 764 q 869 846 871 817 q 851 889 867 875 q 711 928 822 919 q 711 972 707 951 q 774 972 738 972 q 846 970 811 971 q 903 969 881 969 q 989 971 938 969 q 1081 972 1040 972 q 1081 929 1083 951 q 985 910 1014 921 q 949 872 956 900 q 942 782 942 844 l 942 -3 q 904 -8 928 -6 q 863 -10 881 -10 m 457 -211 q 485 -143 457 -171 q 554 -115 514 -115 q 622 -143 593 -115 q 650 -210 650 -171 q 622 -276 650 -246 q 551 -306 594 -306 q 485 -278 513 -306 q 457 -211 457 -250 z "},"Ņ":{"ha":1101,"x_min":24,"x_max":1083,"o":"m 863 -10 l 244 801 l 244 207 q 247 126 244 154 q 264 82 250 97 q 307 58 278 68 q 390 43 336 49 q 390 -1 393 21 q 298 0 349 -1 q 213 1 247 1 q 127 0 178 1 q 36 -1 76 -1 q 36 43 32 19 q 114 56 86 50 q 154 76 142 63 q 170 115 167 89 q 174 189 174 142 l 174 758 q 170 846 174 814 q 152 894 167 878 q 108 917 138 910 q 25 931 78 925 q 25 974 24 951 q 117 972 68 974 q 214 971 165 971 q 252 971 221 971 q 307 972 283 971 l 871 231 l 871 764 q 869 846 871 817 q 851 889 867 875 q 711 928 822 919 q 711 972 707 951 q 774 972 738 972 q 846 970 811 971 q 903 969 881 969 q 989 971 938 969 q 1081 972 1040 972 q 1081 929 1083 951 q 985 910 1014 921 q 949 872 956 900 q 942 782 942 844 l 942 -3 q 904 -8 928 -6 q 863 -10 881 -10 m 472 -328 q 565 -286 536 -312 q 594 -224 594 -260 q 589 -190 594 -207 q 532 -211 563 -211 q 484 -192 504 -211 q 464 -140 464 -174 q 489 -83 464 -104 q 551 -61 514 -61 q 633 -97 603 -61 q 663 -190 663 -133 q 615 -307 663 -261 q 483 -371 568 -353 q 476 -349 479 -360 q 472 -328 474 -339 z "},"Ò":{"ha":1114,"x_min":69,"x_max":1044,"o":"m 1044 492 q 983 226 1044 342 q 811 45 922 111 q 549 -21 700 -21 q 292 43 399 -21 q 127 219 185 107 q 69 475 69 332 q 131 740 69 624 q 303 922 192 856 q 565 988 415 988 q 821 924 714 988 q 986 748 928 860 q 1044 492 1044 636 m 872 478 q 856 643 872 563 q 802 789 839 724 q 706 892 765 854 q 560 931 646 931 q 412 892 472 931 q 315 789 351 853 q 260 646 278 725 q 243 485 243 567 q 260 324 243 404 q 315 179 278 244 q 415 74 353 114 q 564 35 476 35 q 709 72 650 35 q 804 173 768 110 q 856 315 840 236 q 872 478 872 394 m 367 1168 l 367 1172 q 417 1235 388 1206 q 469 1265 447 1265 q 558 1161 508 1219 q 656 1054 608 1103 q 626 1021 642 1029 q 540 1073 589 1044 q 444 1127 490 1101 q 367 1168 397 1153 z "},"Ó":{"ha":1114,"x_min":69,"x_max":1044,"o":"m 1044 492 q 983 226 1044 342 q 811 45 922 111 q 549 -21 700 -21 q 292 43 399 -21 q 127 219 185 107 q 69 475 69 332 q 131 740 69 624 q 303 922 192 856 q 565 988 415 988 q 821 924 714 988 q 986 748 928 860 q 1044 492 1044 636 m 872 478 q 856 643 872 563 q 802 789 839 724 q 706 892 765 854 q 560 931 646 931 q 412 892 472 931 q 315 789 351 853 q 260 646 278 725 q 243 485 243 567 q 260 324 243 404 q 315 179 278 244 q 415 74 353 114 q 564 35 476 35 q 709 72 650 35 q 804 173 768 110 q 856 315 840 236 q 872 478 872 394 m 747 1172 l 747 1168 q 670 1127 717 1153 q 574 1073 624 1101 q 488 1021 525 1044 q 458 1054 472 1029 q 556 1161 506 1103 q 644 1265 606 1219 q 697 1235 667 1265 q 747 1172 726 1206 z "},"Ô":{"ha":1114,"x_min":69,"x_max":1044,"o":"m 1044 492 q 983 226 1044 342 q 811 45 922 111 q 549 -21 700 -21 q 292 43 399 -21 q 127 219 185 107 q 69 475 69 332 q 131 740 69 624 q 303 922 192 856 q 565 988 415 988 q 821 924 714 988 q 986 748 928 860 q 1044 492 1044 636 m 872 478 q 856 643 872 563 q 802 789 839 724 q 706 892 765 854 q 560 931 646 931 q 412 892 472 931 q 315 789 351 853 q 260 646 278 725 q 243 485 243 567 q 260 324 243 404 q 315 179 278 244 q 415 74 353 114 q 564 35 476 35 q 709 72 650 35 q 804 173 768 110 q 856 315 840 236 q 872 478 872 394 m 556 1147 q 464 1083 513 1115 q 363 1021 415 1051 q 324 1039 339 1025 q 385 1108 353 1068 q 449 1187 418 1147 q 503 1256 481 1226 q 528 1260 514 1258 q 557 1261 543 1261 q 584 1260 569 1261 q 610 1256 599 1258 q 665 1187 633 1226 q 729 1108 696 1147 q 790 1039 763 1068 q 751 1021 774 1026 q 649 1083 699 1051 q 556 1147 600 1114 z "},"Õ":{"ha":1114,"x_min":69,"x_max":1044,"o":"m 1044 492 q 983 226 1044 342 q 811 45 922 111 q 549 -21 700 -21 q 292 43 399 -21 q 127 219 185 107 q 69 475 69 332 q 131 740 69 624 q 303 922 192 856 q 565 988 415 988 q 821 924 714 988 q 986 748 928 860 q 1044 492 1044 636 m 872 478 q 856 643 872 563 q 802 789 839 724 q 706 892 765 854 q 560 931 646 931 q 412 892 472 931 q 315 789 351 853 q 260 646 278 725 q 243 485 243 567 q 260 324 243 404 q 315 179 278 244 q 415 74 353 114 q 564 35 476 35 q 709 72 650 35 q 804 173 768 110 q 856 315 840 236 q 872 478 872 394 m 765 1246 q 789 1239 778 1243 q 810 1231 800 1235 q 739 1103 782 1147 q 640 1058 696 1058 q 599 1065 621 1058 q 547 1089 576 1072 q 497 1117 521 1104 q 444 1131 472 1131 q 361 1050 394 1131 q 317 1065 342 1054 q 390 1191 347 1146 q 488 1236 432 1236 q 528 1229 506 1236 q 579 1206 550 1222 q 631 1177 606 1192 q 682 1163 657 1163 q 765 1246 732 1163 z "},"Ṍ":{"ha":1114,"x_min":69,"x_max":1044,"o":"m 1044 492 q 983 226 1044 342 q 811 45 922 111 q 549 -21 700 -21 q 292 43 399 -21 q 127 219 185 107 q 69 475 69 332 q 131 740 69 624 q 303 922 192 856 q 565 988 415 988 q 821 924 714 988 q 986 748 928 860 q 1044 492 1044 636 m 872 478 q 856 643 872 563 q 802 789 839 724 q 706 892 765 854 q 560 931 646 931 q 412 892 472 931 q 315 789 351 853 q 260 646 278 725 q 243 485 243 567 q 260 324 243 404 q 315 179 278 244 q 415 74 353 114 q 564 35 476 35 q 709 72 650 35 q 804 173 768 110 q 856 315 840 236 q 872 478 872 394 m 765 1232 q 789 1225 778 1229 q 810 1217 800 1221 q 739 1089 782 1133 q 640 1044 696 1044 q 599 1051 621 1044 q 547 1075 576 1058 q 497 1103 521 1090 q 444 1117 472 1117 q 361 1036 394 1117 q 317 1051 342 1040 q 390 1177 347 1132 q 488 1222 432 1222 q 528 1215 506 1222 q 579 1192 550 1208 q 631 1163 606 1178 q 682 1149 657 1149 q 765 1232 732 1149 m 747 1422 l 747 1418 q 670 1377 717 1403 q 574 1323 624 1351 q 488 1271 525 1294 q 458 1304 472 1279 q 556 1411 506 1353 q 644 1515 606 1469 q 697 1485 667 1515 q 747 1422 726 1456 z "},"Ö":{"ha":1114,"x_min":69,"x_max":1044,"o":"m 1044 492 q 983 226 1044 342 q 811 45 922 111 q 549 -21 700 -21 q 292 43 399 -21 q 127 219 185 107 q 69 475 69 332 q 131 740 69 624 q 303 922 192 856 q 565 988 415 988 q 821 924 714 988 q 986 748 928 860 q 1044 492 1044 636 m 872 478 q 856 643 872 563 q 802 789 839 724 q 706 892 765 854 q 560 931 646 931 q 412 892 472 931 q 315 789 351 853 q 260 646 278 725 q 243 485 243 567 q 260 324 243 404 q 315 179 278 244 q 415 74 353 114 q 564 35 476 35 q 709 72 650 35 q 804 173 768 110 q 856 315 840 236 q 872 478 872 394 m 331 1131 q 353 1191 331 1167 q 415 1215 376 1215 q 477 1191 454 1215 q 500 1131 500 1167 q 477 1069 500 1094 q 415 1044 454 1044 q 353 1069 376 1044 q 331 1131 331 1094 m 613 1131 q 635 1191 613 1167 q 697 1215 658 1215 q 759 1191 736 1215 q 782 1131 782 1167 q 759 1069 782 1094 q 697 1044 736 1044 q 635 1069 658 1044 q 613 1131 613 1094 z "},"Ō":{"ha":1114,"x_min":69,"x_max":1044,"o":"m 1044 492 q 983 226 1044 342 q 811 45 922 111 q 549 -21 700 -21 q 292 43 399 -21 q 127 219 185 107 q 69 475 69 332 q 131 740 69 624 q 303 922 192 856 q 565 988 415 988 q 821 924 714 988 q 986 748 928 860 q 1044 492 1044 636 m 872 478 q 856 643 872 563 q 802 789 839 724 q 706 892 765 854 q 560 931 646 931 q 412 892 472 931 q 315 789 351 853 q 260 646 278 725 q 243 485 243 567 q 260 324 243 404 q 315 179 278 244 q 415 74 353 114 q 564 35 476 35 q 709 72 650 35 q 804 173 768 110 q 856 315 840 236 q 872 478 872 394 m 357 1143 l 757 1143 q 757 1076 761 1110 l 357 1076 q 357 1143 353 1110 z "},"Ŏ":{"ha":1114,"x_min":69,"x_max":1044,"o":"m 1044 492 q 983 226 1044 342 q 811 45 922 111 q 549 -21 700 -21 q 292 43 399 -21 q 127 219 185 107 q 69 475 69 332 q 131 740 69 624 q 303 922 192 856 q 565 988 415 988 q 821 924 714 988 q 986 748 928 860 q 1044 492 1044 636 m 872 478 q 856 643 872 563 q 802 789 839 724 q 706 892 765 854 q 560 931 646 931 q 412 892 472 931 q 315 789 351 853 q 260 646 278 725 q 243 485 243 567 q 260 324 243 404 q 315 179 278 244 q 415 74 353 114 q 564 35 476 35 q 709 72 650 35 q 804 173 768 110 q 856 315 840 236 q 872 478 872 394 m 386 1269 q 447 1172 406 1201 q 557 1142 489 1142 q 669 1172 626 1142 q 731 1269 711 1201 q 753 1265 742 1268 q 775 1260 764 1263 q 703 1092 761 1151 q 558 1032 644 1032 q 414 1092 472 1032 q 340 1260 356 1151 q 386 1269 360 1265 z "},"Ø":{"ha":1114,"x_min":68,"x_max":1044,"o":"m 1044 942 l 933 828 q 1016 677 988 763 q 1044 492 1044 592 q 983 226 1044 342 q 811 45 922 111 q 549 -21 700 -21 q 367 9 449 -21 q 225 92 285 39 l 115 -21 q 90 3 101 -8 q 68 24 78 14 l 179 139 q 69 475 69 272 q 131 740 69 624 q 303 922 192 856 q 565 988 415 988 q 747 958 665 988 q 889 874 828 928 l 997 986 q 1044 942 1024 967 m 564 35 q 709 72 650 35 q 804 173 768 110 q 856 315 840 236 q 872 478 872 394 q 863 604 872 542 q 833 722 853 667 l 313 183 q 413 76 351 118 q 564 35 474 35 m 283 246 l 804 786 q 707 890 767 850 q 560 931 647 931 q 412 892 472 931 q 315 789 351 853 q 260 646 278 725 q 243 485 243 567 q 253 363 243 424 q 283 246 263 301 z "},"Œ":{"ha":1457,"x_min":69,"x_max":1415,"o":"m 551 -11 q 291 51 399 -11 q 126 223 183 113 q 69 479 69 333 q 128 738 69 626 q 303 913 188 850 q 592 976 419 976 q 653 975 621 976 q 744 972 685 974 q 910 971 803 971 q 983 971 932 971 q 1097 971 1033 971 q 1225 972 1161 971 q 1338 974 1289 972 q 1351 868 1344 922 q 1368 753 1358 814 q 1322 753 1346 751 q 1239 875 1286 839 q 1083 914 1188 914 l 901 914 l 901 535 l 976 535 q 1078 544 1043 535 q 1131 584 1114 553 q 1156 683 1147 615 q 1204 683 1179 688 q 1202 591 1203 625 q 1201 538 1201 557 q 1201 503 1201 518 q 1201 467 1201 488 q 1202 413 1201 447 q 1204 319 1203 379 q 1157 319 1181 315 q 1131 426 1147 393 q 1083 467 1115 458 q 989 475 1050 475 l 901 475 l 901 172 q 902 106 901 133 q 904 60 903 79 l 1094 60 q 1207 71 1165 60 q 1274 103 1249 82 q 1323 160 1296 122 q 1372 249 1350 199 q 1415 249 1393 250 q 1391 108 1401 171 q 1375 0 1381 46 q 1241 0 1315 0 q 1094 1 1167 0 q 963 1 1021 1 q 879 1 906 1 q 751 -1 801 1 q 666 -5 700 -3 q 606 -9 632 -7 q 551 -11 579 -11 m 750 96 l 750 872 q 672 908 718 894 q 571 921 626 921 q 418 885 481 921 q 317 788 356 850 q 260 649 278 726 q 243 488 243 571 q 260 326 243 404 q 316 184 278 247 q 417 83 354 121 q 569 46 479 46 q 667 58 619 46 q 750 96 715 71 z "},"Ŕ":{"ha":963,"x_min":38,"x_max":999,"o":"m 369 439 l 333 443 l 333 172 q 336 104 333 129 q 351 68 339 79 q 390 52 363 57 q 465 43 417 47 q 465 -1 469 21 q 399 -1 438 -1 q 321 1 360 0 q 256 1 282 1 q 190 1 231 1 q 110 -1 150 0 q 42 -1 69 -1 q 42 43 38 19 q 138 55 108 49 q 174 83 167 61 q 181 154 181 104 l 181 801 q 173 883 181 858 q 136 917 165 908 q 42 929 107 925 q 42 974 38 950 q 110 973 68 974 q 194 972 153 972 q 254 971 235 971 q 319 972 279 971 q 398 974 358 972 q 460 975 438 975 q 623 951 547 975 q 745 874 699 928 q 792 731 792 821 q 738 572 792 642 q 569 468 685 503 l 569 464 q 617 408 590 447 l 763 197 q 823 117 799 146 q 869 73 847 88 q 921 53 892 58 q 994 43 950 47 q 994 -1 999 21 q 929 -1 968 -1 q 854 1 890 0 q 796 1 818 1 q 757 1 774 1 q 718 0 740 0 l 461 379 q 419 426 438 415 q 369 439 401 436 m 333 500 q 365 496 351 497 q 392 494 379 494 q 563 550 500 494 q 626 714 626 606 q 572 865 626 813 q 410 918 517 918 q 376 917 396 918 q 333 913 356 915 l 333 500 m 626 1172 l 626 1168 q 549 1127 596 1153 q 453 1073 503 1101 q 367 1021 404 1044 q 338 1054 351 1029 q 435 1161 385 1103 q 524 1265 485 1219 q 576 1235 546 1265 q 626 1172 606 1206 z "},"Ṙ":{"ha":963,"x_min":38,"x_max":999,"o":"m 369 439 l 333 443 l 333 172 q 336 104 333 129 q 351 68 339 79 q 390 52 363 57 q 465 43 417 47 q 465 -1 469 21 q 399 -1 438 -1 q 321 1 360 0 q 256 1 282 1 q 190 1 231 1 q 110 -1 150 0 q 42 -1 69 -1 q 42 43 38 19 q 138 55 108 49 q 174 83 167 61 q 181 154 181 104 l 181 801 q 173 883 181 858 q 136 917 165 908 q 42 929 107 925 q 42 974 38 950 q 110 973 68 974 q 194 972 153 972 q 254 971 235 971 q 319 972 279 971 q 398 974 358 972 q 460 975 438 975 q 623 951 547 975 q 745 874 699 928 q 792 731 792 821 q 738 572 792 642 q 569 468 685 503 l 569 464 q 617 408 590 447 l 763 197 q 823 117 799 146 q 869 73 847 88 q 921 53 892 58 q 994 43 950 47 q 994 -1 999 21 q 929 -1 968 -1 q 854 1 890 0 q 796 1 818 1 q 757 1 774 1 q 718 0 740 0 l 461 379 q 419 426 438 415 q 369 439 401 436 m 333 500 q 365 496 351 497 q 392 494 379 494 q 563 550 500 494 q 626 714 626 606 q 572 865 626 813 q 410 918 517 918 q 376 917 396 918 q 333 913 356 915 l 333 500 m 340 1133 q 369 1200 340 1172 q 436 1228 397 1228 q 502 1200 474 1228 q 531 1135 531 1172 q 503 1070 531 1100 q 433 1040 475 1040 q 367 1068 394 1040 q 340 1133 340 1096 z "},"Ṟ":{"ha":963,"x_min":38,"x_max":999,"o":"m 369 439 l 333 443 l 333 172 q 336 104 333 129 q 351 68 339 79 q 390 52 363 57 q 465 43 417 47 q 465 -1 469 21 q 399 -1 438 -1 q 321 1 360 0 q 256 1 282 1 q 190 1 231 1 q 110 -1 150 0 q 42 -1 69 -1 q 42 43 38 19 q 138 55 108 49 q 174 83 167 61 q 181 154 181 104 l 181 801 q 173 883 181 858 q 136 917 165 908 q 42 929 107 925 q 42 974 38 950 q 110 973 68 974 q 194 972 153 972 q 254 971 235 971 q 319 972 279 971 q 398 974 358 972 q 460 975 438 975 q 623 951 547 975 q 745 874 699 928 q 792 731 792 821 q 738 572 792 642 q 569 468 685 503 l 569 464 q 617 408 590 447 l 763 197 q 823 117 799 146 q 869 73 847 88 q 921 53 892 58 q 994 43 950 47 q 994 -1 999 21 q 929 -1 968 -1 q 854 1 890 0 q 796 1 818 1 q 757 1 774 1 q 718 0 740 0 l 461 379 q 419 426 438 415 q 369 439 401 436 m 333 500 q 365 496 351 497 q 392 494 379 494 q 563 550 500 494 q 626 714 626 606 q 572 865 626 813 q 410 918 517 918 q 376 917 396 918 q 333 913 356 915 l 333 500 m 282 -143 l 674 -143 q 674 -212 678 -178 l 282 -212 q 282 -143 278 -178 z "},"Ṛ":{"ha":963,"x_min":38,"x_max":999,"o":"m 369 439 l 333 443 l 333 172 q 336 104 333 129 q 351 68 339 79 q 390 52 363 57 q 465 43 417 47 q 465 -1 469 21 q 399 -1 438 -1 q 321 1 360 0 q 256 1 282 1 q 190 1 231 1 q 110 -1 150 0 q 42 -1 69 -1 q 42 43 38 19 q 138 55 108 49 q 174 83 167 61 q 181 154 181 104 l 181 801 q 173 883 181 858 q 136 917 165 908 q 42 929 107 925 q 42 974 38 950 q 110 973 68 974 q 194 972 153 972 q 254 971 235 971 q 319 972 279 971 q 398 974 358 972 q 460 975 438 975 q 623 951 547 975 q 745 874 699 928 q 792 731 792 821 q 738 572 792 642 q 569 468 685 503 l 569 464 q 617 408 590 447 l 763 197 q 823 117 799 146 q 869 73 847 88 q 921 53 892 58 q 994 43 950 47 q 994 -1 999 21 q 929 -1 968 -1 q 854 1 890 0 q 796 1 818 1 q 757 1 774 1 q 718 0 740 0 l 461 379 q 419 426 438 415 q 369 439 401 436 m 333 500 q 365 496 351 497 q 392 494 379 494 q 563 550 500 494 q 626 714 626 606 q 572 865 626 813 q 410 918 517 918 q 376 917 396 918 q 333 913 356 915 l 333 500 m 394 -211 q 423 -143 394 -171 q 492 -115 451 -115 q 559 -143 531 -115 q 588 -210 588 -171 q 560 -276 588 -246 q 489 -306 532 -306 q 422 -278 450 -306 q 394 -211 394 -250 z "},"Ṝ":{"ha":963,"x_min":38,"x_max":999,"o":"m 369 439 l 333 443 l 333 172 q 336 104 333 129 q 351 68 339 79 q 390 52 363 57 q 465 43 417 47 q 465 -1 469 21 q 399 -1 438 -1 q 321 1 360 0 q 256 1 282 1 q 190 1 231 1 q 110 -1 150 0 q 42 -1 69 -1 q 42 43 38 19 q 138 55 108 49 q 174 83 167 61 q 181 154 181 104 l 181 801 q 173 883 181 858 q 136 917 165 908 q 42 929 107 925 q 42 974 38 950 q 110 973 68 974 q 194 972 153 972 q 254 971 235 971 q 319 972 279 971 q 398 974 358 972 q 460 975 438 975 q 623 951 547 975 q 745 874 699 928 q 792 731 792 821 q 738 572 792 642 q 569 468 685 503 l 569 464 q 617 408 590 447 l 763 197 q 823 117 799 146 q 869 73 847 88 q 921 53 892 58 q 994 43 950 47 q 994 -1 999 21 q 929 -1 968 -1 q 854 1 890 0 q 796 1 818 1 q 757 1 774 1 q 718 0 740 0 l 461 379 q 419 426 438 415 q 369 439 401 436 m 333 500 q 365 496 351 497 q 392 494 379 494 q 563 550 500 494 q 626 714 626 606 q 572 865 626 813 q 410 918 517 918 q 376 917 396 918 q 333 913 356 915 l 333 500 m 394 -211 q 423 -143 394 -171 q 492 -115 451 -115 q 559 -143 531 -115 q 588 -210 588 -171 q 560 -276 588 -246 q 489 -306 532 -306 q 422 -278 450 -306 q 394 -211 394 -250 m 236 1143 l 636 1143 q 636 1076 640 1110 l 236 1076 q 236 1143 232 1110 z "},"Ś":{"ha":760,"x_min":65,"x_max":697,"o":"m 356 -19 q 310 -17 354 -19 q 210 -6 267 -15 q 124 6 163 3 q 78 10 86 10 q 65 289 76 125 q 88 290 76 290 q 110 290 100 290 q 198 101 136 168 q 361 35 260 35 q 508 84 451 35 q 565 214 565 133 q 534 314 565 275 q 452 380 503 353 q 344 431 401 407 q 217 492 278 460 q 118 576 157 525 q 79 710 79 628 q 123 860 79 797 q 240 955 167 922 q 403 988 314 988 q 460 985 431 988 q 522 976 490 982 q 584 969 563 971 q 613 968 606 968 q 628 969 617 968 q 646 971 639 969 q 651 844 649 910 q 660 708 654 779 q 614 706 632 704 q 535 879 582 826 q 400 933 488 933 q 269 892 324 933 q 215 771 215 851 q 235 694 215 728 q 303 631 256 661 q 433 565 350 600 q 526 522 479 546 q 611 466 572 499 q 674 387 650 433 q 697 276 697 340 q 650 116 697 182 q 526 15 603 50 q 356 -19 449 -19 m 585 1172 l 585 1168 q 508 1127 554 1153 q 412 1073 461 1101 q 325 1021 363 1044 q 296 1054 310 1029 q 393 1161 343 1103 q 482 1265 443 1219 q 534 1235 504 1265 q 585 1172 564 1206 z "},"Š":{"ha":760,"x_min":65,"x_max":697,"o":"m 356 -19 q 310 -17 354 -19 q 210 -6 267 -15 q 124 6 163 3 q 78 10 86 10 q 65 289 76 125 q 88 290 76 290 q 110 290 100 290 q 198 101 136 168 q 361 35 260 35 q 508 84 451 35 q 565 214 565 133 q 534 314 565 275 q 452 380 503 353 q 344 431 401 407 q 217 492 278 460 q 118 576 157 525 q 79 710 79 628 q 123 860 79 797 q 240 955 167 922 q 403 988 314 988 q 460 985 431 988 q 522 976 490 982 q 584 969 563 971 q 613 968 606 968 q 628 969 617 968 q 646 971 639 969 q 651 844 649 910 q 660 708 654 779 q 614 706 632 704 q 535 879 582 826 q 400 933 488 933 q 269 892 324 933 q 215 771 215 851 q 235 694 215 728 q 303 631 256 661 q 433 565 350 600 q 526 522 479 546 q 611 466 572 499 q 674 387 650 433 q 697 276 697 340 q 650 116 697 182 q 526 15 603 50 q 356 -19 449 -19 m 396 1135 q 488 1199 439 1167 q 589 1261 536 1231 q 628 1243 613 1257 q 567 1174 600 1214 q 502 1095 533 1135 q 449 1026 471 1056 q 424 1022 439 1024 q 394 1021 410 1021 q 367 1022 382 1021 q 342 1026 353 1024 q 288 1095 319 1056 q 223 1174 256 1135 q 161 1243 190 1214 q 200 1261 178 1256 q 302 1199 253 1231 q 396 1135 351 1168 z "},"Ṣ":{"ha":760,"x_min":65,"x_max":697,"o":"m 356 -19 q 310 -17 354 -19 q 210 -6 267 -15 q 124 6 163 3 q 78 10 86 10 q 65 289 76 125 q 88 290 76 290 q 110 290 100 290 q 198 101 136 168 q 361 35 260 35 q 508 84 451 35 q 565 214 565 133 q 534 314 565 275 q 452 380 503 353 q 344 431 401 407 q 217 492 278 460 q 118 576 157 525 q 79 710 79 628 q 123 860 79 797 q 240 955 167 922 q 403 988 314 988 q 460 985 431 988 q 522 976 490 982 q 584 969 563 971 q 613 968 606 968 q 628 969 617 968 q 646 971 639 969 q 651 844 649 910 q 660 708 654 779 q 614 706 632 704 q 535 879 582 826 q 400 933 488 933 q 269 892 324 933 q 215 771 215 851 q 235 694 215 728 q 303 631 256 661 q 433 565 350 600 q 526 522 479 546 q 611 466 572 499 q 674 387 650 433 q 697 276 697 340 q 650 116 697 182 q 526 15 603 50 q 356 -19 449 -19 m 263 -211 q 291 -143 263 -171 q 360 -115 319 -115 q 427 -143 399 -115 q 456 -210 456 -171 q 428 -276 456 -246 q 357 -306 400 -306 q 290 -278 318 -306 q 263 -211 263 -250 z "},"ẞ":{"ha":1032,"x_min":15,"x_max":974,"o":"m 524 497 q 518 525 518 510 l 750 911 q 633 922 692 922 q 514 908 572 922 q 410 858 456 893 q 337 761 364 822 q 310 607 310 700 l 310 53 q 310 25 310 39 q 307 0 310 11 q 271 1 294 0 q 224 1 247 1 q 165 1 203 1 q 87 -1 126 0 q 19 -1 47 -1 q 19 43 15 19 q 114 56 85 49 q 150 89 143 64 q 157 171 157 114 l 157 617 q 216 838 157 757 q 376 953 275 918 q 606 988 478 988 q 783 971 708 988 q 913 931 857 954 q 921 901 919 918 l 715 572 q 838 507 778 544 q 935 413 897 469 q 974 269 974 356 q 933 121 974 186 q 820 18 893 56 q 647 -19 747 -19 q 601 -17 625 -19 q 525 -6 578 -14 q 453 6 481 1 q 406 10 425 10 q 402 130 404 65 q 396 271 400 194 q 417 272 407 272 q 438 272 428 272 q 515 97 461 158 q 656 35 569 35 q 787 85 736 35 q 838 214 838 135 q 794 340 838 289 q 678 428 750 390 q 524 497 607 465 z "},"Ṭ":{"ha":944,"x_min":14,"x_max":925,"o":"m 251 -1 q 251 43 249 19 q 350 56 321 50 q 386 83 379 63 q 393 154 393 104 l 393 913 l 293 913 q 177 892 219 913 q 109 832 135 872 q 58 729 83 792 q 14 729 36 726 q 30 857 22 796 q 43 975 38 918 q 243 969 133 969 q 471 968 353 968 q 701 969 590 968 q 900 975 811 969 q 911 858 906 919 q 925 729 917 796 q 879 729 901 726 q 826 833 853 793 q 759 893 800 874 q 644 913 718 913 l 546 913 l 546 172 q 549 104 546 129 q 565 68 551 79 q 607 52 578 57 q 688 43 636 47 q 688 -1 692 21 q 617 -1 658 -1 q 536 1 576 0 q 468 1 496 1 q 402 1 442 1 q 322 -1 363 0 q 251 -1 281 -1 m 374 -211 q 402 -143 374 -171 q 471 -115 431 -115 q 538 -143 510 -115 q 567 -210 567 -171 q 539 -276 567 -246 q 468 -306 511 -306 q 401 -278 429 -306 q 374 -211 374 -250 z "},"Ṯ":{"ha":944,"x_min":14,"x_max":925,"o":"m 251 -1 q 251 43 249 19 q 350 56 321 50 q 386 83 379 63 q 393 154 393 104 l 393 913 l 293 913 q 177 892 219 913 q 109 832 135 872 q 58 729 83 792 q 14 729 36 726 q 30 857 22 796 q 43 975 38 918 q 243 969 133 969 q 471 968 353 968 q 701 969 590 968 q 900 975 811 969 q 911 858 906 919 q 925 729 917 796 q 879 729 901 726 q 826 833 853 793 q 759 893 800 874 q 644 913 718 913 l 546 913 l 546 172 q 549 104 546 129 q 565 68 551 79 q 607 52 578 57 q 688 43 636 47 q 688 -1 692 21 q 617 -1 658 -1 q 536 1 576 0 q 468 1 496 1 q 402 1 442 1 q 322 -1 363 0 q 251 -1 281 -1 m 275 -143 l 667 -143 q 667 -212 671 -178 l 275 -212 q 275 -143 271 -178 z "},"Ù":{"ha":1065,"x_min":15,"x_max":1058,"o":"m 19 974 q 87 973 47 974 q 166 972 126 972 q 232 971 206 971 q 298 972 258 971 q 378 973 338 972 q 446 974 418 974 q 446 931 450 953 q 353 918 382 925 q 317 890 324 911 q 310 819 310 869 l 310 365 q 377 134 310 210 q 574 58 444 58 q 779 143 710 58 q 849 406 849 228 l 849 786 q 845 862 849 835 q 827 901 842 889 q 783 919 813 914 q 701 929 754 924 q 701 972 697 950 q 792 971 739 972 q 876 969 844 969 q 963 971 911 969 q 1054 972 1015 972 q 1054 929 1058 951 q 961 915 990 922 q 924 885 932 908 q 917 804 917 861 l 917 376 q 821 88 917 192 q 531 -15 725 -15 q 335 21 419 -15 q 204 133 251 57 q 157 324 157 208 l 157 801 q 150 885 157 860 q 114 917 143 910 q 19 931 85 925 q 19 974 15 951 m 378 1168 l 378 1172 q 428 1235 399 1206 q 481 1265 458 1265 q 569 1161 519 1219 q 667 1054 619 1103 q 638 1021 653 1029 q 551 1073 600 1044 q 455 1127 501 1101 q 378 1168 408 1153 z "},"Ú":{"ha":1065,"x_min":15,"x_max":1058,"o":"m 19 974 q 87 973 47 974 q 166 972 126 972 q 232 971 206 971 q 298 972 258 971 q 378 973 338 972 q 446 974 418 974 q 446 931 450 953 q 353 918 382 925 q 317 890 324 911 q 310 819 310 869 l 310 365 q 377 134 310 210 q 574 58 444 58 q 779 143 710 58 q 849 406 849 228 l 849 786 q 845 862 849 835 q 827 901 842 889 q 783 919 813 914 q 701 929 754 924 q 701 972 697 950 q 792 971 739 972 q 876 969 844 969 q 963 971 911 969 q 1054 972 1015 972 q 1054 929 1058 951 q 961 915 990 922 q 924 885 932 908 q 917 804 917 861 l 917 376 q 821 88 917 192 q 531 -15 725 -15 q 335 21 419 -15 q 204 133 251 57 q 157 324 157 208 l 157 801 q 150 885 157 860 q 114 917 143 910 q 19 931 85 925 q 19 974 15 951 m 758 1172 l 758 1168 q 681 1127 728 1153 q 585 1073 635 1101 q 499 1021 536 1044 q 469 1054 483 1029 q 567 1161 517 1103 q 656 1265 617 1219 q 708 1235 678 1265 q 758 1172 738 1206 z "},"Û":{"ha":1065,"x_min":15,"x_max":1058,"o":"m 19 974 q 87 973 47 974 q 166 972 126 972 q 232 971 206 971 q 298 972 258 971 q 378 973 338 972 q 446 974 418 974 q 446 931 450 953 q 353 918 382 925 q 317 890 324 911 q 310 819 310 869 l 310 365 q 377 134 310 210 q 574 58 444 58 q 779 143 710 58 q 849 406 849 228 l 849 786 q 845 862 849 835 q 827 901 842 889 q 783 919 813 914 q 701 929 754 924 q 701 972 697 950 q 792 971 739 972 q 876 969 844 969 q 963 971 911 969 q 1054 972 1015 972 q 1054 929 1058 951 q 961 915 990 922 q 924 885 932 908 q 917 804 917 861 l 917 376 q 821 88 917 192 q 531 -15 725 -15 q 335 21 419 -15 q 204 133 251 57 q 157 324 157 208 l 157 801 q 150 885 157 860 q 114 917 143 910 q 19 931 85 925 q 19 974 15 951 m 567 1147 q 475 1083 524 1115 q 374 1021 426 1051 q 335 1039 350 1025 q 397 1108 364 1068 q 460 1187 429 1147 q 514 1256 492 1226 q 540 1260 525 1258 q 568 1261 554 1261 q 595 1260 581 1261 q 621 1256 610 1258 q 676 1187 644 1226 q 740 1108 707 1147 q 801 1039 774 1068 q 763 1021 785 1026 q 660 1083 710 1051 q 567 1147 611 1114 z "},"Ũ":{"ha":1065,"x_min":15,"x_max":1058,"o":"m 19 974 q 87 973 47 974 q 166 972 126 972 q 232 971 206 971 q 298 972 258 971 q 378 973 338 972 q 446 974 418 974 q 446 931 450 953 q 353 918 382 925 q 317 890 324 911 q 310 819 310 869 l 310 365 q 377 134 310 210 q 574 58 444 58 q 779 143 710 58 q 849 406 849 228 l 849 786 q 845 862 849 835 q 827 901 842 889 q 783 919 813 914 q 701 929 754 924 q 701 972 697 950 q 792 971 739 972 q 876 969 844 969 q 963 971 911 969 q 1054 972 1015 972 q 1054 929 1058 951 q 961 915 990 922 q 924 885 932 908 q 917 804 917 861 l 917 376 q 821 88 917 192 q 531 -15 725 -15 q 335 21 419 -15 q 204 133 251 57 q 157 324 157 208 l 157 801 q 150 885 157 860 q 114 917 143 910 q 19 931 85 925 q 19 974 15 951 m 776 1246 q 800 1239 789 1243 q 821 1231 811 1235 q 750 1103 793 1147 q 651 1058 707 1058 q 610 1065 632 1058 q 558 1089 588 1072 q 508 1117 532 1104 q 456 1131 483 1131 q 372 1050 406 1131 q 328 1065 353 1054 q 401 1191 358 1146 q 499 1236 443 1236 q 539 1229 517 1236 q 590 1206 561 1222 q 642 1177 617 1192 q 693 1163 668 1163 q 776 1246 743 1163 z "},"Ṹ":{"ha":1065,"x_min":15,"x_max":1058,"o":"m 19 974 q 87 973 47 974 q 166 972 126 972 q 232 971 206 971 q 298 972 258 971 q 378 973 338 972 q 446 974 418 974 q 446 931 450 953 q 353 918 382 925 q 317 890 324 911 q 310 819 310 869 l 310 365 q 377 134 310 210 q 574 58 444 58 q 779 143 710 58 q 849 406 849 228 l 849 786 q 845 862 849 835 q 827 901 842 889 q 783 919 813 914 q 701 929 754 924 q 701 972 697 950 q 792 971 739 972 q 876 969 844 969 q 963 971 911 969 q 1054 972 1015 972 q 1054 929 1058 951 q 961 915 990 922 q 924 885 932 908 q 917 804 917 861 l 917 376 q 821 88 917 192 q 531 -15 725 -15 q 335 21 419 -15 q 204 133 251 57 q 157 324 157 208 l 157 801 q 150 885 157 860 q 114 917 143 910 q 19 931 85 925 q 19 974 15 951 m 776 1232 q 800 1225 789 1229 q 821 1217 811 1221 q 750 1089 793 1133 q 651 1044 707 1044 q 610 1051 632 1044 q 558 1075 588 1058 q 508 1103 532 1090 q 456 1117 483 1117 q 372 1036 406 1117 q 328 1051 353 1040 q 401 1177 358 1132 q 499 1222 443 1222 q 539 1215 517 1222 q 590 1192 561 1208 q 642 1163 617 1178 q 693 1149 668 1149 q 776 1232 743 1149 m 758 1422 l 758 1418 q 681 1377 728 1403 q 585 1323 635 1351 q 499 1271 536 1294 q 469 1304 483 1279 q 567 1411 517 1353 q 656 1515 617 1469 q 708 1485 678 1515 q 758 1422 738 1456 z "},"Ü":{"ha":1065,"x_min":15,"x_max":1058,"o":"m 19 974 q 87 973 47 974 q 166 972 126 972 q 232 971 206 971 q 298 972 258 971 q 378 973 338 972 q 446 974 418 974 q 446 931 450 953 q 353 918 382 925 q 317 890 324 911 q 310 819 310 869 l 310 365 q 377 134 310 210 q 574 58 444 58 q 779 143 710 58 q 849 406 849 228 l 849 786 q 845 862 849 835 q 827 901 842 889 q 783 919 813 914 q 701 929 754 924 q 701 972 697 950 q 792 971 739 972 q 876 969 844 969 q 963 971 911 969 q 1054 972 1015 972 q 1054 929 1058 951 q 961 915 990 922 q 924 885 932 908 q 917 804 917 861 l 917 376 q 821 88 917 192 q 531 -15 725 -15 q 335 21 419 -15 q 204 133 251 57 q 157 324 157 208 l 157 801 q 150 885 157 860 q 114 917 143 910 q 19 931 85 925 q 19 974 15 951 m 342 1131 q 365 1191 342 1167 q 426 1215 388 1215 q 488 1191 465 1215 q 511 1131 511 1167 q 488 1069 511 1094 q 426 1044 465 1044 q 365 1069 388 1044 q 342 1131 342 1094 m 624 1131 q 647 1191 624 1167 q 708 1215 669 1215 q 770 1191 747 1215 q 793 1131 793 1167 q 770 1069 793 1094 q 708 1044 747 1044 q 647 1069 669 1044 q 624 1131 624 1094 z "},"Ū":{"ha":1065,"x_min":15,"x_max":1058,"o":"m 19 974 q 87 973 47 974 q 166 972 126 972 q 232 971 206 971 q 298 972 258 971 q 378 973 338 972 q 446 974 418 974 q 446 931 450 953 q 353 918 382 925 q 317 890 324 911 q 310 819 310 869 l 310 365 q 377 134 310 210 q 574 58 444 58 q 779 143 710 58 q 849 406 849 228 l 849 786 q 845 862 849 835 q 827 901 842 889 q 783 919 813 914 q 701 929 754 924 q 701 972 697 950 q 792 971 739 972 q 876 969 844 969 q 963 971 911 969 q 1054 972 1015 972 q 1054 929 1058 951 q 961 915 990 922 q 924 885 932 908 q 917 804 917 861 l 917 376 q 821 88 917 192 q 531 -15 725 -15 q 335 21 419 -15 q 204 133 251 57 q 157 324 157 208 l 157 801 q 150 885 157 860 q 114 917 143 910 q 19 931 85 925 q 19 974 15 951 m 368 1143 l 768 1143 q 768 1076 772 1110 l 368 1076 q 368 1143 364 1110 z "},"Ŭ":{"ha":1065,"x_min":15,"x_max":1058,"o":"m 19 974 q 87 973 47 974 q 166 972 126 972 q 232 971 206 971 q 298 972 258 971 q 378 973 338 972 q 446 974 418 974 q 446 931 450 953 q 353 918 382 925 q 317 890 324 911 q 310 819 310 869 l 310 365 q 377 134 310 210 q 574 58 444 58 q 779 143 710 58 q 849 406 849 228 l 849 786 q 845 862 849 835 q 827 901 842 889 q 783 919 813 914 q 701 929 754 924 q 701 972 697 950 q 792 971 739 972 q 876 969 844 969 q 963 971 911 969 q 1054 972 1015 972 q 1054 929 1058 951 q 961 915 990 922 q 924 885 932 908 q 917 804 917 861 l 917 376 q 821 88 917 192 q 531 -15 725 -15 q 335 21 419 -15 q 204 133 251 57 q 157 324 157 208 l 157 801 q 150 885 157 860 q 114 917 143 910 q 19 931 85 925 q 19 974 15 951 m 397 1269 q 458 1172 417 1201 q 568 1142 500 1142 q 680 1172 638 1142 q 742 1269 722 1201 q 764 1265 753 1268 q 786 1260 775 1263 q 714 1092 772 1151 q 569 1032 656 1032 q 425 1092 483 1032 q 351 1260 367 1151 q 397 1269 371 1265 z "},"Ý":{"ha":861,"x_min":-36,"x_max":907,"o":"m 711 778 l 507 414 l 507 172 q 510 104 507 129 q 525 68 513 79 q 565 52 538 57 q 644 43 593 47 q 644 -1 649 21 q 575 -1 615 -1 q 495 1 535 0 q 429 1 456 1 q 364 1 403 1 q 285 -1 325 0 q 215 -1 244 -1 q 215 43 213 19 q 311 56 282 50 q 347 84 340 63 q 354 154 354 106 l 354 400 l 143 786 q 101 860 118 833 q 69 901 85 888 q 30 919 53 914 q -33 929 7 925 q -33 974 -36 951 q 69 972 17 974 q 174 971 122 971 q 272 972 218 971 q 376 974 326 974 q 376 929 379 953 q 292 916 317 924 q 267 889 267 908 q 274 863 267 879 q 294 824 282 847 l 476 483 l 660 822 q 685 885 685 868 q 656 913 685 906 q 558 929 628 921 q 558 974 556 953 q 615 973 581 974 q 684 972 650 972 q 740 971 718 971 q 823 972 785 971 q 904 974 861 974 q 904 929 907 951 q 839 919 864 925 q 796 899 814 914 q 758 856 778 885 q 711 778 739 828 m 647 1172 l 647 1168 q 570 1127 617 1153 q 474 1073 524 1101 q 388 1021 425 1044 q 358 1054 372 1029 q 456 1161 406 1103 q 544 1265 506 1219 q 597 1235 567 1265 q 647 1172 626 1206 z "},"Ÿ":{"ha":861,"x_min":-36,"x_max":907,"o":"m 711 778 l 507 414 l 507 172 q 510 104 507 129 q 525 68 513 79 q 565 52 538 57 q 644 43 593 47 q 644 -1 649 21 q 575 -1 615 -1 q 495 1 535 0 q 429 1 456 1 q 364 1 403 1 q 285 -1 325 0 q 215 -1 244 -1 q 215 43 213 19 q 311 56 282 50 q 347 84 340 63 q 354 154 354 106 l 354 400 l 143 786 q 101 860 118 833 q 69 901 85 888 q 30 919 53 914 q -33 929 7 925 q -33 974 -36 951 q 69 972 17 974 q 174 971 122 971 q 272 972 218 971 q 376 974 326 974 q 376 929 379 953 q 292 916 317 924 q 267 889 267 908 q 274 863 267 879 q 294 824 282 847 l 476 483 l 660 822 q 685 885 685 868 q 656 913 685 906 q 558 929 628 921 q 558 974 556 953 q 615 973 581 974 q 684 972 650 972 q 740 971 718 971 q 823 972 785 971 q 904 974 861 974 q 904 929 907 951 q 839 919 864 925 q 796 899 814 914 q 758 856 778 885 q 711 778 739 828 m 231 1131 q 253 1191 231 1167 q 315 1215 276 1215 q 377 1191 354 1215 q 400 1131 400 1167 q 377 1069 400 1094 q 315 1044 354 1044 q 253 1069 276 1044 q 231 1131 231 1094 m 513 1131 q 535 1191 513 1167 q 597 1215 558 1215 q 659 1191 636 1215 q 682 1131 682 1167 q 659 1069 682 1094 q 597 1044 636 1044 q 535 1069 558 1044 q 513 1131 513 1094 z "},"Ẏ":{"ha":861,"x_min":-36,"x_max":907,"o":"m 711 778 l 507 414 l 507 172 q 510 104 507 129 q 525 68 513 79 q 565 52 538 57 q 644 43 593 47 q 644 -1 649 21 q 575 -1 615 -1 q 495 1 535 0 q 429 1 456 1 q 364 1 403 1 q 285 -1 325 0 q 215 -1 244 -1 q 215 43 213 19 q 311 56 282 50 q 347 84 340 63 q 354 154 354 106 l 354 400 l 143 786 q 101 860 118 833 q 69 901 85 888 q 30 919 53 914 q -33 929 7 925 q -33 974 -36 951 q 69 972 17 974 q 174 971 122 971 q 272 972 218 971 q 376 974 326 974 q 376 929 379 953 q 292 916 317 924 q 267 889 267 908 q 274 863 267 879 q 294 824 282 847 l 476 483 l 660 822 q 685 885 685 868 q 656 913 685 906 q 558 929 628 921 q 558 974 556 953 q 615 973 581 974 q 684 972 650 972 q 740 971 718 971 q 823 972 785 971 q 904 974 861 974 q 904 929 907 951 q 839 919 864 925 q 796 899 814 914 q 758 856 778 885 q 711 778 739 828 m 361 1133 q 390 1200 361 1172 q 457 1228 418 1228 q 523 1200 494 1228 q 551 1135 551 1172 q 524 1070 551 1100 q 454 1040 496 1040 q 388 1068 415 1040 q 361 1133 361 1096 z "},"Ź":{"ha":911,"x_min":35,"x_max":869,"o":"m 857 943 l 236 60 l 546 60 q 736 119 678 60 q 826 275 781 165 q 869 275 849 278 q 843 120 854 189 q 826 0 832 51 q 698 1 806 0 q 383 1 590 1 q 210 1 274 1 q 108 -1 146 0 q 40 -1 71 -1 q 35 26 35 11 l 656 913 l 353 913 q 197 864 247 913 q 121 721 153 821 q 74 721 99 719 q 93 853 85 790 q 107 975 101 915 q 295 969 197 969 q 503 968 393 968 q 683 969 615 968 q 789 971 750 969 q 851 972 828 972 q 856 959 854 967 q 857 943 857 951 m 668 1172 l 668 1168 q 591 1127 638 1153 q 495 1073 544 1101 q 408 1021 446 1044 q 379 1054 393 1029 q 476 1161 426 1103 q 565 1265 526 1219 q 617 1235 588 1265 q 668 1172 647 1206 z "},"Ž":{"ha":911,"x_min":35,"x_max":869,"o":"m 857 943 l 236 60 l 546 60 q 736 119 678 60 q 826 275 781 165 q 869 275 849 278 q 843 120 854 189 q 826 0 832 51 q 698 1 806 0 q 383 1 590 1 q 210 1 274 1 q 108 -1 146 0 q 40 -1 71 -1 q 35 26 35 11 l 656 913 l 353 913 q 197 864 247 913 q 121 721 153 821 q 74 721 99 719 q 93 853 85 790 q 107 975 101 915 q 295 969 197 969 q 503 968 393 968 q 683 969 615 968 q 789 971 750 969 q 851 972 828 972 q 856 959 854 967 q 857 943 857 951 m 479 1135 q 571 1199 522 1167 q 672 1261 619 1231 q 711 1243 696 1257 q 650 1174 683 1214 q 585 1095 617 1135 q 532 1026 554 1056 q 508 1022 522 1024 q 478 1021 493 1021 q 451 1022 465 1021 q 425 1026 436 1024 q 371 1095 403 1056 q 306 1174 339 1135 q 244 1243 274 1214 q 283 1261 261 1256 q 385 1199 336 1231 q 479 1135 435 1168 z "},"Ẓ":{"ha":911,"x_min":35,"x_max":869,"o":"m 857 943 l 236 60 l 546 60 q 736 119 678 60 q 826 275 781 165 q 869 275 849 278 q 843 120 854 189 q 826 0 832 51 q 698 1 806 0 q 383 1 590 1 q 210 1 274 1 q 108 -1 146 0 q 40 -1 71 -1 q 35 26 35 11 l 656 913 l 353 913 q 197 864 247 913 q 121 721 153 821 q 74 721 99 719 q 93 853 85 790 q 107 975 101 915 q 295 969 197 969 q 503 968 393 968 q 683 969 615 968 q 789 971 750 969 q 851 972 828 972 q 856 959 854 967 q 857 943 857 951 m 332 -211 q 360 -143 332 -171 q 429 -115 389 -115 q 497 -143 468 -115 q 525 -210 525 -171 q 497 -276 525 -246 q 426 -306 469 -306 q 360 -278 388 -306 q 332 -211 332 -250 z "},"Ẕ":{"ha":911,"x_min":35,"x_max":869,"o":"m 857 943 l 236 60 l 546 60 q 736 119 678 60 q 826 275 781 165 q 869 275 849 278 q 843 120 854 189 q 826 0 832 51 q 698 1 806 0 q 383 1 590 1 q 210 1 274 1 q 108 -1 146 0 q 40 -1 71 -1 q 35 26 35 11 l 656 913 l 353 913 q 197 864 247 913 q 121 721 153 821 q 74 721 99 719 q 93 853 85 790 q 107 975 101 915 q 295 969 197 969 q 503 968 393 968 q 683 969 615 968 q 789 971 750 969 q 851 972 828 972 q 856 959 854 967 q 857 943 857 951 m 233 -143 l 625 -143 q 625 -212 629 -178 l 233 -212 q 233 -143 229 -178 z "},"Ð":{"ha":1075,"x_min":43,"x_max":1006,"o":"m 46 -1 q 46 43 43 19 q 139 56 111 50 q 174 83 167 63 q 181 154 181 104 l 181 482 l 46 482 q 46 544 44 515 l 181 544 l 181 800 q 174 883 181 858 q 138 916 167 908 q 46 929 110 924 q 46 974 43 950 q 115 973 75 974 q 195 972 156 972 q 261 971 235 971 q 360 972 304 971 q 451 974 415 974 q 865 857 725 974 q 1006 517 1006 740 q 934 237 1006 353 q 736 60 863 121 q 446 -1 610 -1 q 392 -1 426 -1 q 321 1 357 0 q 260 1 285 1 q 197 1 238 1 q 115 -1 157 0 q 46 -1 74 -1 m 571 482 l 333 482 l 333 172 q 333 114 333 138 q 335 75 333 90 q 472 56 401 56 q 674 113 593 56 q 797 268 756 169 q 838 492 838 367 q 738 801 838 686 q 442 917 639 917 q 378 914 408 917 q 333 910 347 911 l 333 544 l 571 544 q 571 482 575 515 z "},"Þ":{"ha":836,"x_min":39,"x_max":788,"o":"m 42 -1 q 42 43 39 19 q 138 56 108 50 q 174 84 167 63 q 181 154 181 106 l 181 800 q 174 883 181 858 q 138 916 167 908 q 42 929 108 924 q 42 974 39 950 q 112 973 71 974 q 193 972 153 972 q 260 971 233 971 q 325 972 286 971 q 404 973 364 972 q 471 974 444 974 q 471 929 475 953 q 376 917 406 924 q 340 889 347 910 q 333 818 333 868 l 333 771 q 390 776 364 775 q 436 778 415 778 q 701 713 614 778 q 788 521 788 647 q 744 363 788 428 q 628 266 701 299 q 461 233 554 233 q 403 236 433 233 q 333 247 372 239 l 333 172 q 336 104 333 129 q 351 68 339 79 q 392 52 364 57 q 471 43 419 47 q 471 -1 475 21 q 403 -1 443 -1 q 323 1 363 0 q 257 1 283 1 q 191 1 231 1 q 112 -1 151 0 q 42 -1 72 -1 m 333 303 q 381 294 360 296 q 417 292 403 292 q 565 352 511 292 q 618 513 618 413 q 565 665 618 611 q 407 719 513 719 q 333 714 375 719 l 333 303 z "},"a":{"ha":685,"x_min":46,"x_max":682,"o":"m 532 -14 q 417 78 440 -14 q 215 -17 318 -17 q 95 26 144 -17 q 46 143 46 68 q 419 374 46 326 q 420 442 419 407 q 421 515 421 476 q 385 591 421 564 q 300 618 350 618 q 239 607 264 618 q 225 542 239 575 q 187 485 211 508 q 128 463 163 463 q 80 480 97 463 q 63 522 63 497 q 94 585 63 556 q 174 637 125 615 q 275 671 222 658 q 369 683 328 683 q 465 665 421 683 q 535 609 508 646 q 563 518 563 572 q 561 431 563 485 q 559 317 560 378 q 557 203 558 257 q 556 115 556 149 q 594 71 556 71 q 671 88 619 71 q 678 72 676 81 q 682 57 681 64 q 609 3 647 19 q 532 -14 571 -14 m 417 115 l 419 324 q 244 269 292 307 q 196 174 196 232 q 222 99 196 125 q 286 74 247 74 q 342 85 311 74 q 417 115 374 96 z "},"b":{"ha":806,"x_min":0,"x_max":750,"o":"m 394 -17 q 290 -3 342 -17 q 188 38 239 11 q 168 14 178 25 q 150 -10 158 3 q 131 -7 140 -8 q 115 -4 122 -6 q 118 62 118 21 q 118 158 118 103 l 118 840 q 110 905 118 883 q 77 935 101 926 q 4 949 53 944 q 4 986 0 967 q 118 1008 60 993 q 238 1049 176 1022 l 261 1040 q 259 971 260 1010 q 258 886 258 932 l 258 590 q 369 663 315 642 q 474 683 422 683 q 623 637 561 683 q 717 516 685 590 q 750 357 750 442 q 705 173 750 258 q 580 35 660 88 q 394 -17 500 -17 m 257 529 l 257 110 q 411 38 321 38 q 525 76 482 38 q 587 178 568 115 q 606 310 606 240 q 587 444 606 378 q 526 553 568 510 q 410 597 483 597 q 331 581 369 597 q 257 529 292 564 z "},"c":{"ha":654,"x_min":54,"x_max":624,"o":"m 603 135 q 624 103 617 118 q 360 -17 508 -17 q 196 29 264 -17 q 91 151 128 75 q 54 321 54 228 q 96 504 54 422 q 213 635 138 586 q 388 683 289 683 q 492 669 439 683 q 581 624 544 654 q 617 546 617 593 q 594 489 617 508 q 542 469 572 469 q 471 508 500 469 q 442 610 442 546 q 375 626 417 626 q 291 601 325 626 q 235 535 257 576 q 204 445 214 493 q 194 351 194 397 q 221 213 194 274 q 299 116 247 151 q 426 81 350 81 q 513 93 471 81 q 603 135 556 106 z "},"d":{"ha":818,"x_min":54,"x_max":792,"o":"m 578 -18 l 556 -8 l 550 88 q 451 9 501 35 q 339 -17 400 -17 q 188 30 253 -17 q 89 151 124 76 q 54 314 54 226 q 98 499 54 415 q 222 633 142 582 q 408 683 301 683 q 475 678 440 683 q 547 663 510 674 l 547 840 q 539 905 547 883 q 506 935 531 926 q 433 949 482 944 q 433 986 429 967 q 547 1008 489 993 q 667 1049 606 1022 l 690 1040 q 688 971 689 1010 q 688 886 688 932 l 688 197 q 692 118 688 144 q 717 81 696 92 q 788 63 738 71 q 788 25 792 44 q 679 7 732 17 q 578 -18 626 -3 m 549 544 q 392 626 489 626 q 247 556 296 626 q 199 363 199 486 q 218 224 199 290 q 282 114 238 157 q 400 71 326 71 q 549 151 493 71 l 549 544 z "},"e":{"ha":690,"x_min":54,"x_max":635,"o":"m 360 -17 q 193 29 261 -17 q 90 152 125 75 q 54 322 54 229 q 91 500 54 418 q 199 633 128 582 q 371 683 269 683 q 562 610 493 683 q 631 422 631 538 q 630 398 631 408 q 628 381 629 388 l 190 385 q 190 375 190 379 q 253 161 190 239 q 428 83 315 83 q 614 144 522 83 q 635 113 628 128 q 360 -17 517 -17 m 194 436 l 482 442 q 483 449 483 444 q 483 456 483 454 q 451 581 483 531 q 354 631 418 631 q 250 582 294 631 q 194 436 206 533 z "},"f":{"ha":458,"x_min":24,"x_max":633,"o":"m 458 593 l 285 593 l 285 158 q 292 81 285 104 q 328 51 300 57 q 415 42 356 44 q 415 -1 418 22 q 319 0 368 -1 q 214 1 271 1 q 120 0 158 1 q 38 -1 82 -1 q 38 42 36 19 q 108 51 86 44 q 137 78 131 57 q 143 144 143 99 l 143 593 l 28 593 q 28 631 24 614 q 103 646 79 639 q 135 667 128 653 q 144 707 143 681 q 152 781 146 736 q 179 876 158 826 q 242 967 200 926 q 341 1028 285 1007 q 457 1049 397 1049 q 538 1038 497 1049 q 606 1004 578 1028 q 633 940 633 981 q 615 888 633 908 q 560 868 596 868 q 483 904 511 868 q 456 981 456 940 q 435 985 446 983 q 411 988 425 988 q 315 931 346 988 q 285 738 285 874 l 285 657 l 458 657 q 458 593 463 626 z "},"g":{"ha":761,"x_min":38,"x_max":768,"o":"m 310 -354 q 113 -311 188 -354 q 38 -192 38 -268 q 79 -93 38 -132 q 182 -15 121 -54 q 100 28 128 -3 q 72 103 72 60 q 182 254 72 178 q 108 330 136 283 q 81 438 81 376 q 120 569 81 514 q 224 653 160 624 q 363 683 289 683 q 543 624 471 683 q 690 683 618 683 q 747 667 726 683 q 768 621 768 651 q 749 572 768 590 q 701 554 729 554 q 656 570 675 554 q 632 615 638 586 q 601 606 613 611 q 574 590 589 600 q 621 449 621 531 q 583 319 621 372 q 484 237 546 265 q 349 208 422 208 q 219 233 279 208 q 185 160 185 199 q 211 116 185 125 q 308 107 238 107 q 385 108 340 107 q 450 108 429 108 q 650 59 589 108 q 711 -76 711 10 q 678 -197 711 -144 q 588 -284 644 -249 q 459 -337 531 -319 q 310 -354 388 -354 m 242 -22 q 167 -154 167 -85 q 196 -233 167 -203 q 272 -278 225 -264 q 372 -292 319 -292 q 471 -278 419 -292 q 558 -228 522 -264 q 594 -129 594 -193 q 553 -46 594 -71 q 401 -21 513 -21 q 336 -22 375 -21 q 250 -22 297 -22 q 242 -22 246 -22 m 351 257 q 445 306 413 257 q 478 443 478 356 q 444 583 478 532 q 347 635 411 635 q 255 587 288 635 q 222 451 222 539 q 256 310 222 363 q 351 257 290 257 z "},"h":{"ha":828,"x_min":17,"x_max":806,"o":"m 463 -1 q 463 42 460 21 q 526 51 506 44 q 554 78 547 57 q 561 144 561 99 l 561 425 q 535 549 561 508 q 433 590 510 590 q 356 576 393 590 q 275 522 318 561 l 275 158 q 281 81 275 104 q 308 51 288 57 q 371 42 328 44 q 371 -1 378 21 q 294 0 336 -1 q 201 1 253 1 q 110 0 150 1 q 28 -1 69 -1 q 28 42 24 21 q 97 51 75 44 q 126 78 119 57 q 133 144 133 99 l 133 814 q 132 878 133 854 q 119 917 131 903 q 88 938 108 932 q 21 949 67 944 q 21 986 17 967 q 133 1008 76 993 q 254 1049 190 1022 l 278 1040 q 276 972 276 1010 q 275 888 275 933 l 275 579 q 398 660 338 638 q 514 683 458 683 q 654 629 606 683 q 703 474 703 575 l 703 158 q 709 81 703 104 q 736 51 715 57 q 803 42 757 44 q 803 -1 806 21 q 722 0 761 -1 q 629 1 682 1 q 540 0 578 1 q 463 -1 501 -1 z "},"i":{"ha":414,"x_min":33,"x_max":389,"o":"m 385 -1 q 304 0 346 -1 q 214 1 263 1 q 124 0 169 1 q 38 -1 79 -1 q 38 42 33 21 q 107 51 85 44 q 136 78 129 57 q 143 144 143 99 l 143 456 q 139 536 143 510 q 113 573 135 563 q 39 590 92 583 q 39 626 35 610 q 156 654 100 638 q 263 690 211 671 l 286 682 q 284 601 285 639 q 283 531 283 564 l 283 158 q 290 81 283 104 q 317 51 296 57 q 385 42 339 44 q 385 -1 389 21 m 107 926 q 135 994 107 967 q 204 1022 164 1022 q 272 994 243 1022 q 300 928 300 967 q 272 862 300 892 q 201 832 244 832 q 135 860 163 832 q 107 926 107 888 z "},"j":{"ha":392,"x_min":-106,"x_max":289,"o":"m 251 690 l 275 682 q 273 606 274 643 q 272 529 272 568 q 272 474 272 518 q 273 369 272 429 q 274 248 274 310 q 275 138 275 186 q 275 71 275 90 q 267 -85 275 -24 q 240 -185 258 -146 q 190 -258 222 -225 q -4 -354 101 -354 q -83 -331 -60 -354 q -106 -283 -106 -308 q -86 -239 -106 -258 q -29 -219 -67 -219 q 28 -235 1 -219 q 72 -285 56 -251 q 108 -244 96 -274 q 126 -175 121 -214 q 132 -100 131 -136 q 133 -40 133 -64 q 133 40 133 -11 q 133 153 133 92 q 133 276 133 215 q 132 385 132 336 q 132 456 132 433 q 127 536 132 510 q 101 573 122 563 q 28 590 79 583 q 28 626 24 610 q 141 653 86 638 q 251 690 196 668 m 96 926 q 124 994 96 967 q 193 1022 153 1022 q 260 994 232 1022 q 289 928 289 967 q 261 862 289 892 q 190 832 233 832 q 124 860 151 832 q 96 926 96 888 z "},"k":{"ha":764,"x_min":19,"x_max":771,"o":"m 28 -1 q 26 10 26 4 q 26 21 26 15 q 26 31 26 26 q 28 42 26 36 q 97 51 75 44 q 126 78 119 57 q 133 144 133 99 l 133 840 q 126 905 133 883 q 94 935 118 926 q 21 949 69 944 q 19 958 19 954 q 19 967 19 963 q 19 976 19 972 q 21 986 19 981 q 135 1008 76 993 q 254 1049 193 1022 l 278 1040 q 276 971 276 1010 q 275 886 275 932 l 275 371 q 303 376 292 371 q 321 388 314 382 q 332 398 324 390 q 361 426 340 406 q 421 489 382 447 q 478 552 457 529 q 500 590 500 575 q 481 609 500 601 q 431 618 463 617 q 429 629 429 624 q 429 640 429 635 q 429 651 429 646 q 431 663 429 657 q 501 661 458 663 q 576 660 543 660 q 624 660 593 660 q 688 661 656 661 q 735 661 719 661 q 737 650 736 656 q 738 639 738 644 q 737 628 738 633 q 735 618 736 624 q 613 583 663 617 q 517 503 563 549 l 417 403 l 608 150 q 659 87 639 110 q 703 54 679 64 q 768 42 726 44 q 768 -1 771 22 q 715 0 750 -1 q 604 1 679 1 q 571 1 593 1 q 529 -1 549 1 q 513 41 529 14 q 486 81 496 68 q 465 110 482 88 q 426 165 449 133 q 379 228 403 196 q 336 286 356 261 q 308 319 321 307 q 275 331 294 331 l 275 158 q 280 81 275 104 q 303 51 285 57 q 361 42 322 44 q 361 -1 364 21 q 285 0 325 -1 q 200 1 246 1 q 113 0 156 1 q 28 -1 69 -1 z "},"l":{"ha":406,"x_min":17,"x_max":379,"o":"m 376 -1 q 294 0 336 -1 q 201 1 253 1 q 110 0 150 1 q 28 -1 69 -1 q 28 42 24 21 q 97 51 75 44 q 126 78 119 57 q 133 144 133 99 l 133 840 q 126 905 133 883 q 94 935 118 926 q 21 949 69 944 q 21 986 17 967 q 135 1008 76 993 q 254 1049 193 1022 l 278 1040 q 276 971 276 1010 q 275 886 275 932 l 275 158 q 281 81 275 104 q 309 51 288 57 q 376 42 331 44 q 376 -1 379 21 z "},"m":{"ha":1244,"x_min":33,"x_max":1219,"o":"m 881 -1 q 881 42 876 21 q 943 51 922 44 q 972 78 964 57 q 979 144 979 99 l 979 425 q 955 549 979 507 q 856 590 931 590 q 697 521 763 590 q 700 474 700 499 l 700 158 q 706 81 700 104 q 733 51 713 57 q 797 42 754 44 q 797 -1 800 21 q 719 0 758 -1 q 628 1 681 1 q 538 0 576 1 q 465 -1 500 -1 q 465 42 461 21 q 526 51 506 44 q 553 78 546 57 q 560 144 560 99 l 560 425 q 536 549 560 507 q 436 590 513 590 q 283 519 349 590 l 283 158 q 290 81 283 104 q 317 51 296 57 q 383 42 339 44 q 383 -1 386 21 q 303 0 344 -1 q 210 1 263 1 q 119 0 160 1 q 38 -1 79 -1 q 38 42 33 21 q 107 51 85 44 q 136 78 129 57 q 143 144 143 99 l 143 456 q 138 536 143 510 q 112 573 133 563 q 39 590 90 583 q 39 626 35 610 q 151 653 97 638 q 258 690 206 668 l 282 682 l 282 579 q 517 683 394 683 q 632 651 593 683 q 686 572 671 619 q 808 656 746 629 q 935 683 871 683 q 1073 629 1026 683 q 1119 474 1119 575 l 1119 158 q 1125 81 1119 104 q 1151 51 1131 57 q 1215 42 1172 44 q 1215 -1 1219 21 q 1138 0 1176 -1 q 1047 1 1099 1 q 955 0 994 1 q 881 -1 915 -1 z "},"n":{"ha":838,"x_min":33,"x_max":815,"o":"m 472 -1 q 472 42 469 21 q 536 51 515 44 q 564 78 557 57 q 571 144 571 99 l 571 425 q 545 549 571 508 q 443 590 519 590 q 365 576 403 590 q 283 521 328 561 l 283 158 q 290 81 283 104 q 317 51 296 57 q 382 42 338 44 q 382 -1 385 21 q 301 0 343 -1 q 210 1 258 1 q 122 0 165 1 q 38 -1 79 -1 q 38 42 33 21 q 107 51 85 44 q 136 78 129 57 q 143 144 143 99 l 143 456 q 138 536 143 510 q 112 573 133 563 q 39 590 90 583 q 39 626 35 610 q 258 690 158 650 l 282 682 l 282 578 q 407 660 346 636 q 524 683 468 683 q 664 629 615 683 q 713 474 713 575 l 713 158 q 719 81 713 104 q 746 51 725 57 q 813 42 767 44 q 813 -1 815 21 q 731 0 771 -1 q 639 1 692 1 q 549 0 588 1 q 472 -1 511 -1 z "},"o":{"ha":793,"x_min":54,"x_max":738,"o":"m 390 -17 q 213 27 289 -17 q 96 148 138 71 q 54 325 54 225 q 98 514 54 433 q 221 639 142 594 q 403 683 300 683 q 579 639 504 683 q 696 517 654 594 q 738 340 738 439 q 694 158 738 239 q 572 30 650 76 q 390 -17 494 -17 m 211 342 q 258 117 211 200 q 397 35 304 35 q 533 113 486 35 q 581 324 581 192 q 533 547 581 464 q 396 631 486 631 q 259 554 307 631 q 211 342 211 478 z "},"p":{"ha":817,"x_min":25,"x_max":761,"o":"m 26 -342 q 26 -299 25 -319 q 97 -289 75 -296 q 126 -262 119 -282 q 132 -197 132 -242 l 132 456 q 127 536 132 510 q 101 573 122 563 q 28 590 79 583 q 28 626 25 610 q 139 653 85 638 q 251 690 193 668 l 271 681 q 269 622 269 646 q 269 575 269 597 q 376 658 324 632 q 489 683 429 683 q 637 638 576 683 q 729 518 697 592 q 761 358 761 444 q 717 172 761 257 q 596 35 674 86 q 415 -17 518 -17 q 339 -10 375 -17 q 271 7 303 -4 l 271 -181 q 279 -258 271 -235 q 315 -288 288 -282 q 403 -297 343 -294 q 403 -342 404 -319 q 308 -340 356 -342 q 203 -339 260 -339 q 110 -340 149 -339 q 26 -342 71 -342 m 269 121 q 428 35 329 35 q 538 74 497 35 q 598 175 579 113 q 617 307 617 238 q 599 443 617 376 q 540 553 581 510 q 428 597 499 597 q 269 515 343 597 l 269 121 z "},"q":{"ha":803,"x_min":54,"x_max":797,"o":"m 425 -369 q 425 -326 421 -347 q 505 -317 479 -324 q 538 -290 531 -310 q 546 -225 546 -269 l 546 69 q 444 3 497 24 q 335 -17 390 -17 q 179 31 242 -17 q 85 153 117 78 q 54 313 54 228 q 98 499 54 415 q 222 633 142 583 q 410 683 301 683 q 497 674 454 683 q 582 640 540 664 q 619 659 601 649 q 656 681 638 669 q 689 669 675 679 q 687 600 688 642 q 686 504 686 558 l 686 -208 q 692 -286 686 -262 q 722 -316 699 -310 q 793 -325 744 -322 q 793 -369 797 -346 q 706 -368 750 -369 q 608 -367 663 -367 q 510 -368 553 -367 q 425 -369 468 -369 m 547 536 q 478 605 517 583 q 390 626 440 626 q 248 556 297 626 q 199 361 199 486 q 217 224 199 290 q 281 114 236 157 q 404 71 325 71 q 483 84 443 71 q 547 126 522 97 l 547 536 z "},"r":{"ha":569,"x_min":33,"x_max":576,"o":"m 38 -1 q 38 42 33 21 q 107 51 85 44 q 136 78 129 57 q 143 144 143 99 l 143 456 q 138 536 143 510 q 112 573 133 563 q 39 590 90 583 q 39 626 35 610 q 147 652 94 638 q 258 690 200 667 l 282 682 l 282 560 q 481 683 379 683 q 553 658 529 683 q 576 600 576 632 q 551 542 576 563 q 494 522 526 522 q 442 536 468 522 q 404 579 417 550 q 320 542 357 579 q 283 457 283 506 l 283 158 q 290 81 283 104 q 323 51 296 57 q 411 42 350 44 q 411 -1 414 22 q 314 0 364 -1 q 211 1 264 1 q 120 0 160 1 q 38 -1 81 -1 z "},"s":{"ha":589,"x_min":56,"x_max":536,"o":"m 101 219 q 168 80 122 128 q 286 32 214 32 q 378 58 340 32 q 415 139 415 83 q 395 206 415 181 q 340 248 375 231 q 260 283 304 265 q 163 328 208 304 q 90 390 118 353 q 61 485 61 426 q 97 595 61 551 q 188 661 132 639 q 308 683 244 683 q 372 679 340 683 q 407 675 404 675 q 458 670 435 671 q 483 669 482 669 q 490 669 485 669 q 503 671 494 669 q 504 581 503 626 q 510 483 506 535 q 504 483 508 483 q 481 481 492 482 q 461 482 471 481 q 408 595 443 560 q 308 631 372 631 q 217 606 251 631 q 183 536 183 581 q 206 477 183 500 q 260 439 228 454 q 321 413 292 424 q 424 366 375 392 q 505 300 474 340 q 536 192 536 260 q 499 73 536 119 q 406 5 463 26 q 286 -17 349 -17 q 215 -11 250 -17 q 176 -6 179 -6 q 153 -3 174 -6 q 109 3 133 0 q 67 6 85 6 q 63 101 67 49 q 56 218 60 154 q 63 218 58 218 q 84 220 75 219 q 101 219 93 221 z "},"t":{"ha":503,"x_min":19,"x_max":489,"o":"m 304 -17 q 172 23 221 -17 q 124 138 124 63 q 126 374 124 260 q 129 593 128 488 l 24 593 q 24 631 19 614 q 231 821 161 689 q 253 820 242 821 q 272 818 264 819 q 270 742 271 782 q 268 657 269 701 l 479 657 q 479 593 483 626 l 268 593 q 265 388 265 496 q 264 172 264 281 q 381 60 264 60 q 474 86 431 60 q 489 44 486 69 q 304 -17 407 -17 z "},"u":{"ha":810,"x_min":14,"x_max":789,"o":"m 314 -17 q 174 37 224 -17 q 125 192 125 90 l 125 472 q 120 553 125 526 q 94 590 115 579 q 21 608 72 601 q 21 643 14 626 q 135 661 81 651 q 246 685 190 671 l 267 675 q 265 594 265 632 q 264 522 264 556 l 264 242 q 290 117 264 158 q 390 76 315 76 q 469 95 432 76 q 539 150 506 114 l 539 472 q 534 553 539 526 q 508 590 529 579 q 435 608 486 601 q 435 643 431 626 q 549 661 494 651 q 661 685 604 671 l 682 675 q 680 594 681 632 q 679 522 679 556 l 679 163 q 684 100 679 121 q 712 70 689 79 q 788 56 735 61 q 788 21 789 39 q 674 7 728 15 q 568 -14 619 -1 l 546 -4 l 543 93 q 314 -17 428 -17 z "},"v":{"ha":697,"x_min":-26,"x_max":731,"o":"m 385 7 l 308 -8 l 92 535 q 68 581 81 565 q 35 606 56 597 q -24 618 15 614 q -24 663 -26 638 q 60 661 17 663 q 147 660 104 660 q 235 661 188 660 q 314 663 282 663 q 314 618 318 640 q 249 608 267 615 q 232 579 232 601 q 237 551 232 568 q 246 524 242 535 q 263 479 250 513 q 292 402 275 446 q 328 312 310 358 q 362 226 346 265 q 388 164 378 188 q 458 325 417 231 q 538 517 499 419 q 549 552 544 536 q 554 578 554 568 q 536 606 554 597 q 471 618 518 614 q 471 663 469 640 q 540 661 507 663 q 618 660 572 660 q 658 660 639 660 q 728 663 676 661 q 728 618 731 639 q 649 592 669 614 q 608 528 628 571 l 385 7 z "},"w":{"ha":1061,"x_min":-21,"x_max":1094,"o":"m 747 6 l 681 -8 l 538 386 q 458 201 497 292 q 378 7 418 110 l 301 -8 l 96 535 q 73 581 85 565 q 40 606 61 597 q -18 618 19 614 q -18 663 -21 638 q 65 661 22 663 q 154 660 108 660 q 239 661 193 660 q 315 663 285 663 q 315 618 317 640 q 253 608 271 615 q 235 581 235 601 q 249 522 235 560 q 313 344 281 433 q 383 163 346 256 l 511 458 l 483 535 q 463 581 472 565 q 435 606 453 597 q 381 618 417 614 q 381 663 378 638 q 461 661 421 663 q 544 660 501 660 q 624 661 581 660 q 697 663 667 663 q 697 618 701 640 q 633 608 651 615 q 615 581 615 601 q 629 522 615 560 q 690 344 661 433 q 754 163 719 256 q 832 342 794 254 q 903 518 869 429 q 915 553 910 538 q 919 578 919 568 q 902 606 919 597 q 836 618 885 614 q 836 663 835 640 q 904 661 869 663 q 979 660 939 660 q 1038 660 1015 660 q 1092 663 1060 661 q 1092 618 1094 639 q 1013 592 1035 614 q 972 528 992 571 l 747 6 z "},"x":{"ha":722,"x_min":-10,"x_max":728,"o":"m 378 -1 q 378 42 374 19 q 438 49 422 44 q 453 64 453 54 q 446 83 453 69 q 428 114 439 97 q 381 187 404 150 q 328 267 357 224 q 259 178 293 222 q 197 94 225 133 q 189 82 193 89 q 185 68 185 75 q 203 51 185 57 q 269 42 222 44 q 269 -1 274 19 q 197 0 235 -1 q 126 1 160 1 q 58 0 90 1 q -6 -1 26 -1 q -6 42 -10 22 q 61 56 38 47 q 103 83 85 65 q 146 131 122 100 l 294 318 q 224 423 263 365 q 144 539 185 481 q 113 581 128 565 q 75 605 97 596 q 13 618 53 614 q 13 663 8 638 q 92 661 53 663 q 182 660 132 660 q 275 661 222 660 q 360 663 328 663 q 360 618 364 640 q 301 610 317 615 q 285 594 285 606 q 290 579 285 589 q 301 558 294 569 q 348 485 325 521 q 394 413 371 449 q 458 494 429 456 q 510 567 486 532 q 521 592 521 582 q 503 609 521 604 q 443 618 486 614 q 443 663 439 640 q 513 661 476 663 q 581 660 549 660 q 646 661 617 660 q 708 663 675 663 q 708 618 713 643 q 645 604 668 614 q 605 577 622 594 q 563 531 588 560 q 506 461 542 504 q 428 363 471 418 q 499 257 463 310 q 592 122 535 204 q 626 80 611 96 q 662 56 640 64 q 724 42 683 47 q 724 -1 728 22 q 638 0 681 -1 q 551 1 596 1 q 459 0 508 1 q 378 -1 410 -1 z "},"y":{"ha":693,"x_min":-24,"x_max":726,"o":"m 131 -354 q 73 -333 93 -354 q 53 -282 53 -311 q 94 -206 53 -243 q 231 -169 136 -169 q 266 -101 249 -137 q 307 -10 283 -64 q 268 90 292 29 q 215 226 244 151 q 154 380 185 300 q 94 535 124 460 q 58 596 78 579 q -19 618 38 613 q -19 661 -24 638 q 63 660 21 661 q 149 658 104 658 q 236 660 189 658 q 317 661 283 661 q 317 618 319 640 q 251 608 269 615 q 232 581 232 601 q 246 521 232 561 q 316 339 282 422 q 385 168 350 256 q 463 350 429 269 q 532 518 497 431 q 547 578 547 558 q 526 606 547 597 q 453 618 506 614 q 453 661 449 640 q 524 660 488 661 q 603 658 561 658 q 663 660 631 658 q 722 661 696 661 q 722 618 726 640 q 643 592 664 614 q 604 528 622 571 l 367 -26 q 342 -83 360 -43 q 303 -165 324 -122 q 269 -235 283 -207 q 201 -328 235 -303 q 131 -354 168 -354 z "},"z":{"ha":689,"x_min":35,"x_max":656,"o":"m 607 -1 q 497 1 546 1 q 413 1 449 1 l 250 1 q 154 1 207 1 q 42 0 101 1 q 35 29 35 14 l 439 607 l 294 607 q 190 597 225 607 q 136 556 156 586 q 92 464 117 525 q 51 468 71 461 q 69 575 61 525 q 78 665 76 625 q 210 660 138 663 q 358 658 282 658 q 492 660 419 658 q 619 663 564 661 q 629 632 629 649 l 224 54 l 393 54 q 474 60 443 54 q 526 82 504 65 q 568 133 547 99 q 618 224 589 167 q 656 217 640 224 q 630 108 642 163 q 607 -1 618 53 z "},"à":{"ha":685,"x_min":46,"x_max":682,"o":"m 532 -14 q 417 78 440 -14 q 215 -17 318 -17 q 95 26 144 -17 q 46 143 46 68 q 419 374 46 326 q 420 442 419 407 q 421 515 421 476 q 385 591 421 564 q 300 618 350 618 q 239 607 264 618 q 225 542 239 575 q 187 485 211 508 q 128 463 163 463 q 80 480 97 463 q 63 522 63 497 q 94 585 63 556 q 174 637 125 615 q 275 671 222 658 q 369 683 328 683 q 465 665 421 683 q 535 609 508 646 q 563 518 563 572 q 561 431 563 485 q 559 317 560 378 q 557 203 558 257 q 556 115 556 149 q 594 71 556 71 q 671 88 619 71 q 678 72 676 81 q 682 57 681 64 q 609 3 647 19 q 532 -14 571 -14 m 417 115 l 419 324 q 244 269 292 307 q 196 174 196 232 q 222 99 196 125 q 286 74 247 74 q 342 85 311 74 q 417 115 374 96 m 161 1031 l 161 1036 q 264 1044 210 1044 q 311 1038 304 1044 l 379 765 q 358 761 371 763 q 339 761 346 760 l 161 1031 z "},"á":{"ha":685,"x_min":46,"x_max":682,"o":"m 532 -14 q 417 78 440 -14 q 215 -17 318 -17 q 95 26 144 -17 q 46 143 46 68 q 419 374 46 326 q 420 442 419 407 q 421 515 421 476 q 385 591 421 564 q 300 618 350 618 q 239 607 264 618 q 225 542 239 575 q 187 485 211 508 q 128 463 163 463 q 80 480 97 463 q 63 522 63 497 q 94 585 63 556 q 174 637 125 615 q 275 671 222 658 q 369 683 328 683 q 465 665 421 683 q 535 609 508 646 q 563 518 563 572 q 561 431 563 485 q 559 317 560 378 q 557 203 558 257 q 556 115 556 149 q 594 71 556 71 q 671 88 619 71 q 678 72 676 81 q 682 57 681 64 q 609 3 647 19 q 532 -14 571 -14 m 417 115 l 419 324 q 244 269 292 307 q 196 174 196 232 q 222 99 196 125 q 286 74 247 74 q 342 85 311 74 q 417 115 374 96 m 503 1036 l 503 1031 l 325 761 q 306 761 318 760 q 285 765 293 763 l 353 1038 q 400 1044 360 1044 q 503 1036 456 1044 z "},"â":{"ha":685,"x_min":46,"x_max":682,"o":"m 532 -14 q 417 78 440 -14 q 215 -17 318 -17 q 95 26 144 -17 q 46 143 46 68 q 419 374 46 326 q 420 442 419 407 q 421 515 421 476 q 385 591 421 564 q 300 618 350 618 q 239 607 264 618 q 225 542 239 575 q 187 485 211 508 q 128 463 163 463 q 80 480 97 463 q 63 522 63 497 q 94 585 63 556 q 174 637 125 615 q 275 671 222 658 q 369 683 328 683 q 465 665 421 683 q 535 609 508 646 q 563 518 563 572 q 561 431 563 485 q 559 317 560 378 q 557 203 558 257 q 556 115 556 149 q 594 71 556 71 q 671 88 619 71 q 678 72 676 81 q 682 57 681 64 q 609 3 647 19 q 532 -14 571 -14 m 417 115 l 419 324 q 244 269 292 307 q 196 174 196 232 q 222 99 196 125 q 286 74 247 74 q 342 85 311 74 q 417 115 374 96 m 331 932 q 243 849 289 892 q 149 761 197 806 q 128 768 139 764 q 108 779 118 772 q 194 908 149 836 q 271 1039 239 981 q 300 1043 285 1042 q 332 1044 315 1044 q 364 1043 349 1044 q 393 1039 379 1042 q 470 908 425 981 q 554 779 515 836 q 514 761 538 765 q 418 849 464 806 q 331 932 372 892 z "},"ã":{"ha":685,"x_min":46,"x_max":682,"o":"m 532 -14 q 417 78 440 -14 q 215 -17 318 -17 q 95 26 144 -17 q 46 143 46 68 q 419 374 46 326 q 420 442 419 407 q 421 515 421 476 q 385 591 421 564 q 300 618 350 618 q 239 607 264 618 q 225 542 239 575 q 187 485 211 508 q 128 463 163 463 q 80 480 97 463 q 63 522 63 497 q 94 585 63 556 q 174 637 125 615 q 275 671 222 658 q 369 683 328 683 q 465 665 421 683 q 535 609 508 646 q 563 518 563 572 q 561 431 563 485 q 559 317 560 378 q 557 203 558 257 q 556 115 556 149 q 594 71 556 71 q 671 88 619 71 q 678 72 676 81 q 682 57 681 64 q 609 3 647 19 q 532 -14 571 -14 m 417 115 l 419 324 q 244 269 292 307 q 196 174 196 232 q 222 99 196 125 q 286 74 247 74 q 342 85 311 74 q 417 115 374 96 m 538 1008 q 561 1001 550 1006 q 582 993 572 997 q 511 865 554 910 q 413 819 468 819 q 372 826 394 819 q 322 850 350 833 q 273 878 297 865 q 222 892 249 892 q 139 811 172 892 q 94 826 119 815 q 168 953 125 907 q 267 999 211 999 q 306 992 285 999 q 356 968 328 985 q 406 940 381 954 q 456 925 432 925 q 538 1008 504 925 z "},"ä":{"ha":685,"x_min":46,"x_max":682,"o":"m 532 -14 q 417 78 440 -14 q 215 -17 318 -17 q 95 26 144 -17 q 46 143 46 68 q 419 374 46 326 q 420 442 419 407 q 421 515 421 476 q 385 591 421 564 q 300 618 350 618 q 239 607 264 618 q 225 542 239 575 q 187 485 211 508 q 128 463 163 463 q 80 480 97 463 q 63 522 63 497 q 94 585 63 556 q 174 637 125 615 q 275 671 222 658 q 369 683 328 683 q 465 665 421 683 q 535 609 508 646 q 563 518 563 572 q 561 431 563 485 q 559 317 560 378 q 557 203 558 257 q 556 115 556 149 q 594 71 556 71 q 671 88 619 71 q 678 72 676 81 q 682 57 681 64 q 609 3 647 19 q 532 -14 571 -14 m 417 115 l 419 324 q 244 269 292 307 q 196 174 196 232 q 222 99 196 125 q 286 74 247 74 q 342 85 311 74 q 417 115 374 96 m 104 922 q 128 983 104 958 q 190 1008 151 1008 q 253 983 229 1008 q 276 922 276 958 q 253 860 276 886 q 190 835 229 835 q 128 860 151 835 q 104 922 104 886 m 386 922 q 410 983 386 958 q 472 1008 433 1008 q 535 983 511 1008 q 558 922 558 958 q 535 860 558 886 q 472 835 511 835 q 410 860 433 835 q 386 922 386 886 z "},"ā":{"ha":685,"x_min":46,"x_max":682,"o":"m 532 -14 q 417 78 440 -14 q 215 -17 318 -17 q 95 26 144 -17 q 46 143 46 68 q 419 374 46 326 q 420 442 419 407 q 421 515 421 476 q 385 591 421 564 q 300 618 350 618 q 239 607 264 618 q 225 542 239 575 q 187 485 211 508 q 128 463 163 463 q 80 480 97 463 q 63 522 63 497 q 94 585 63 556 q 174 637 125 615 q 275 671 222 658 q 369 683 328 683 q 465 665 421 683 q 535 609 508 646 q 563 518 563 572 q 561 431 563 485 q 559 317 560 378 q 557 203 558 257 q 556 115 556 149 q 594 71 556 71 q 671 88 619 71 q 678 72 676 81 q 682 57 681 64 q 609 3 647 19 q 532 -14 571 -14 m 417 115 l 419 324 q 244 269 292 307 q 196 174 196 232 q 222 99 196 125 q 286 74 247 74 q 342 85 311 74 q 417 115 374 96 m 136 918 l 528 918 q 528 849 532 883 l 136 849 q 136 918 132 883 z "},"ă":{"ha":685,"x_min":46,"x_max":682,"o":"m 532 -14 q 417 78 440 -14 q 215 -17 318 -17 q 95 26 144 -17 q 46 143 46 68 q 419 374 46 326 q 420 442 419 407 q 421 515 421 476 q 385 591 421 564 q 300 618 350 618 q 239 607 264 618 q 225 542 239 575 q 187 485 211 508 q 128 463 163 463 q 80 480 97 463 q 63 522 63 497 q 94 585 63 556 q 174 637 125 615 q 275 671 222 658 q 369 683 328 683 q 465 665 421 683 q 535 609 508 646 q 563 518 563 572 q 561 431 563 485 q 559 317 560 378 q 557 203 558 257 q 556 115 556 149 q 594 71 556 71 q 671 88 619 71 q 678 72 676 81 q 682 57 681 64 q 609 3 647 19 q 532 -14 571 -14 m 417 115 l 419 324 q 244 269 292 307 q 196 174 196 232 q 222 99 196 125 q 286 74 247 74 q 342 85 311 74 q 417 115 374 96 m 171 1031 q 228 903 186 942 q 333 865 269 865 q 444 906 401 865 q 497 1031 486 947 q 539 1021 522 1028 q 474 822 528 890 q 332 753 421 753 q 192 822 243 753 q 129 1021 142 890 q 171 1031 146 1028 z "},"å":{"ha":685,"x_min":46,"x_max":682,"o":"m 532 -14 q 417 78 440 -14 q 215 -17 318 -17 q 95 26 144 -17 q 46 143 46 68 q 419 374 46 326 q 420 442 419 407 q 421 515 421 476 q 385 591 421 564 q 300 618 350 618 q 239 607 264 618 q 225 542 239 575 q 187 485 211 508 q 128 463 163 463 q 80 480 97 463 q 63 522 63 497 q 94 585 63 556 q 174 637 125 615 q 275 671 222 658 q 369 683 328 683 q 465 665 421 683 q 535 609 508 646 q 563 518 563 572 q 561 431 563 485 q 559 317 560 378 q 557 203 558 257 q 556 115 556 149 q 594 71 556 71 q 671 88 619 71 q 678 72 676 81 q 682 57 681 64 q 609 3 647 19 q 532 -14 571 -14 m 417 115 l 419 324 q 244 269 292 307 q 196 174 196 232 q 222 99 196 125 q 286 74 247 74 q 342 85 311 74 q 417 115 374 96 m 165 886 q 215 992 165 956 q 332 1028 264 1028 q 450 994 401 1028 q 499 889 499 960 q 449 786 499 825 q 332 747 399 747 q 215 783 264 747 q 165 886 165 818 m 332 988 q 274 961 294 988 q 253 889 253 935 q 274 818 253 846 q 332 790 294 790 q 390 817 369 790 q 411 886 411 843 q 390 959 411 931 q 332 988 368 988 z "},"æ":{"ha":1032,"x_min":49,"x_max":976,"o":"m 969 381 l 543 385 q 543 378 543 381 q 565 235 543 303 q 638 126 588 168 q 775 83 689 83 q 956 144 865 83 q 976 113 969 128 q 710 -17 863 -17 q 475 106 556 -17 q 348 14 413 44 q 222 -17 283 -17 q 98 26 147 -17 q 49 142 49 68 q 139 293 49 236 q 414 374 229 350 l 414 376 q 415 446 414 411 q 415 515 415 481 q 382 591 415 564 q 300 618 349 618 q 242 607 264 618 q 228 540 242 574 q 189 485 214 507 q 131 463 164 463 q 83 480 100 463 q 65 522 65 497 q 97 585 65 556 q 175 637 128 615 q 274 671 222 658 q 367 683 325 683 q 458 664 417 683 q 524 608 500 644 q 611 664 561 644 q 721 683 661 683 q 906 610 839 683 q 972 422 972 538 q 972 398 972 408 q 969 381 971 388 m 457 135 q 450 150 454 142 q 424 224 435 183 q 414 303 414 265 l 414 324 q 246 269 293 307 q 199 174 199 232 q 224 99 199 125 q 292 74 249 74 q 363 87 321 74 q 457 135 406 100 m 547 436 l 824 442 q 825 449 825 444 q 825 456 825 454 q 794 581 825 531 q 700 631 763 631 q 618 601 650 631 q 569 526 586 571 q 547 436 553 482 z "},"ǣ":{"ha":1032,"x_min":49,"x_max":976,"o":"m 969 381 l 543 385 q 543 378 543 381 q 565 235 543 303 q 638 126 588 168 q 775 83 689 83 q 956 144 865 83 q 976 113 969 128 q 710 -17 863 -17 q 475 106 556 -17 q 348 14 413 44 q 222 -17 283 -17 q 98 26 147 -17 q 49 142 49 68 q 139 293 49 236 q 414 374 229 350 l 414 376 q 415 446 414 411 q 415 515 415 481 q 382 591 415 564 q 300 618 349 618 q 242 607 264 618 q 228 540 242 574 q 189 485 214 507 q 131 463 164 463 q 83 480 100 463 q 65 522 65 497 q 97 585 65 556 q 175 637 128 615 q 274 671 222 658 q 367 683 325 683 q 458 664 417 683 q 524 608 500 644 q 611 664 561 644 q 721 683 661 683 q 906 610 839 683 q 972 422 972 538 q 972 398 972 408 q 969 381 971 388 m 457 135 q 450 150 454 142 q 424 224 435 183 q 414 303 414 265 l 414 324 q 246 269 293 307 q 199 174 199 232 q 224 99 199 125 q 292 74 249 74 q 363 87 321 74 q 457 135 406 100 m 547 436 l 824 442 q 825 449 825 444 q 825 456 825 454 q 794 581 825 531 q 700 631 763 631 q 618 601 650 631 q 569 526 586 571 q 547 436 553 482 m 331 918 l 722 918 q 722 849 726 883 l 331 849 q 331 918 326 883 z "},"ĉ":{"ha":654,"x_min":54,"x_max":624,"o":"m 603 135 q 624 103 617 118 q 360 -17 508 -17 q 196 29 264 -17 q 91 151 128 75 q 54 321 54 228 q 96 504 54 422 q 213 635 138 586 q 388 683 289 683 q 492 669 439 683 q 581 624 544 654 q 617 546 617 593 q 594 489 617 508 q 542 469 572 469 q 471 508 500 469 q 442 610 442 546 q 375 626 417 626 q 291 601 325 626 q 235 535 257 576 q 204 445 214 493 q 194 351 194 397 q 221 213 194 274 q 299 116 247 151 q 426 81 350 81 q 513 93 471 81 q 603 135 556 106 m 379 932 q 292 849 338 892 q 197 761 246 806 q 177 768 188 764 q 157 779 167 772 q 242 908 197 836 q 319 1039 288 981 q 349 1043 333 1042 q 381 1044 364 1044 q 413 1043 397 1044 q 442 1039 428 1042 q 519 908 474 981 q 603 779 564 836 q 563 761 586 765 q 467 849 513 806 q 379 932 421 892 z "},"č":{"ha":654,"x_min":54,"x_max":624,"o":"m 603 135 q 624 103 617 118 q 360 -17 508 -17 q 196 29 264 -17 q 91 151 128 75 q 54 321 54 228 q 96 504 54 422 q 213 635 138 586 q 388 683 289 683 q 492 669 439 683 q 581 624 544 654 q 617 546 617 593 q 594 489 617 508 q 542 469 572 469 q 471 508 500 469 q 442 610 442 546 q 375 626 417 626 q 291 601 325 626 q 235 535 257 576 q 204 445 214 493 q 194 351 194 397 q 221 213 194 274 q 299 116 247 151 q 426 81 350 81 q 513 93 471 81 q 603 135 556 106 m 381 874 q 468 957 422 914 q 563 1044 514 1000 q 583 1038 572 1043 q 603 1026 593 1033 q 517 897 563 969 q 440 767 472 825 q 411 763 426 764 q 379 761 396 761 q 347 763 363 761 q 318 767 332 764 q 242 897 286 825 q 157 1026 197 969 q 197 1044 174 1040 q 293 957 247 1000 q 381 874 339 914 z "},"ç":{"ha":654,"x_min":54,"x_max":624,"o":"m 603 135 q 624 103 617 118 q 389 -15 519 -4 l 351 -74 q 449 -125 421 -90 q 476 -203 476 -160 q 449 -287 476 -253 q 378 -341 422 -322 q 281 -360 333 -360 q 199 -337 224 -360 q 174 -292 174 -315 q 189 -256 174 -271 q 226 -242 204 -242 q 268 -258 244 -242 q 307 -315 292 -274 q 371 -294 353 -312 q 389 -250 389 -275 q 349 -183 389 -208 q 243 -151 310 -157 l 240 -144 l 329 -15 q 196 29 253 -10 q 91 151 128 75 q 54 321 54 228 q 96 504 54 422 q 213 635 138 586 q 388 683 289 683 q 492 669 439 683 q 581 624 544 654 q 617 546 617 593 q 594 489 617 508 q 542 469 572 469 q 471 508 500 469 q 442 610 442 546 q 375 626 417 626 q 291 601 325 626 q 235 535 257 576 q 204 445 214 493 q 194 351 194 397 q 221 213 194 274 q 299 116 247 151 q 426 81 350 81 q 513 93 471 81 q 603 135 556 106 z "},"ḍ":{"ha":818,"x_min":54,"x_max":792,"o":"m 578 -18 l 556 -8 l 550 88 q 451 9 501 35 q 339 -17 400 -17 q 188 30 253 -17 q 89 151 124 76 q 54 314 54 226 q 98 499 54 415 q 222 633 142 582 q 408 683 301 683 q 475 678 440 683 q 547 663 510 674 l 547 840 q 539 905 547 883 q 506 935 531 926 q 433 949 482 944 q 433 986 429 967 q 547 1008 489 993 q 667 1049 606 1022 l 690 1040 q 688 971 689 1010 q 688 886 688 932 l 688 197 q 692 118 688 144 q 717 81 696 92 q 788 63 738 71 q 788 25 792 44 q 679 7 732 17 q 578 -18 626 -3 m 549 544 q 392 626 489 626 q 247 556 296 626 q 199 363 199 486 q 218 224 199 290 q 282 114 238 157 q 400 71 326 71 q 549 151 493 71 l 549 544 m 297 -211 q 326 -143 297 -171 q 394 -115 354 -115 q 462 -143 433 -115 q 490 -210 490 -171 q 463 -276 490 -246 q 392 -306 435 -306 q 325 -278 353 -306 q 297 -211 297 -250 z "},"ḏ":{"ha":818,"x_min":54,"x_max":792,"o":"m 578 -18 l 556 -8 l 550 88 q 451 9 501 35 q 339 -17 400 -17 q 188 30 253 -17 q 89 151 124 76 q 54 314 54 226 q 98 499 54 415 q 222 633 142 582 q 408 683 301 683 q 475 678 440 683 q 547 663 510 674 l 547 840 q 539 905 547 883 q 506 935 531 926 q 433 949 482 944 q 433 986 429 967 q 547 1008 489 993 q 667 1049 606 1022 l 690 1040 q 688 971 689 1010 q 688 886 688 932 l 688 197 q 692 118 688 144 q 717 81 696 92 q 788 63 738 71 q 788 25 792 44 q 679 7 732 17 q 578 -18 626 -3 m 549 544 q 392 626 489 626 q 247 556 296 626 q 199 363 199 486 q 218 224 199 290 q 282 114 238 157 q 400 71 326 71 q 549 151 493 71 l 549 544 m 199 -143 l 590 -143 q 590 -212 594 -178 l 199 -212 q 199 -143 194 -178 z "},"è":{"ha":690,"x_min":54,"x_max":635,"o":"m 360 -17 q 193 29 261 -17 q 90 152 125 75 q 54 322 54 229 q 91 500 54 418 q 199 633 128 582 q 371 683 269 683 q 562 610 493 683 q 631 422 631 538 q 630 398 631 408 q 628 381 629 388 l 190 385 q 190 375 190 379 q 253 161 190 239 q 428 83 315 83 q 614 144 522 83 q 635 113 628 128 q 360 -17 517 -17 m 194 436 l 482 442 q 483 449 483 444 q 483 456 483 454 q 451 581 483 531 q 354 631 418 631 q 250 582 294 631 q 194 436 206 533 m 189 1031 l 189 1036 q 292 1044 238 1044 q 339 1038 332 1044 l 407 765 q 386 761 399 763 q 367 761 374 760 l 189 1031 z "},"é":{"ha":690,"x_min":54,"x_max":635,"o":"m 360 -17 q 193 29 261 -17 q 90 152 125 75 q 54 322 54 229 q 91 500 54 418 q 199 633 128 582 q 371 683 269 683 q 562 610 493 683 q 631 422 631 538 q 630 398 631 408 q 628 381 629 388 l 190 385 q 190 375 190 379 q 253 161 190 239 q 428 83 315 83 q 614 144 522 83 q 635 113 628 128 q 360 -17 517 -17 m 194 436 l 482 442 q 483 449 483 444 q 483 456 483 454 q 451 581 483 531 q 354 631 418 631 q 250 582 294 631 q 194 436 206 533 m 531 1036 l 531 1031 l 353 761 q 333 761 346 760 q 313 765 321 763 l 381 1038 q 428 1044 388 1044 q 531 1036 483 1044 z "},"ê":{"ha":690,"x_min":54,"x_max":635,"o":"m 360 -17 q 193 29 261 -17 q 90 152 125 75 q 54 322 54 229 q 91 500 54 418 q 199 633 128 582 q 371 683 269 683 q 562 610 493 683 q 631 422 631 538 q 630 398 631 408 q 628 381 629 388 l 190 385 q 190 375 190 379 q 253 161 190 239 q 428 83 315 83 q 614 144 522 83 q 635 113 628 128 q 360 -17 517 -17 m 194 436 l 482 442 q 483 449 483 444 q 483 456 483 454 q 451 581 483 531 q 354 631 418 631 q 250 582 294 631 q 194 436 206 533 m 358 932 q 271 849 317 892 q 176 761 225 806 q 156 768 167 764 q 136 779 146 772 q 222 908 176 836 q 299 1039 267 981 q 328 1043 313 1042 q 360 1044 343 1044 q 392 1043 376 1044 q 421 1039 407 1042 q 498 908 453 981 q 582 779 543 836 q 542 761 565 765 q 446 849 492 806 q 358 932 400 892 z "},"ẽ":{"ha":690,"x_min":54,"x_max":635,"o":"m 360 -17 q 193 29 261 -17 q 90 152 125 75 q 54 322 54 229 q 91 500 54 418 q 199 633 128 582 q 371 683 269 683 q 562 610 493 683 q 631 422 631 538 q 630 398 631 408 q 628 381 629 388 l 190 385 q 190 375 190 379 q 253 161 190 239 q 428 83 315 83 q 614 144 522 83 q 635 113 628 128 q 360 -17 517 -17 m 194 436 l 482 442 q 483 449 483 444 q 483 456 483 454 q 451 581 483 531 q 354 631 418 631 q 250 582 294 631 q 194 436 206 533 m 565 1008 q 589 1001 578 1006 q 610 993 600 997 q 539 865 582 910 q 440 819 496 819 q 400 826 422 819 q 350 850 378 833 q 301 878 325 865 q 250 892 276 892 q 167 811 200 892 q 122 826 147 815 q 196 953 153 907 q 294 999 239 999 q 334 992 313 999 q 383 968 356 985 q 434 940 408 954 q 483 925 460 925 q 565 1008 532 925 z "},"ë":{"ha":690,"x_min":54,"x_max":635,"o":"m 360 -17 q 193 29 261 -17 q 90 152 125 75 q 54 322 54 229 q 91 500 54 418 q 199 633 128 582 q 371 683 269 683 q 562 610 493 683 q 631 422 631 538 q 630 398 631 408 q 628 381 629 388 l 190 385 q 190 375 190 379 q 253 161 190 239 q 428 83 315 83 q 614 144 522 83 q 635 113 628 128 q 360 -17 517 -17 m 194 436 l 482 442 q 483 449 483 444 q 483 456 483 454 q 451 581 483 531 q 354 631 418 631 q 250 582 294 631 q 194 436 206 533 m 132 922 q 156 983 132 958 q 218 1008 179 1008 q 281 983 257 1008 q 304 922 304 958 q 281 860 304 886 q 218 835 257 835 q 156 860 179 835 q 132 922 132 886 m 414 922 q 438 983 414 958 q 500 1008 461 1008 q 563 983 539 1008 q 586 922 586 958 q 563 860 586 886 q 500 835 539 835 q 438 860 461 835 q 414 922 414 886 z "},"ē":{"ha":690,"x_min":54,"x_max":635,"o":"m 360 -17 q 193 29 261 -17 q 90 152 125 75 q 54 322 54 229 q 91 500 54 418 q 199 633 128 582 q 371 683 269 683 q 562 610 493 683 q 631 422 631 538 q 630 398 631 408 q 628 381 629 388 l 190 385 q 190 375 190 379 q 253 161 190 239 q 428 83 315 83 q 614 144 522 83 q 635 113 628 128 q 360 -17 517 -17 m 194 436 l 482 442 q 483 449 483 444 q 483 456 483 454 q 451 581 483 531 q 354 631 418 631 q 250 582 294 631 q 194 436 206 533 m 164 918 l 556 918 q 556 849 560 883 l 164 849 q 164 918 160 883 z "},"ḗ":{"ha":690,"x_min":54,"x_max":635,"o":"m 360 -17 q 193 29 261 -17 q 90 152 125 75 q 54 322 54 229 q 91 500 54 418 q 199 633 128 582 q 371 683 269 683 q 562 610 493 683 q 631 422 631 538 q 630 398 631 408 q 628 381 629 388 l 190 385 q 190 375 190 379 q 253 161 190 239 q 428 83 315 83 q 614 144 522 83 q 635 113 628 128 q 360 -17 517 -17 m 194 436 l 482 442 q 483 449 483 444 q 483 456 483 454 q 451 581 483 531 q 354 631 418 631 q 250 582 294 631 q 194 436 206 533 m 164 890 l 556 890 q 556 821 560 856 l 164 821 q 164 890 160 856 m 531 1244 l 531 1239 l 353 969 q 333 969 346 968 q 313 974 321 971 l 381 1246 q 428 1253 388 1253 q 531 1244 483 1253 z "},"ĕ":{"ha":690,"x_min":54,"x_max":635,"o":"m 360 -17 q 193 29 261 -17 q 90 152 125 75 q 54 322 54 229 q 91 500 54 418 q 199 633 128 582 q 371 683 269 683 q 562 610 493 683 q 631 422 631 538 q 630 398 631 408 q 628 381 629 388 l 190 385 q 190 375 190 379 q 253 161 190 239 q 428 83 315 83 q 614 144 522 83 q 635 113 628 128 q 360 -17 517 -17 m 194 436 l 482 442 q 483 449 483 444 q 483 456 483 454 q 451 581 483 531 q 354 631 418 631 q 250 582 294 631 q 194 436 206 533 m 199 1031 q 256 903 214 942 q 361 865 297 865 q 472 906 429 865 q 525 1031 514 947 q 567 1021 550 1028 q 502 822 556 890 q 360 753 449 753 q 220 822 271 753 q 157 1021 169 890 q 199 1031 174 1028 z "},"ġ":{"ha":761,"x_min":38,"x_max":768,"o":"m 310 -354 q 113 -311 188 -354 q 38 -192 38 -268 q 79 -93 38 -132 q 182 -15 121 -54 q 100 28 128 -3 q 72 103 72 60 q 182 254 72 178 q 108 330 136 283 q 81 438 81 376 q 120 569 81 514 q 224 653 160 624 q 363 683 289 683 q 543 624 471 683 q 690 683 618 683 q 747 667 726 683 q 768 621 768 651 q 749 572 768 590 q 701 554 729 554 q 656 570 675 554 q 632 615 638 586 q 601 606 613 611 q 574 590 589 600 q 621 449 621 531 q 583 319 621 372 q 484 237 546 265 q 349 208 422 208 q 219 233 279 208 q 185 160 185 199 q 211 116 185 125 q 308 107 238 107 q 385 108 340 107 q 450 108 429 108 q 650 59 589 108 q 711 -76 711 10 q 678 -197 711 -144 q 588 -284 644 -249 q 459 -337 531 -319 q 310 -354 388 -354 m 242 -22 q 167 -154 167 -85 q 196 -233 167 -203 q 272 -278 225 -264 q 372 -292 319 -292 q 471 -278 419 -292 q 558 -228 522 -264 q 594 -129 594 -193 q 553 -46 594 -71 q 401 -21 513 -21 q 336 -22 375 -21 q 250 -22 297 -22 q 242 -22 246 -22 m 351 257 q 445 306 413 257 q 478 443 478 356 q 444 583 478 532 q 347 635 411 635 q 255 587 288 635 q 222 451 222 539 q 256 310 222 363 q 351 257 290 257 m 263 926 q 291 994 263 967 q 360 1022 319 1022 q 427 994 399 1022 q 456 928 456 967 q 428 862 456 892 q 357 832 400 832 q 290 860 318 832 q 263 926 263 888 z "},"ḥ":{"ha":828,"x_min":17,"x_max":806,"o":"m 463 -1 q 463 42 460 21 q 526 51 506 44 q 554 78 547 57 q 561 144 561 99 l 561 425 q 535 549 561 508 q 433 590 510 590 q 356 576 393 590 q 275 522 318 561 l 275 158 q 281 81 275 104 q 308 51 288 57 q 371 42 328 44 q 371 -1 378 21 q 294 0 336 -1 q 201 1 253 1 q 110 0 150 1 q 28 -1 69 -1 q 28 42 24 21 q 97 51 75 44 q 126 78 119 57 q 133 144 133 99 l 133 814 q 132 878 133 854 q 119 917 131 903 q 88 938 108 932 q 21 949 67 944 q 21 986 17 967 q 133 1008 76 993 q 254 1049 190 1022 l 278 1040 q 276 972 276 1010 q 275 888 275 933 l 275 579 q 398 660 338 638 q 514 683 458 683 q 654 629 606 683 q 703 474 703 575 l 703 158 q 709 81 703 104 q 736 51 715 57 q 803 42 757 44 q 803 -1 806 21 q 722 0 761 -1 q 629 1 682 1 q 540 0 578 1 q 463 -1 501 -1 m 318 -211 q 347 -143 318 -171 q 415 -115 375 -115 q 483 -143 454 -115 q 511 -210 511 -171 q 483 -276 511 -246 q 413 -306 456 -306 q 346 -278 374 -306 q 318 -211 318 -250 z "},"ẖ":{"ha":828,"x_min":17,"x_max":806,"o":"m 463 -1 q 463 42 460 21 q 526 51 506 44 q 554 78 547 57 q 561 144 561 99 l 561 425 q 535 549 561 508 q 433 590 510 590 q 356 576 393 590 q 275 522 318 561 l 275 158 q 281 81 275 104 q 308 51 288 57 q 371 42 328 44 q 371 -1 378 21 q 294 0 336 -1 q 201 1 253 1 q 110 0 150 1 q 28 -1 69 -1 q 28 42 24 21 q 97 51 75 44 q 126 78 119 57 q 133 144 133 99 l 133 814 q 132 878 133 854 q 119 917 131 903 q 88 938 108 932 q 21 949 67 944 q 21 986 17 967 q 133 1008 76 993 q 254 1049 190 1022 l 278 1040 q 276 972 276 1010 q 275 888 275 933 l 275 579 q 398 660 338 638 q 514 683 458 683 q 654 629 606 683 q 703 474 703 575 l 703 158 q 709 81 703 104 q 736 51 715 57 q 803 42 757 44 q 803 -1 806 21 q 722 0 761 -1 q 629 1 682 1 q 540 0 578 1 q 463 -1 501 -1 m 219 -143 l 611 -143 q 611 -212 615 -178 l 219 -212 q 219 -143 215 -178 z "},"ı":{"ha":414,"x_min":33,"x_max":389,"o":"m 385 -1 q 306 0 346 -1 q 217 1 265 1 q 126 0 172 1 q 38 -1 79 -1 q 38 42 33 21 q 107 51 85 44 q 136 78 129 57 q 143 144 143 99 l 143 456 q 139 536 143 510 q 114 573 135 563 q 42 590 93 583 q 42 626 38 610 q 156 655 100 638 q 263 690 211 672 l 286 682 q 284 601 285 639 q 283 531 283 564 l 283 158 q 290 81 283 104 q 317 51 296 57 q 385 42 339 44 q 385 -1 389 21 z "},"ì":{"ha":414,"x_min":29,"x_max":389,"o":"m 385 -1 q 306 0 346 -1 q 217 1 265 1 q 126 0 172 1 q 38 -1 79 -1 q 38 42 33 21 q 107 51 85 44 q 136 78 129 57 q 143 144 143 99 l 143 456 q 139 536 143 510 q 114 573 135 563 q 42 590 93 583 q 42 626 38 610 q 156 655 100 638 q 263 690 211 672 l 286 682 q 284 601 285 639 q 283 531 283 564 l 283 158 q 290 81 283 104 q 317 51 296 57 q 385 42 339 44 q 385 -1 389 21 m 29 1031 l 29 1036 q 132 1044 78 1044 q 179 1038 172 1044 l 247 765 q 226 761 239 763 q 207 761 214 760 l 29 1031 z "},"í":{"ha":414,"x_min":33,"x_max":389,"o":"m 385 -1 q 306 0 346 -1 q 217 1 265 1 q 126 0 172 1 q 38 -1 79 -1 q 38 42 33 21 q 107 51 85 44 q 136 78 129 57 q 143 144 143 99 l 143 456 q 139 536 143 510 q 114 573 135 563 q 42 590 93 583 q 42 626 38 610 q 156 655 100 638 q 263 690 211 672 l 286 682 q 284 601 285 639 q 283 531 283 564 l 283 158 q 290 81 283 104 q 317 51 296 57 q 385 42 339 44 q 385 -1 389 21 m 371 1036 l 371 1031 l 193 761 q 174 761 186 760 q 153 765 161 763 l 221 1038 q 268 1044 228 1044 q 371 1036 324 1044 z "},"î":{"ha":414,"x_min":-24,"x_max":422,"o":"m 385 -1 q 306 0 346 -1 q 217 1 265 1 q 126 0 172 1 q 38 -1 79 -1 q 38 42 33 21 q 107 51 85 44 q 136 78 129 57 q 143 144 143 99 l 143 456 q 139 536 143 510 q 114 573 135 563 q 42 590 93 583 q 42 626 38 610 q 156 655 100 638 q 263 690 211 672 l 286 682 q 284 601 285 639 q 283 531 283 564 l 283 158 q 290 81 283 104 q 317 51 296 57 q 385 42 339 44 q 385 -1 389 21 m 199 932 q 111 849 157 892 q 17 761 65 806 q -3 768 7 764 q -24 779 -14 772 q 62 908 17 836 q 139 1039 107 981 q 168 1043 153 1042 q 200 1044 183 1044 q 232 1043 217 1044 q 261 1039 247 1042 q 338 908 293 981 q 422 779 383 836 q 382 761 406 765 q 286 849 332 806 q 199 932 240 892 z "},"ĩ":{"ha":414,"x_min":-37,"x_max":450,"o":"m 385 -1 q 306 0 346 -1 q 217 1 265 1 q 126 0 172 1 q 38 -1 79 -1 q 38 42 33 21 q 107 51 85 44 q 136 78 129 57 q 143 144 143 99 l 143 456 q 139 536 143 510 q 114 573 135 563 q 42 590 93 583 q 42 626 38 610 q 156 655 100 638 q 263 690 211 672 l 286 682 q 284 601 285 639 q 283 531 283 564 l 283 158 q 290 81 283 104 q 317 51 296 57 q 385 42 339 44 q 385 -1 389 21 m 406 1008 q 429 1001 418 1006 q 450 993 440 997 q 379 865 422 910 q 281 819 336 819 q 240 826 263 819 q 190 850 218 833 q 141 878 165 865 q 90 892 117 892 q 7 811 40 892 q -37 826 -12 815 q 36 953 -7 907 q 135 999 79 999 q 174 992 153 999 q 224 968 196 985 q 274 940 249 954 q 324 925 300 925 q 406 1008 372 925 z "},"ï":{"ha":414,"x_min":-28,"x_max":426,"o":"m 385 -1 q 306 0 346 -1 q 217 1 265 1 q 126 0 172 1 q 38 -1 79 -1 q 38 42 33 21 q 107 51 85 44 q 136 78 129 57 q 143 144 143 99 l 143 456 q 139 536 143 510 q 114 573 135 563 q 42 590 93 583 q 42 626 38 610 q 156 655 100 638 q 263 690 211 672 l 286 682 q 284 601 285 639 q 283 531 283 564 l 283 158 q 290 81 283 104 q 317 51 296 57 q 385 42 339 44 q 385 -1 389 21 m -28 922 q -4 983 -28 958 q 58 1008 19 1008 q 121 983 97 1008 q 144 922 144 958 q 121 860 144 886 q 58 835 97 835 q -4 860 19 835 q -28 922 -28 886 m 254 922 q 278 983 254 958 q 340 1008 301 1008 q 403 983 379 1008 q 426 922 426 958 q 403 860 426 886 q 340 835 379 835 q 278 860 301 835 q 254 922 254 886 z "},"ī":{"ha":414,"x_min":0,"x_max":400,"o":"m 385 -1 q 306 0 346 -1 q 217 1 265 1 q 126 0 172 1 q 38 -1 79 -1 q 38 42 33 21 q 107 51 85 44 q 136 78 129 57 q 143 144 143 99 l 143 456 q 139 536 143 510 q 114 573 135 563 q 42 590 93 583 q 42 626 38 610 q 156 655 100 638 q 263 690 211 672 l 286 682 q 284 601 285 639 q 283 531 283 564 l 283 158 q 290 81 283 104 q 317 51 296 57 q 385 42 339 44 q 385 -1 389 21 m 4 918 l 396 918 q 396 849 400 883 l 4 849 q 4 918 0 883 z "},"ĭ":{"ha":414,"x_min":-3,"x_max":407,"o":"m 385 -1 q 306 0 346 -1 q 217 1 265 1 q 126 0 172 1 q 38 -1 79 -1 q 38 42 33 21 q 107 51 85 44 q 136 78 129 57 q 143 144 143 99 l 143 456 q 139 536 143 510 q 114 573 135 563 q 42 590 93 583 q 42 626 38 610 q 156 655 100 638 q 263 690 211 672 l 286 682 q 284 601 285 639 q 283 531 283 564 l 283 158 q 290 81 283 104 q 317 51 296 57 q 385 42 339 44 q 385 -1 389 21 m 39 1031 q 96 903 54 942 q 201 865 138 865 q 312 906 269 865 q 365 1031 354 947 q 407 1021 390 1028 q 342 822 396 890 q 200 753 289 753 q 60 822 111 753 q -3 1021 10 890 q 39 1031 14 1028 z "},"ȷ":{"ha":392,"x_min":-106,"x_max":275,"o":"m 251 690 l 275 682 q 273 606 274 643 q 272 529 272 568 q 272 474 272 518 q 273 369 272 429 q 274 248 274 310 q 275 138 275 186 q 275 71 275 90 q 267 -85 275 -24 q 240 -185 258 -146 q 190 -258 222 -225 q -4 -354 101 -354 q -83 -331 -60 -354 q -106 -283 -106 -308 q -86 -239 -106 -258 q -29 -219 -67 -219 q 28 -235 1 -219 q 72 -285 56 -251 q 108 -244 96 -274 q 126 -175 121 -214 q 132 -100 131 -136 q 133 -40 133 -64 q 133 40 133 -11 q 133 153 133 92 q 133 276 133 215 q 132 385 132 336 q 132 456 132 433 q 127 536 132 510 q 101 573 122 563 q 28 590 79 583 q 28 626 24 610 q 141 653 86 638 q 251 690 196 668 z "},"ḳ":{"ha":764,"x_min":19,"x_max":771,"o":"m 28 -1 q 26 10 26 4 q 26 21 26 15 q 26 31 26 26 q 28 42 26 36 q 97 51 75 44 q 126 78 119 57 q 133 144 133 99 l 133 840 q 126 905 133 883 q 94 935 118 926 q 21 949 69 944 q 19 958 19 954 q 19 967 19 963 q 19 976 19 972 q 21 986 19 981 q 135 1008 76 993 q 254 1049 193 1022 l 278 1040 q 276 971 276 1010 q 275 886 275 932 l 275 371 q 303 376 292 371 q 321 388 314 382 q 332 398 324 390 q 361 426 340 406 q 421 489 382 447 q 478 552 457 529 q 500 590 500 575 q 481 609 500 601 q 431 618 463 617 q 429 629 429 624 q 429 640 429 635 q 429 651 429 646 q 431 663 429 657 q 501 661 458 663 q 576 660 543 660 q 624 660 593 660 q 688 661 656 661 q 735 661 719 661 q 737 650 736 656 q 738 639 738 644 q 737 628 738 633 q 735 618 736 624 q 613 583 663 617 q 517 503 563 549 l 417 403 l 608 150 q 659 87 639 110 q 703 54 679 64 q 768 42 726 44 q 768 -1 771 22 q 715 0 750 -1 q 604 1 679 1 q 571 1 593 1 q 529 -1 549 1 q 513 41 529 14 q 486 81 496 68 q 465 110 482 88 q 426 165 449 133 q 379 228 403 196 q 336 286 356 261 q 308 319 321 307 q 275 331 294 331 l 275 158 q 280 81 275 104 q 303 51 285 57 q 361 42 322 44 q 361 -1 364 21 q 285 0 325 -1 q 200 1 246 1 q 113 0 156 1 q 28 -1 69 -1 m 290 -211 q 319 -143 290 -171 q 388 -115 347 -115 q 455 -143 426 -115 q 483 -210 483 -171 q 456 -276 483 -246 q 385 -306 428 -306 q 318 -278 346 -306 q 290 -211 290 -250 z "},"ḵ":{"ha":764,"x_min":19,"x_max":771,"o":"m 28 -1 q 26 10 26 4 q 26 21 26 15 q 26 31 26 26 q 28 42 26 36 q 97 51 75 44 q 126 78 119 57 q 133 144 133 99 l 133 840 q 126 905 133 883 q 94 935 118 926 q 21 949 69 944 q 19 958 19 954 q 19 967 19 963 q 19 976 19 972 q 21 986 19 981 q 135 1008 76 993 q 254 1049 193 1022 l 278 1040 q 276 971 276 1010 q 275 886 275 932 l 275 371 q 303 376 292 371 q 321 388 314 382 q 332 398 324 390 q 361 426 340 406 q 421 489 382 447 q 478 552 457 529 q 500 590 500 575 q 481 609 500 601 q 431 618 463 617 q 429 629 429 624 q 429 640 429 635 q 429 651 429 646 q 431 663 429 657 q 501 661 458 663 q 576 660 543 660 q 624 660 593 660 q 688 661 656 661 q 735 661 719 661 q 737 650 736 656 q 738 639 738 644 q 737 628 738 633 q 735 618 736 624 q 613 583 663 617 q 517 503 563 549 l 417 403 l 608 150 q 659 87 639 110 q 703 54 679 64 q 768 42 726 44 q 768 -1 771 22 q 715 0 750 -1 q 604 1 679 1 q 571 1 593 1 q 529 -1 549 1 q 513 41 529 14 q 486 81 496 68 q 465 110 482 88 q 426 165 449 133 q 379 228 403 196 q 336 286 356 261 q 308 319 321 307 q 275 331 294 331 l 275 158 q 280 81 275 104 q 303 51 285 57 q 361 42 322 44 q 361 -1 364 21 q 285 0 325 -1 q 200 1 246 1 q 113 0 156 1 q 28 -1 69 -1 m 192 -143 l 583 -143 q 583 -212 588 -178 l 192 -212 q 192 -143 188 -178 z "},"ĺ":{"ha":406,"x_min":17,"x_max":390,"o":"m 376 -1 q 294 0 336 -1 q 201 1 253 1 q 110 0 150 1 q 28 -1 69 -1 q 28 42 24 21 q 97 51 75 44 q 126 78 119 57 q 133 144 133 99 l 133 840 q 126 905 133 883 q 94 935 118 926 q 21 949 69 944 q 21 986 17 967 q 135 1008 76 993 q 254 1049 193 1022 l 278 1040 q 276 971 276 1010 q 275 886 275 932 l 275 158 q 281 81 275 104 q 309 51 288 57 q 376 42 331 44 q 376 -1 379 21 m 390 1214 l 390 1210 q 313 1169 360 1194 q 217 1115 267 1143 q 131 1063 168 1086 q 101 1096 115 1071 q 199 1203 149 1144 q 288 1307 249 1261 q 340 1277 310 1307 q 390 1214 369 1247 z "},"ḻ":{"ha":406,"x_min":0,"x_max":400,"o":"m 376 -1 q 294 0 336 -1 q 201 1 253 1 q 110 0 150 1 q 28 -1 69 -1 q 28 42 24 21 q 97 51 75 44 q 126 78 119 57 q 133 144 133 99 l 133 840 q 126 905 133 883 q 94 935 118 926 q 21 949 69 944 q 21 986 17 967 q 135 1008 76 993 q 254 1049 193 1022 l 278 1040 q 276 971 276 1010 q 275 886 275 932 l 275 158 q 281 81 275 104 q 309 51 288 57 q 376 42 331 44 q 376 -1 379 21 m 4 -143 l 396 -143 q 396 -212 400 -178 l 4 -212 q 4 -143 0 -178 z "},"ḷ":{"ha":406,"x_min":17,"x_max":379,"o":"m 376 -1 q 294 0 336 -1 q 201 1 253 1 q 110 0 150 1 q 28 -1 69 -1 q 28 42 24 21 q 97 51 75 44 q 126 78 119 57 q 133 144 133 99 l 133 840 q 126 905 133 883 q 94 935 118 926 q 21 949 69 944 q 21 986 17 967 q 135 1008 76 993 q 254 1049 193 1022 l 278 1040 q 276 971 276 1010 q 275 886 275 932 l 275 158 q 281 81 275 104 q 309 51 288 57 q 376 42 331 44 q 376 -1 379 21 m 103 -211 q 131 -143 103 -171 q 200 -115 160 -115 q 267 -143 239 -115 q 296 -210 296 -171 q 268 -276 296 -246 q 197 -306 240 -306 q 131 -278 158 -306 q 103 -211 103 -250 z "},"ṁ":{"ha":1244,"x_min":33,"x_max":1219,"o":"m 881 -1 q 881 42 876 21 q 943 51 922 44 q 972 78 964 57 q 979 144 979 99 l 979 425 q 955 549 979 507 q 856 590 931 590 q 697 521 763 590 q 700 474 700 499 l 700 158 q 706 81 700 104 q 733 51 713 57 q 797 42 754 44 q 797 -1 800 21 q 719 0 758 -1 q 628 1 681 1 q 538 0 576 1 q 465 -1 500 -1 q 465 42 461 21 q 526 51 506 44 q 553 78 546 57 q 560 144 560 99 l 560 425 q 536 549 560 507 q 436 590 513 590 q 283 519 349 590 l 283 158 q 290 81 283 104 q 317 51 296 57 q 383 42 339 44 q 383 -1 386 21 q 303 0 344 -1 q 210 1 263 1 q 119 0 160 1 q 38 -1 79 -1 q 38 42 33 21 q 107 51 85 44 q 136 78 129 57 q 143 144 143 99 l 143 456 q 138 536 143 510 q 112 573 133 563 q 39 590 90 583 q 39 626 35 610 q 151 653 97 638 q 258 690 206 668 l 282 682 l 282 579 q 517 683 394 683 q 632 651 593 683 q 686 572 671 619 q 808 656 746 629 q 935 683 871 683 q 1073 629 1026 683 q 1119 474 1119 575 l 1119 158 q 1125 81 1119 104 q 1151 51 1131 57 q 1215 42 1172 44 q 1215 -1 1219 21 q 1138 0 1176 -1 q 1047 1 1099 1 q 955 0 994 1 q 881 -1 915 -1 m 533 926 q 562 994 533 967 q 631 1022 590 1022 q 698 994 669 1022 q 726 928 726 967 q 699 862 726 892 q 628 832 671 832 q 561 860 589 832 q 533 926 533 888 z "},"ṃ":{"ha":1244,"x_min":33,"x_max":1219,"o":"m 881 -1 q 881 42 876 21 q 943 51 922 44 q 972 78 964 57 q 979 144 979 99 l 979 425 q 955 549 979 507 q 856 590 931 590 q 697 521 763 590 q 700 474 700 499 l 700 158 q 706 81 700 104 q 733 51 713 57 q 797 42 754 44 q 797 -1 800 21 q 719 0 758 -1 q 628 1 681 1 q 538 0 576 1 q 465 -1 500 -1 q 465 42 461 21 q 526 51 506 44 q 553 78 546 57 q 560 144 560 99 l 560 425 q 536 549 560 507 q 436 590 513 590 q 283 519 349 590 l 283 158 q 290 81 283 104 q 317 51 296 57 q 383 42 339 44 q 383 -1 386 21 q 303 0 344 -1 q 210 1 263 1 q 119 0 160 1 q 38 -1 79 -1 q 38 42 33 21 q 107 51 85 44 q 136 78 129 57 q 143 144 143 99 l 143 456 q 138 536 143 510 q 112 573 133 563 q 39 590 90 583 q 39 626 35 610 q 151 653 97 638 q 258 690 206 668 l 282 682 l 282 579 q 517 683 394 683 q 632 651 593 683 q 686 572 671 619 q 808 656 746 629 q 935 683 871 683 q 1073 629 1026 683 q 1119 474 1119 575 l 1119 158 q 1125 81 1119 104 q 1151 51 1131 57 q 1215 42 1172 44 q 1215 -1 1219 21 q 1138 0 1176 -1 q 1047 1 1099 1 q 955 0 994 1 q 881 -1 915 -1 m 533 -211 q 562 -143 533 -171 q 631 -115 590 -115 q 698 -143 669 -115 q 726 -210 726 -171 q 699 -276 726 -246 q 628 -306 671 -306 q 561 -278 589 -306 q 533 -211 533 -250 z "},"ñ":{"ha":838,"x_min":33,"x_max":815,"o":"m 472 -1 q 472 42 469 21 q 536 51 515 44 q 564 78 557 57 q 571 144 571 99 l 571 425 q 545 549 571 508 q 443 590 519 590 q 365 576 403 590 q 283 521 328 561 l 283 158 q 290 81 283 104 q 317 51 296 57 q 382 42 338 44 q 382 -1 385 21 q 301 0 343 -1 q 210 1 258 1 q 122 0 165 1 q 38 -1 79 -1 q 38 42 33 21 q 107 51 85 44 q 136 78 129 57 q 143 144 143 99 l 143 456 q 138 536 143 510 q 112 573 133 563 q 39 590 90 583 q 39 626 35 610 q 258 690 158 650 l 282 682 l 282 578 q 407 660 346 636 q 524 683 468 683 q 664 629 615 683 q 713 474 713 575 l 713 158 q 719 81 713 104 q 746 51 725 57 q 813 42 767 44 q 813 -1 815 21 q 731 0 771 -1 q 639 1 692 1 q 549 0 588 1 q 472 -1 511 -1 m 628 1008 q 651 1001 640 1006 q 672 993 663 997 q 601 865 644 910 q 503 819 558 819 q 463 826 485 819 q 413 850 440 833 q 363 878 388 865 q 313 892 339 892 q 229 811 263 892 q 185 826 210 815 q 258 953 215 907 q 357 999 301 999 q 397 992 375 999 q 446 968 418 985 q 497 940 471 954 q 546 925 522 925 q 628 1008 594 925 z "},"ṅ":{"ha":838,"x_min":33,"x_max":815,"o":"m 472 -1 q 472 42 469 21 q 536 51 515 44 q 564 78 557 57 q 571 144 571 99 l 571 425 q 545 549 571 508 q 443 590 519 590 q 365 576 403 590 q 283 521 328 561 l 283 158 q 290 81 283 104 q 317 51 296 57 q 382 42 338 44 q 382 -1 385 21 q 301 0 343 -1 q 210 1 258 1 q 122 0 165 1 q 38 -1 79 -1 q 38 42 33 21 q 107 51 85 44 q 136 78 129 57 q 143 144 143 99 l 143 456 q 138 536 143 510 q 112 573 133 563 q 39 590 90 583 q 39 626 35 610 q 258 690 158 650 l 282 682 l 282 578 q 407 660 346 636 q 524 683 468 683 q 664 629 615 683 q 713 474 713 575 l 713 158 q 719 81 713 104 q 746 51 725 57 q 813 42 767 44 q 813 -1 815 21 q 731 0 771 -1 q 639 1 692 1 q 549 0 588 1 q 472 -1 511 -1 m 325 926 q 353 994 325 967 q 422 1022 382 1022 q 490 994 461 1022 q 518 928 518 967 q 490 862 518 892 q 419 832 463 832 q 353 860 381 832 q 325 926 325 888 z "},"ṉ":{"ha":838,"x_min":33,"x_max":815,"o":"m 472 -1 q 472 42 469 21 q 536 51 515 44 q 564 78 557 57 q 571 144 571 99 l 571 425 q 545 549 571 508 q 443 590 519 590 q 365 576 403 590 q 283 521 328 561 l 283 158 q 290 81 283 104 q 317 51 296 57 q 382 42 338 44 q 382 -1 385 21 q 301 0 343 -1 q 210 1 258 1 q 122 0 165 1 q 38 -1 79 -1 q 38 42 33 21 q 107 51 85 44 q 136 78 129 57 q 143 144 143 99 l 143 456 q 138 536 143 510 q 112 573 133 563 q 39 590 90 583 q 39 626 35 610 q 258 690 158 650 l 282 682 l 282 578 q 407 660 346 636 q 524 683 468 683 q 664 629 615 683 q 713 474 713 575 l 713 158 q 719 81 713 104 q 746 51 725 57 q 813 42 767 44 q 813 -1 815 21 q 731 0 771 -1 q 639 1 692 1 q 549 0 588 1 q 472 -1 511 -1 m 226 -143 l 618 -143 q 618 -212 622 -178 l 226 -212 q 226 -143 222 -178 z "},"ṇ":{"ha":838,"x_min":33,"x_max":815,"o":"m 472 -1 q 472 42 469 21 q 536 51 515 44 q 564 78 557 57 q 571 144 571 99 l 571 425 q 545 549 571 508 q 443 590 519 590 q 365 576 403 590 q 283 521 328 561 l 283 158 q 290 81 283 104 q 317 51 296 57 q 382 42 338 44 q 382 -1 385 21 q 301 0 343 -1 q 210 1 258 1 q 122 0 165 1 q 38 -1 79 -1 q 38 42 33 21 q 107 51 85 44 q 136 78 129 57 q 143 144 143 99 l 143 456 q 138 536 143 510 q 112 573 133 563 q 39 590 90 583 q 39 626 35 610 q 258 690 158 650 l 282 682 l 282 578 q 407 660 346 636 q 524 683 468 683 q 664 629 615 683 q 713 474 713 575 l 713 158 q 719 81 713 104 q 746 51 725 57 q 813 42 767 44 q 813 -1 815 21 q 731 0 771 -1 q 639 1 692 1 q 549 0 588 1 q 472 -1 511 -1 m 325 -211 q 353 -143 325 -171 q 422 -115 382 -115 q 490 -143 461 -115 q 518 -210 518 -171 q 490 -276 518 -246 q 419 -306 463 -306 q 353 -278 381 -306 q 325 -211 325 -250 z "},"ņ":{"ha":838,"x_min":33,"x_max":815,"o":"m 472 -1 q 472 42 469 21 q 536 51 515 44 q 564 78 557 57 q 571 144 571 99 l 571 425 q 545 549 571 508 q 443 590 519 590 q 365 576 403 590 q 283 521 328 561 l 283 158 q 290 81 283 104 q 317 51 296 57 q 382 42 338 44 q 382 -1 385 21 q 301 0 343 -1 q 210 1 258 1 q 122 0 165 1 q 38 -1 79 -1 q 38 42 33 21 q 107 51 85 44 q 136 78 129 57 q 143 144 143 99 l 143 456 q 138 536 143 510 q 112 573 133 563 q 39 590 90 583 q 39 626 35 610 q 258 690 158 650 l 282 682 l 282 578 q 407 660 346 636 q 524 683 468 683 q 664 629 615 683 q 713 474 713 575 l 713 158 q 719 81 713 104 q 746 51 725 57 q 813 42 767 44 q 813 -1 815 21 q 731 0 771 -1 q 639 1 692 1 q 549 0 588 1 q 472 -1 511 -1 m 340 -328 q 433 -286 404 -312 q 463 -224 463 -260 q 457 -190 463 -207 q 400 -211 431 -211 q 352 -192 372 -211 q 332 -140 332 -174 q 357 -83 332 -104 q 419 -61 382 -61 q 501 -97 471 -61 q 531 -190 531 -133 q 483 -307 531 -261 q 351 -371 436 -353 q 344 -349 347 -360 q 340 -328 342 -339 z "},"ò":{"ha":793,"x_min":54,"x_max":738,"o":"m 390 -17 q 213 27 289 -17 q 96 148 138 71 q 54 325 54 225 q 98 514 54 433 q 221 639 142 594 q 403 683 300 683 q 579 639 504 683 q 696 517 654 594 q 738 340 738 439 q 694 158 738 239 q 572 30 650 76 q 390 -17 494 -17 m 211 342 q 258 117 211 200 q 397 35 304 35 q 533 113 486 35 q 581 324 581 192 q 533 547 581 464 q 396 631 486 631 q 259 554 307 631 q 211 342 211 478 m 225 1031 l 225 1036 q 328 1044 274 1044 q 375 1038 368 1044 l 443 765 q 422 761 435 763 q 403 761 410 760 l 225 1031 z "},"ó":{"ha":793,"x_min":54,"x_max":738,"o":"m 390 -17 q 213 27 289 -17 q 96 148 138 71 q 54 325 54 225 q 98 514 54 433 q 221 639 142 594 q 403 683 300 683 q 579 639 504 683 q 696 517 654 594 q 738 340 738 439 q 694 158 738 239 q 572 30 650 76 q 390 -17 494 -17 m 211 342 q 258 117 211 200 q 397 35 304 35 q 533 113 486 35 q 581 324 581 192 q 533 547 581 464 q 396 631 486 631 q 259 554 307 631 q 211 342 211 478 m 567 1036 l 567 1031 l 389 761 q 369 761 382 760 q 349 765 357 763 l 417 1038 q 464 1044 424 1044 q 567 1036 519 1044 z "},"ô":{"ha":793,"x_min":54,"x_max":738,"o":"m 390 -17 q 213 27 289 -17 q 96 148 138 71 q 54 325 54 225 q 98 514 54 433 q 221 639 142 594 q 403 683 300 683 q 579 639 504 683 q 696 517 654 594 q 738 340 738 439 q 694 158 738 239 q 572 30 650 76 q 390 -17 494 -17 m 211 342 q 258 117 211 200 q 397 35 304 35 q 533 113 486 35 q 581 324 581 192 q 533 547 581 464 q 396 631 486 631 q 259 554 307 631 q 211 342 211 478 m 394 932 q 307 849 353 892 q 213 761 261 806 q 192 768 203 764 q 172 779 182 772 q 258 908 213 836 q 335 1039 303 981 q 364 1043 349 1042 q 396 1044 379 1044 q 428 1043 413 1044 q 457 1039 443 1042 q 534 908 489 981 q 618 779 579 836 q 578 761 601 765 q 482 849 528 806 q 394 932 436 892 z "},"õ":{"ha":793,"x_min":54,"x_max":738,"o":"m 390 -17 q 213 27 289 -17 q 96 148 138 71 q 54 325 54 225 q 98 514 54 433 q 221 639 142 594 q 403 683 300 683 q 579 639 504 683 q 696 517 654 594 q 738 340 738 439 q 694 158 738 239 q 572 30 650 76 q 390 -17 494 -17 m 211 342 q 258 117 211 200 q 397 35 304 35 q 533 113 486 35 q 581 324 581 192 q 533 547 581 464 q 396 631 486 631 q 259 554 307 631 q 211 342 211 478 m 601 1008 q 625 1001 614 1006 q 646 993 636 997 q 575 865 618 910 q 476 819 532 819 q 436 826 458 819 q 386 850 414 833 q 337 878 361 865 q 286 892 313 892 q 203 811 236 892 q 158 826 183 815 q 232 953 189 907 q 331 999 275 999 q 370 992 349 999 q 419 968 392 985 q 470 940 444 954 q 519 925 496 925 q 601 1008 568 925 z "},"ṍ":{"ha":793,"x_min":54,"x_max":738,"o":"m 390 -17 q 213 27 289 -17 q 96 148 138 71 q 54 325 54 225 q 98 514 54 433 q 221 639 142 594 q 403 683 300 683 q 579 639 504 683 q 696 517 654 594 q 738 340 738 439 q 694 158 738 239 q 572 30 650 76 q 390 -17 494 -17 m 211 342 q 258 117 211 200 q 397 35 304 35 q 533 113 486 35 q 581 324 581 192 q 533 547 581 464 q 396 631 486 631 q 259 554 307 631 q 211 342 211 478 m 601 967 q 625 960 614 964 q 646 951 636 956 q 575 823 618 868 q 476 778 532 778 q 436 785 458 778 q 386 808 414 792 q 337 837 361 824 q 286 850 313 850 q 203 769 236 850 q 158 785 183 774 q 232 911 189 865 q 331 957 275 957 q 370 950 349 957 q 419 926 392 943 q 470 898 444 913 q 519 883 496 883 q 601 967 568 883 m 567 1286 l 567 1281 l 389 1011 q 369 1011 382 1010 q 349 1015 357 1013 l 417 1288 q 464 1294 424 1294 q 567 1286 519 1294 z "},"ö":{"ha":793,"x_min":54,"x_max":738,"o":"m 390 -17 q 213 27 289 -17 q 96 148 138 71 q 54 325 54 225 q 98 514 54 433 q 221 639 142 594 q 403 683 300 683 q 579 639 504 683 q 696 517 654 594 q 738 340 738 439 q 694 158 738 239 q 572 30 650 76 q 390 -17 494 -17 m 211 342 q 258 117 211 200 q 397 35 304 35 q 533 113 486 35 q 581 324 581 192 q 533 547 581 464 q 396 631 486 631 q 259 554 307 631 q 211 342 211 478 m 168 922 q 192 983 168 958 q 254 1008 215 1008 q 317 983 293 1008 q 340 922 340 958 q 317 860 340 886 q 254 835 293 835 q 192 860 215 835 q 168 922 168 886 m 450 922 q 474 983 450 958 q 536 1008 497 1008 q 599 983 575 1008 q 622 922 622 958 q 599 860 622 886 q 536 835 575 835 q 474 860 497 835 q 450 922 450 886 z "},"ō":{"ha":793,"x_min":54,"x_max":738,"o":"m 390 -17 q 213 27 289 -17 q 96 148 138 71 q 54 325 54 225 q 98 514 54 433 q 221 639 142 594 q 403 683 300 683 q 579 639 504 683 q 696 517 654 594 q 738 340 738 439 q 694 158 738 239 q 572 30 650 76 q 390 -17 494 -17 m 211 342 q 258 117 211 200 q 397 35 304 35 q 533 113 486 35 q 581 324 581 192 q 533 547 581 464 q 396 631 486 631 q 259 554 307 631 q 211 342 211 478 m 200 918 l 592 918 q 592 849 596 883 l 200 849 q 200 918 196 883 z "},"ŏ":{"ha":793,"x_min":54,"x_max":738,"o":"m 390 -17 q 213 27 289 -17 q 96 148 138 71 q 54 325 54 225 q 98 514 54 433 q 221 639 142 594 q 403 683 300 683 q 579 639 504 683 q 696 517 654 594 q 738 340 738 439 q 694 158 738 239 q 572 30 650 76 q 390 -17 494 -17 m 211 342 q 258 117 211 200 q 397 35 304 35 q 533 113 486 35 q 581 324 581 192 q 533 547 581 464 q 396 631 486 631 q 259 554 307 631 q 211 342 211 478 m 235 1031 q 292 903 250 942 q 397 865 333 865 q 508 906 465 865 q 561 1031 550 947 q 603 1021 586 1028 q 538 822 592 890 q 396 753 485 753 q 256 822 307 753 q 193 1021 206 890 q 235 1031 210 1028 z "},"ø":{"ha":793,"x_min":47,"x_max":743,"o":"m 743 653 l 661 568 q 738 340 738 475 q 694 158 738 239 q 572 30 650 76 q 390 -17 494 -17 q 266 3 322 -17 q 167 58 210 22 l 88 -24 q 67 -5 78 -14 q 47 14 56 4 l 129 99 q 54 325 54 189 q 98 514 54 433 q 221 639 142 594 q 403 683 300 683 q 524 663 468 683 q 622 608 579 643 l 703 692 q 743 653 726 676 m 397 35 q 533 113 486 35 q 581 324 581 192 q 564 468 581 406 l 246 140 q 307 62 269 89 q 397 35 344 35 m 226 199 l 544 528 q 483 603 521 576 q 396 631 446 631 q 259 554 307 631 q 211 342 211 478 q 226 199 211 261 z "},"œ":{"ha":1179,"x_min":54,"x_max":1124,"o":"m 379 -17 q 208 27 281 -17 q 94 148 135 71 q 54 325 54 225 q 97 514 54 433 q 216 639 140 594 q 392 683 292 683 q 531 652 468 683 q 635 567 593 621 q 732 651 674 619 q 868 683 790 683 q 1053 610 986 683 q 1119 422 1119 538 q 1119 398 1119 408 q 1117 381 1118 388 l 690 385 q 690 379 690 382 q 751 160 690 238 q 922 83 813 83 q 1103 144 1013 83 q 1124 113 1117 128 q 857 -17 1010 -17 q 722 13 779 -17 q 626 96 664 43 q 520 13 583 43 q 379 -17 457 -17 m 386 35 q 514 113 469 35 q 558 324 558 192 q 515 547 558 464 q 385 631 471 631 q 256 554 300 631 q 211 342 211 478 q 255 117 211 200 q 386 35 299 35 m 693 438 l 971 442 q 972 449 972 444 q 972 456 972 454 q 941 581 972 531 q 849 631 910 631 q 747 580 790 631 q 693 438 704 529 z "},"ŕ":{"ha":569,"x_min":33,"x_max":576,"o":"m 38 -1 q 38 42 33 21 q 107 51 85 44 q 136 78 129 57 q 143 144 143 99 l 143 456 q 138 536 143 510 q 112 573 133 563 q 39 590 90 583 q 39 626 35 610 q 147 652 94 638 q 258 690 200 667 l 282 682 l 282 560 q 481 683 379 683 q 553 658 529 683 q 576 600 576 632 q 551 542 576 563 q 494 522 526 522 q 442 536 468 522 q 404 579 417 550 q 320 542 357 579 q 283 457 283 506 l 283 158 q 290 81 283 104 q 323 51 296 57 q 411 42 350 44 q 411 -1 414 22 q 314 0 364 -1 q 211 1 264 1 q 120 0 160 1 q 38 -1 81 -1 m 475 1036 l 475 1031 l 297 761 q 278 761 290 760 q 257 765 265 763 l 325 1038 q 372 1044 332 1044 q 475 1036 428 1044 z "},"ṙ":{"ha":569,"x_min":33,"x_max":576,"o":"m 38 -1 q 38 42 33 21 q 107 51 85 44 q 136 78 129 57 q 143 144 143 99 l 143 456 q 138 536 143 510 q 112 573 133 563 q 39 590 90 583 q 39 626 35 610 q 147 652 94 638 q 258 690 200 667 l 282 682 l 282 560 q 481 683 379 683 q 553 658 529 683 q 576 600 576 632 q 551 542 576 563 q 494 522 526 522 q 442 536 468 522 q 404 579 417 550 q 320 542 357 579 q 283 457 283 506 l 283 158 q 290 81 283 104 q 323 51 296 57 q 411 42 350 44 q 411 -1 414 22 q 314 0 364 -1 q 211 1 264 1 q 120 0 160 1 q 38 -1 81 -1 m 207 926 q 235 994 207 967 q 304 1022 264 1022 q 372 994 343 1022 q 400 928 400 967 q 372 862 400 892 q 301 832 344 832 q 235 860 263 832 q 207 926 207 888 z "},"ṟ":{"ha":569,"x_min":21,"x_max":576,"o":"m 38 -1 q 38 42 33 21 q 107 51 85 44 q 136 78 129 57 q 143 144 143 99 l 143 456 q 138 536 143 510 q 112 573 133 563 q 39 590 90 583 q 39 626 35 610 q 147 652 94 638 q 258 690 200 667 l 282 682 l 282 560 q 481 683 379 683 q 553 658 529 683 q 576 600 576 632 q 551 542 576 563 q 494 522 526 522 q 442 536 468 522 q 404 579 417 550 q 320 542 357 579 q 283 457 283 506 l 283 158 q 290 81 283 104 q 323 51 296 57 q 411 42 350 44 q 411 -1 414 22 q 314 0 364 -1 q 211 1 264 1 q 120 0 160 1 q 38 -1 81 -1 m 25 -143 l 417 -143 q 417 -212 421 -178 l 25 -212 q 25 -143 21 -178 z "},"ṛ":{"ha":569,"x_min":33,"x_max":576,"o":"m 38 -1 q 38 42 33 21 q 107 51 85 44 q 136 78 129 57 q 143 144 143 99 l 143 456 q 138 536 143 510 q 112 573 133 563 q 39 590 90 583 q 39 626 35 610 q 147 652 94 638 q 258 690 200 667 l 282 682 l 282 560 q 481 683 379 683 q 553 658 529 683 q 576 600 576 632 q 551 542 576 563 q 494 522 526 522 q 442 536 468 522 q 404 579 417 550 q 320 542 357 579 q 283 457 283 506 l 283 158 q 290 81 283 104 q 323 51 296 57 q 411 42 350 44 q 411 -1 414 22 q 314 0 364 -1 q 211 1 264 1 q 120 0 160 1 q 38 -1 81 -1 m 124 -211 q 152 -143 124 -171 q 221 -115 181 -115 q 288 -143 260 -115 q 317 -210 317 -171 q 289 -276 317 -246 q 218 -306 261 -306 q 151 -278 179 -306 q 124 -211 124 -250 z "},"ṝ":{"ha":569,"x_min":33,"x_max":576,"o":"m 38 -1 q 38 42 33 21 q 107 51 85 44 q 136 78 129 57 q 143 144 143 99 l 143 456 q 138 536 143 510 q 112 573 133 563 q 39 590 90 583 q 39 626 35 610 q 147 652 94 638 q 258 690 200 667 l 282 682 l 282 560 q 481 683 379 683 q 553 658 529 683 q 576 600 576 632 q 551 542 576 563 q 494 522 526 522 q 442 536 468 522 q 404 579 417 550 q 320 542 357 579 q 283 457 283 506 l 283 158 q 290 81 283 104 q 323 51 296 57 q 411 42 350 44 q 411 -1 414 22 q 314 0 364 -1 q 211 1 264 1 q 120 0 160 1 q 38 -1 81 -1 m 124 -211 q 152 -143 124 -171 q 221 -115 181 -115 q 288 -143 260 -115 q 317 -210 317 -171 q 289 -276 317 -246 q 218 -306 261 -306 q 151 -278 179 -306 q 124 -211 124 -250 m 108 918 l 500 918 q 500 849 504 883 l 108 849 q 108 918 104 883 z "},"ś":{"ha":589,"x_min":56,"x_max":536,"o":"m 101 219 q 168 80 122 128 q 286 32 214 32 q 378 58 340 32 q 415 139 415 83 q 395 206 415 181 q 340 248 375 231 q 260 283 304 265 q 163 328 208 304 q 90 390 118 353 q 61 485 61 426 q 97 595 61 551 q 188 661 132 639 q 308 683 244 683 q 372 679 340 683 q 407 675 404 675 q 458 670 435 671 q 483 669 482 669 q 490 669 485 669 q 503 671 494 669 q 504 581 503 626 q 510 483 506 535 q 504 483 508 483 q 481 481 492 482 q 461 482 471 481 q 408 595 443 560 q 308 631 372 631 q 217 606 251 631 q 183 536 183 581 q 206 477 183 500 q 260 439 228 454 q 321 413 292 424 q 424 366 375 392 q 505 300 474 340 q 536 192 536 260 q 499 73 536 119 q 406 5 463 26 q 286 -17 349 -17 q 215 -11 250 -17 q 176 -6 179 -6 q 153 -3 174 -6 q 109 3 133 0 q 67 6 85 6 q 63 101 67 49 q 56 218 60 154 q 63 218 58 218 q 84 220 75 219 q 101 219 93 221 m 481 1036 l 481 1031 l 303 761 q 283 761 296 760 q 263 765 271 763 l 331 1038 q 378 1044 338 1044 q 481 1036 433 1044 z "},"š":{"ha":589,"x_min":56,"x_max":536,"o":"m 101 219 q 168 80 122 128 q 286 32 214 32 q 378 58 340 32 q 415 139 415 83 q 395 206 415 181 q 340 248 375 231 q 260 283 304 265 q 163 328 208 304 q 90 390 118 353 q 61 485 61 426 q 97 595 61 551 q 188 661 132 639 q 308 683 244 683 q 372 679 340 683 q 407 675 404 675 q 458 670 435 671 q 483 669 482 669 q 490 669 485 669 q 503 671 494 669 q 504 581 503 626 q 510 483 506 535 q 504 483 508 483 q 481 481 492 482 q 461 482 471 481 q 408 595 443 560 q 308 631 372 631 q 217 606 251 631 q 183 536 183 581 q 206 477 183 500 q 260 439 228 454 q 321 413 292 424 q 424 366 375 392 q 505 300 474 340 q 536 192 536 260 q 499 73 536 119 q 406 5 463 26 q 286 -17 349 -17 q 215 -11 250 -17 q 176 -6 179 -6 q 153 -3 174 -6 q 109 3 133 0 q 67 6 85 6 q 63 101 67 49 q 56 218 60 154 q 63 218 58 218 q 84 220 75 219 q 101 219 93 221 m 310 874 q 397 957 351 914 q 492 1044 443 1000 q 512 1038 501 1043 q 532 1026 522 1033 q 447 897 492 969 q 369 767 401 825 q 340 763 356 764 q 308 761 325 761 q 276 763 292 761 q 247 767 261 764 q 171 897 215 825 q 86 1026 126 969 q 126 1044 103 1040 q 222 957 176 1000 q 310 874 268 914 z "},"ṣ":{"ha":589,"x_min":56,"x_max":536,"o":"m 101 219 q 168 80 122 128 q 286 32 214 32 q 378 58 340 32 q 415 139 415 83 q 395 206 415 181 q 340 248 375 231 q 260 283 304 265 q 163 328 208 304 q 90 390 118 353 q 61 485 61 426 q 97 595 61 551 q 188 661 132 639 q 308 683 244 683 q 372 679 340 683 q 407 675 404 675 q 458 670 435 671 q 483 669 482 669 q 490 669 485 669 q 503 671 494 669 q 504 581 503 626 q 510 483 506 535 q 504 483 508 483 q 481 481 492 482 q 461 482 471 481 q 408 595 443 560 q 308 631 372 631 q 217 606 251 631 q 183 536 183 581 q 206 477 183 500 q 260 439 228 454 q 321 413 292 424 q 424 366 375 392 q 505 300 474 340 q 536 192 536 260 q 499 73 536 119 q 406 5 463 26 q 286 -17 349 -17 q 215 -11 250 -17 q 176 -6 179 -6 q 153 -3 174 -6 q 109 3 133 0 q 67 6 85 6 q 63 101 67 49 q 56 218 60 154 q 63 218 58 218 q 84 220 75 219 q 101 219 93 221 m 185 -211 q 213 -143 185 -171 q 282 -115 242 -115 q 349 -143 321 -115 q 378 -210 378 -171 q 350 -276 378 -246 q 279 -306 322 -306 q 213 -278 240 -306 q 185 -211 185 -250 z "},"ß":{"ha":835,"x_min":24,"x_max":782,"o":"m 143 144 l 143 593 l 28 593 q 28 631 24 614 q 104 646 81 639 q 135 665 128 653 q 144 704 143 678 q 174 865 150 803 q 243 968 197 926 q 346 1027 286 1006 q 476 1049 406 1049 q 592 1029 538 1049 q 680 968 646 1010 q 714 861 714 926 q 694 773 714 807 q 643 715 674 739 q 582 670 613 692 q 531 622 551 649 q 511 553 511 594 q 522 492 511 517 q 560 447 532 468 q 639 396 588 426 q 708 351 675 375 q 761 291 740 326 q 782 200 782 256 q 751 90 782 138 q 669 14 721 42 q 553 -14 617 -14 q 468 -1 514 -14 q 390 40 422 13 q 358 108 358 67 q 376 157 358 140 q 421 174 394 174 q 490 136 463 174 q 517 43 517 99 q 564 32 536 32 q 631 61 604 32 q 658 138 658 90 q 622 231 658 199 q 529 296 586 263 q 459 343 493 318 q 403 405 425 368 q 382 497 382 442 q 401 581 382 549 q 451 638 421 614 q 510 687 481 661 q 558 750 539 713 q 578 847 578 788 q 545 956 578 915 q 449 996 513 996 q 324 928 367 996 q 285 707 285 864 l 285 165 q 287 73 285 113 q 290 6 289 33 l 285 0 q 249 1 268 1 q 222 1 231 1 q 146 1 175 1 q 93 -1 117 0 q 38 -1 69 -1 q 38 42 35 21 q 108 51 86 44 q 137 78 131 57 q 143 144 143 99 z "},"ṭ":{"ha":503,"x_min":19,"x_max":489,"o":"m 304 -17 q 172 23 221 -17 q 124 138 124 63 q 126 374 124 260 q 129 593 128 488 l 24 593 q 24 631 19 614 q 231 821 161 689 q 253 820 242 821 q 272 818 264 819 q 270 742 271 782 q 268 657 269 701 l 479 657 q 479 593 483 626 l 268 593 q 265 388 265 496 q 264 172 264 281 q 381 60 264 60 q 474 86 431 60 q 489 44 486 69 q 304 -17 407 -17 m 193 -211 q 222 -143 193 -171 q 290 -115 250 -115 q 358 -143 329 -115 q 386 -210 386 -171 q 358 -276 386 -246 q 288 -306 331 -306 q 221 -278 249 -306 q 193 -211 193 -250 z "},"ṯ":{"ha":503,"x_min":19,"x_max":490,"o":"m 304 -17 q 172 23 221 -17 q 124 138 124 63 q 126 374 124 260 q 129 593 128 488 l 24 593 q 24 631 19 614 q 231 821 161 689 q 253 820 242 821 q 272 818 264 819 q 270 742 271 782 q 268 657 269 701 l 479 657 q 479 593 483 626 l 268 593 q 265 388 265 496 q 264 172 264 281 q 381 60 264 60 q 474 86 431 60 q 489 44 486 69 q 304 -17 407 -17 m 94 -143 l 486 -143 q 486 -212 490 -178 l 94 -212 q 94 -143 90 -178 z "},"ù":{"ha":810,"x_min":14,"x_max":789,"o":"m 314 -17 q 174 37 224 -17 q 125 192 125 90 l 125 472 q 120 553 125 526 q 94 590 115 579 q 21 608 72 601 q 21 643 14 626 q 135 661 81 651 q 246 685 190 671 l 267 675 q 265 594 265 632 q 264 522 264 556 l 264 242 q 290 117 264 158 q 390 76 315 76 q 469 95 432 76 q 539 150 506 114 l 539 472 q 534 553 539 526 q 508 590 529 579 q 435 608 486 601 q 435 643 431 626 q 549 661 494 651 q 661 685 604 671 l 682 675 q 680 594 681 632 q 679 522 679 556 l 679 163 q 684 100 679 121 q 712 70 689 79 q 788 56 735 61 q 788 21 789 39 q 674 7 728 15 q 568 -14 619 -1 l 546 -4 l 543 93 q 314 -17 428 -17 m 224 1031 l 224 1036 q 326 1044 272 1044 q 374 1038 367 1044 l 442 765 q 421 761 433 763 q 401 761 408 760 l 224 1031 z "},"ú":{"ha":810,"x_min":14,"x_max":789,"o":"m 314 -17 q 174 37 224 -17 q 125 192 125 90 l 125 472 q 120 553 125 526 q 94 590 115 579 q 21 608 72 601 q 21 643 14 626 q 135 661 81 651 q 246 685 190 671 l 267 675 q 265 594 265 632 q 264 522 264 556 l 264 242 q 290 117 264 158 q 390 76 315 76 q 469 95 432 76 q 539 150 506 114 l 539 472 q 534 553 539 526 q 508 590 529 579 q 435 608 486 601 q 435 643 431 626 q 549 661 494 651 q 661 685 604 671 l 682 675 q 680 594 681 632 q 679 522 679 556 l 679 163 q 684 100 679 121 q 712 70 689 79 q 788 56 735 61 q 788 21 789 39 q 674 7 728 15 q 568 -14 619 -1 l 546 -4 l 543 93 q 314 -17 428 -17 m 565 1036 l 565 1031 l 388 761 q 368 761 381 760 q 347 765 356 763 l 415 1038 q 463 1044 422 1044 q 565 1036 518 1044 z "},"û":{"ha":810,"x_min":14,"x_max":789,"o":"m 314 -17 q 174 37 224 -17 q 125 192 125 90 l 125 472 q 120 553 125 526 q 94 590 115 579 q 21 608 72 601 q 21 643 14 626 q 135 661 81 651 q 246 685 190 671 l 267 675 q 265 594 265 632 q 264 522 264 556 l 264 242 q 290 117 264 158 q 390 76 315 76 q 469 95 432 76 q 539 150 506 114 l 539 472 q 534 553 539 526 q 508 590 529 579 q 435 608 486 601 q 435 643 431 626 q 549 661 494 651 q 661 685 604 671 l 682 675 q 680 594 681 632 q 679 522 679 556 l 679 163 q 684 100 679 121 q 712 70 689 79 q 788 56 735 61 q 788 21 789 39 q 674 7 728 15 q 568 -14 619 -1 l 546 -4 l 543 93 q 314 -17 428 -17 m 393 932 q 306 849 351 892 q 211 761 260 806 q 191 768 201 764 q 171 779 181 772 q 256 908 211 836 q 333 1039 301 981 q 363 1043 347 1042 q 394 1044 378 1044 q 426 1043 411 1044 q 456 1039 442 1042 q 533 908 488 981 q 617 779 578 836 q 576 761 600 765 q 481 849 526 806 q 393 932 435 892 z "},"ũ":{"ha":810,"x_min":14,"x_max":789,"o":"m 314 -17 q 174 37 224 -17 q 125 192 125 90 l 125 472 q 120 553 125 526 q 94 590 115 579 q 21 608 72 601 q 21 643 14 626 q 135 661 81 651 q 246 685 190 671 l 267 675 q 265 594 265 632 q 264 522 264 556 l 264 242 q 290 117 264 158 q 390 76 315 76 q 469 95 432 76 q 539 150 506 114 l 539 472 q 534 553 539 526 q 508 590 529 579 q 435 608 486 601 q 435 643 431 626 q 549 661 494 651 q 661 685 604 671 l 682 675 q 680 594 681 632 q 679 522 679 556 l 679 163 q 684 100 679 121 q 712 70 689 79 q 788 56 735 61 q 788 21 789 39 q 674 7 728 15 q 568 -14 619 -1 l 546 -4 l 543 93 q 314 -17 428 -17 m 600 1008 q 624 1001 613 1006 q 644 993 635 997 q 574 865 617 910 q 475 819 531 819 q 435 826 457 819 q 385 850 413 833 q 335 878 360 865 q 285 892 311 892 q 201 811 235 892 q 157 826 182 815 q 231 953 188 907 q 329 999 274 999 q 369 992 347 999 q 418 968 390 985 q 469 940 443 954 q 518 925 494 925 q 600 1008 567 925 z "},"ṹ":{"ha":810,"x_min":14,"x_max":789,"o":"m 314 -17 q 174 37 224 -17 q 125 192 125 90 l 125 472 q 120 553 125 526 q 94 590 115 579 q 21 608 72 601 q 21 643 14 626 q 135 661 81 651 q 246 685 190 671 l 267 675 q 265 594 265 632 q 264 522 264 556 l 264 242 q 290 117 264 158 q 390 76 315 76 q 469 95 432 76 q 539 150 506 114 l 539 472 q 534 553 539 526 q 508 590 529 579 q 435 608 486 601 q 435 643 431 626 q 549 661 494 651 q 661 685 604 671 l 682 675 q 680 594 681 632 q 679 522 679 556 l 679 163 q 684 100 679 121 q 712 70 689 79 q 788 56 735 61 q 788 21 789 39 q 674 7 728 15 q 568 -14 619 -1 l 546 -4 l 543 93 q 314 -17 428 -17 m 600 967 q 624 960 613 964 q 644 951 635 956 q 574 823 617 868 q 475 778 531 778 q 435 785 457 778 q 385 808 413 792 q 335 837 360 824 q 285 850 311 850 q 201 769 235 850 q 157 785 182 774 q 231 911 188 865 q 329 957 274 957 q 369 950 347 957 q 418 926 390 943 q 469 898 443 913 q 518 883 494 883 q 600 967 567 883 m 565 1286 l 565 1281 l 388 1011 q 368 1011 381 1010 q 347 1015 356 1013 l 415 1288 q 463 1294 422 1294 q 565 1286 518 1294 z "},"ü":{"ha":810,"x_min":14,"x_max":789,"o":"m 314 -17 q 174 37 224 -17 q 125 192 125 90 l 125 472 q 120 553 125 526 q 94 590 115 579 q 21 608 72 601 q 21 643 14 626 q 135 661 81 651 q 246 685 190 671 l 267 675 q 265 594 265 632 q 264 522 264 556 l 264 242 q 290 117 264 158 q 390 76 315 76 q 469 95 432 76 q 539 150 506 114 l 539 472 q 534 553 539 526 q 508 590 529 579 q 435 608 486 601 q 435 643 431 626 q 549 661 494 651 q 661 685 604 671 l 682 675 q 680 594 681 632 q 679 522 679 556 l 679 163 q 684 100 679 121 q 712 70 689 79 q 788 56 735 61 q 788 21 789 39 q 674 7 728 15 q 568 -14 619 -1 l 546 -4 l 543 93 q 314 -17 428 -17 m 167 922 q 190 983 167 958 q 253 1008 214 1008 q 315 983 292 1008 q 339 922 339 958 q 315 860 339 886 q 253 835 292 835 q 190 860 214 835 q 167 922 167 886 m 449 922 q 472 983 449 958 q 535 1008 496 1008 q 597 983 574 1008 q 621 922 621 958 q 597 860 621 886 q 535 835 574 835 q 472 860 496 835 q 449 922 449 886 z "},"ū":{"ha":810,"x_min":14,"x_max":789,"o":"m 314 -17 q 174 37 224 -17 q 125 192 125 90 l 125 472 q 120 553 125 526 q 94 590 115 579 q 21 608 72 601 q 21 643 14 626 q 135 661 81 651 q 246 685 190 671 l 267 675 q 265 594 265 632 q 264 522 264 556 l 264 242 q 290 117 264 158 q 390 76 315 76 q 469 95 432 76 q 539 150 506 114 l 539 472 q 534 553 539 526 q 508 590 529 579 q 435 608 486 601 q 435 643 431 626 q 549 661 494 651 q 661 685 604 671 l 682 675 q 680 594 681 632 q 679 522 679 556 l 679 163 q 684 100 679 121 q 712 70 689 79 q 788 56 735 61 q 788 21 789 39 q 674 7 728 15 q 568 -14 619 -1 l 546 -4 l 543 93 q 314 -17 428 -17 m 199 918 l 590 918 q 590 849 594 883 l 199 849 q 199 918 194 883 z "},"ŭ":{"ha":810,"x_min":14,"x_max":789,"o":"m 314 -17 q 174 37 224 -17 q 125 192 125 90 l 125 472 q 120 553 125 526 q 94 590 115 579 q 21 608 72 601 q 21 643 14 626 q 135 661 81 651 q 246 685 190 671 l 267 675 q 265 594 265 632 q 264 522 264 556 l 264 242 q 290 117 264 158 q 390 76 315 76 q 469 95 432 76 q 539 150 506 114 l 539 472 q 534 553 539 526 q 508 590 529 579 q 435 608 486 601 q 435 643 431 626 q 549 661 494 651 q 661 685 604 671 l 682 675 q 680 594 681 632 q 679 522 679 556 l 679 163 q 684 100 679 121 q 712 70 689 79 q 788 56 735 61 q 788 21 789 39 q 674 7 728 15 q 568 -14 619 -1 l 546 -4 l 543 93 q 314 -17 428 -17 m 233 1031 q 290 903 249 942 q 396 865 332 865 q 506 906 464 865 q 560 1031 549 947 q 601 1021 585 1028 q 537 822 590 890 q 394 753 483 753 q 255 822 306 753 q 192 1021 204 890 q 233 1031 208 1028 z "},"ý":{"ha":693,"x_min":-24,"x_max":726,"o":"m 131 -354 q 73 -333 93 -354 q 53 -282 53 -311 q 94 -206 53 -243 q 231 -169 136 -169 q 266 -101 249 -137 q 307 -10 283 -64 q 268 90 292 29 q 215 226 244 151 q 154 380 185 300 q 94 535 124 460 q 58 596 78 579 q -19 618 38 613 q -19 661 -24 638 q 63 660 21 661 q 149 658 104 658 q 236 660 189 658 q 317 661 283 661 q 317 618 319 640 q 251 608 269 615 q 232 581 232 601 q 246 521 232 561 q 316 339 282 422 q 385 168 350 256 q 463 350 429 269 q 532 518 497 431 q 547 578 547 558 q 526 606 547 597 q 453 618 506 614 q 453 661 449 640 q 524 660 488 661 q 603 658 561 658 q 663 660 631 658 q 722 661 696 661 q 722 618 726 640 q 643 592 664 614 q 604 528 622 571 l 367 -26 q 342 -83 360 -43 q 303 -165 324 -122 q 269 -235 283 -207 q 201 -328 235 -303 q 131 -354 168 -354 m 544 1036 l 544 1031 l 367 761 q 347 761 360 760 q 326 765 335 763 l 394 1038 q 442 1044 401 1044 q 544 1036 497 1044 z "},"ÿ":{"ha":693,"x_min":-24,"x_max":726,"o":"m 131 -354 q 73 -333 93 -354 q 53 -282 53 -311 q 94 -206 53 -243 q 231 -169 136 -169 q 266 -101 249 -137 q 307 -10 283 -64 q 268 90 292 29 q 215 226 244 151 q 154 380 185 300 q 94 535 124 460 q 58 596 78 579 q -19 618 38 613 q -19 661 -24 638 q 63 660 21 661 q 149 658 104 658 q 236 660 189 658 q 317 661 283 661 q 317 618 319 640 q 251 608 269 615 q 232 581 232 601 q 246 521 232 561 q 316 339 282 422 q 385 168 350 256 q 463 350 429 269 q 532 518 497 431 q 547 578 547 558 q 526 606 547 597 q 453 618 506 614 q 453 661 449 640 q 524 660 488 661 q 603 658 561 658 q 663 660 631 658 q 722 661 696 661 q 722 618 726 640 q 643 592 664 614 q 604 528 622 571 l 367 -26 q 342 -83 360 -43 q 303 -165 324 -122 q 269 -235 283 -207 q 201 -328 235 -303 q 131 -354 168 -354 m 146 922 q 169 983 146 958 q 232 1008 193 1008 q 294 983 271 1008 q 318 922 318 958 q 294 860 318 886 q 232 835 271 835 q 169 860 193 835 q 146 922 146 886 m 428 922 q 451 983 428 958 q 514 1008 475 1008 q 576 983 553 1008 q 600 922 600 958 q 576 860 600 886 q 514 835 553 835 q 451 860 475 835 q 428 922 428 886 z "},"ẏ":{"ha":693,"x_min":-24,"x_max":726,"o":"m 131 -354 q 73 -333 93 -354 q 53 -282 53 -311 q 94 -206 53 -243 q 231 -169 136 -169 q 266 -101 249 -137 q 307 -10 283 -64 q 268 90 292 29 q 215 226 244 151 q 154 380 185 300 q 94 535 124 460 q 58 596 78 579 q -19 618 38 613 q -19 661 -24 638 q 63 660 21 661 q 149 658 104 658 q 236 660 189 658 q 317 661 283 661 q 317 618 319 640 q 251 608 269 615 q 232 581 232 601 q 246 521 232 561 q 316 339 282 422 q 385 168 350 256 q 463 350 429 269 q 532 518 497 431 q 547 578 547 558 q 526 606 547 597 q 453 618 506 614 q 453 661 449 640 q 524 660 488 661 q 603 658 561 658 q 663 660 631 658 q 722 661 696 661 q 722 618 726 640 q 643 592 664 614 q 604 528 622 571 l 367 -26 q 342 -83 360 -43 q 303 -165 324 -122 q 269 -235 283 -207 q 201 -328 235 -303 q 131 -354 168 -354 m 276 926 q 305 994 276 967 q 374 1022 333 1022 q 441 994 413 1022 q 469 928 469 967 q 442 862 469 892 q 371 832 414 832 q 304 860 332 832 q 276 926 276 888 z "},"ź":{"ha":689,"x_min":35,"x_max":656,"o":"m 607 -1 q 497 1 546 1 q 413 1 449 1 l 250 1 q 154 1 207 1 q 42 0 101 1 q 35 29 35 14 l 439 607 l 294 607 q 190 597 225 607 q 136 556 156 586 q 92 464 117 525 q 51 468 71 461 q 69 575 61 525 q 78 665 76 625 q 210 660 138 663 q 358 658 282 658 q 492 660 419 658 q 619 663 564 661 q 629 632 629 649 l 224 54 l 393 54 q 474 60 443 54 q 526 82 504 65 q 568 133 547 99 q 618 224 589 167 q 656 217 640 224 q 630 108 642 163 q 607 -1 618 53 m 524 1036 l 524 1031 l 346 761 q 326 761 339 760 q 306 765 314 763 l 374 1038 q 421 1044 381 1044 q 524 1036 476 1044 z "},"ž":{"ha":689,"x_min":35,"x_max":656,"o":"m 607 -1 q 497 1 546 1 q 413 1 449 1 l 250 1 q 154 1 207 1 q 42 0 101 1 q 35 29 35 14 l 439 607 l 294 607 q 190 597 225 607 q 136 556 156 586 q 92 464 117 525 q 51 468 71 461 q 69 575 61 525 q 78 665 76 625 q 210 660 138 663 q 358 658 282 658 q 492 660 419 658 q 619 663 564 661 q 629 632 629 649 l 224 54 l 393 54 q 474 60 443 54 q 526 82 504 65 q 568 133 547 99 q 618 224 589 167 q 656 217 640 224 q 630 108 642 163 q 607 -1 618 53 m 353 874 q 440 957 394 914 q 535 1044 486 1000 q 555 1038 544 1043 q 575 1026 565 1033 q 490 897 535 969 q 413 767 444 825 q 383 763 399 764 q 351 761 368 761 q 319 763 335 761 q 290 767 304 764 q 214 897 258 825 q 129 1026 169 969 q 169 1044 146 1040 q 265 957 219 1000 q 353 874 311 914 z "},"ẓ":{"ha":689,"x_min":35,"x_max":656,"o":"m 607 -1 q 497 1 546 1 q 413 1 449 1 l 250 1 q 154 1 207 1 q 42 0 101 1 q 35 29 35 14 l 439 607 l 294 607 q 190 597 225 607 q 136 556 156 586 q 92 464 117 525 q 51 468 71 461 q 69 575 61 525 q 78 665 76 625 q 210 660 138 663 q 358 658 282 658 q 492 660 419 658 q 619 663 564 661 q 629 632 629 649 l 224 54 l 393 54 q 474 60 443 54 q 526 82 504 65 q 568 133 547 99 q 618 224 589 167 q 656 217 640 224 q 630 108 642 163 q 607 -1 618 53 m 221 -211 q 249 -143 221 -171 q 318 -115 278 -115 q 385 -143 357 -115 q 414 -210 414 -171 q 386 -276 414 -246 q 315 -306 358 -306 q 249 -278 276 -306 q 221 -211 221 -250 z "},"ẕ":{"ha":689,"x_min":35,"x_max":656,"o":"m 607 -1 q 497 1 546 1 q 413 1 449 1 l 250 1 q 154 1 207 1 q 42 0 101 1 q 35 29 35 14 l 439 607 l 294 607 q 190 597 225 607 q 136 556 156 586 q 92 464 117 525 q 51 468 71 461 q 69 575 61 525 q 78 665 76 625 q 210 660 138 663 q 358 658 282 658 q 492 660 419 658 q 619 663 564 661 q 629 632 629 649 l 224 54 l 393 54 q 474 60 443 54 q 526 82 504 65 q 568 133 547 99 q 618 224 589 167 q 656 217 640 224 q 630 108 642 163 q 607 -1 618 53 m 122 -143 l 514 -143 q 514 -212 518 -178 l 122 -212 q 122 -143 118 -178 z "},"ð":{"ha":788,"x_min":54,"x_max":726,"o":"m 379 -15 q 208 28 281 -15 q 94 147 135 71 q 54 319 54 222 q 92 494 54 415 q 200 620 131 574 q 363 667 269 667 q 452 653 410 667 q 543 613 494 640 q 488 742 522 685 q 410 853 453 799 l 249 747 q 230 771 239 758 q 213 794 221 783 l 371 897 q 315 950 349 921 q 246 1004 281 979 q 262 1028 253 1017 q 282 1050 271 1040 q 345 1011 319 1028 q 392 978 371 994 q 439 942 413 963 l 597 1049 q 633 1000 621 1025 l 486 901 q 608 753 554 836 q 694 577 663 671 q 726 389 726 483 q 688 191 726 283 q 573 42 650 99 q 379 -15 496 -15 m 563 532 q 467 582 507 567 q 389 597 428 597 q 256 530 303 597 q 210 340 210 463 q 219 239 210 292 q 249 140 228 186 q 305 66 269 94 q 394 38 340 38 q 485 68 450 38 q 541 147 521 99 q 569 253 561 196 q 576 363 576 310 q 563 532 576 456 z "},"þ":{"ha":806,"x_min":0,"x_max":750,"o":"m 13 -343 q 12 -337 13 -340 q 11 -332 11 -335 l 11 -310 q 12 -304 11 -307 q 13 -299 13 -301 q 83 -290 61 -296 q 112 -262 106 -283 q 118 -197 118 -242 l 118 840 q 110 905 118 883 q 77 935 101 926 q 4 949 53 944 q 4 986 0 967 q 118 1008 60 993 q 238 1049 176 1022 l 261 1040 q 259 971 260 1010 q 258 886 258 932 l 258 589 q 365 661 311 639 q 475 683 419 683 q 624 636 563 683 q 717 515 685 589 q 750 356 750 440 q 706 172 750 256 q 581 40 661 89 q 394 -10 501 -10 q 326 -4 363 -10 q 258 11 289 1 l 258 -181 q 266 -259 258 -235 q 302 -290 274 -283 q 390 -299 331 -296 q 391 -308 390 -304 q 392 -319 392 -312 q 391 -331 392 -325 q 390 -343 390 -336 q 294 -342 343 -343 q 190 -340 246 -340 q 95 -342 135 -340 q 13 -343 56 -343 m 258 122 q 413 42 319 42 q 526 79 483 42 q 587 178 568 117 q 606 308 606 239 q 587 444 606 378 q 526 553 568 510 q 410 597 483 597 q 258 531 326 597 l 258 122 z "},"ʾ":{"ha":335,"x_min":69,"x_max":286,"o":"m 69 918 l 69 971 q 178 952 129 971 q 257 894 228 933 q 286 793 286 856 q 256 685 286 728 q 177 621 226 642 q 69 600 128 600 l 69 656 q 150 690 118 656 q 182 786 182 725 q 149 883 182 849 q 69 918 117 918 z "},"ʿ":{"ha":335,"x_min":35,"x_max":251,"o":"m 251 653 l 251 600 q 142 619 192 600 q 64 677 93 638 q 35 778 35 717 q 65 886 35 843 q 144 950 94 929 q 251 971 193 971 l 251 915 q 171 881 203 915 q 139 785 139 846 q 172 688 139 722 q 251 653 204 653 z "},"&":{"ha":1043,"x_min":49,"x_max":1015,"o":"m 829 -6 q 730 24 771 -6 q 635 122 689 53 q 507 11 578 49 q 350 -26 436 -26 q 199 6 268 -26 q 90 100 131 39 q 49 244 49 161 q 79 370 49 314 q 160 469 110 426 q 274 542 211 511 q 201 634 231 586 q 172 744 172 682 q 206 859 172 811 q 297 933 240 907 q 419 960 353 960 q 525 939 476 960 q 603 877 574 918 q 633 776 633 836 q 582 647 633 701 q 440 557 531 593 q 524 469 479 518 q 611 372 569 421 q 685 283 653 324 q 781 486 781 429 q 749 529 781 521 q 668 540 717 538 q 668 583 664 563 q 748 582 704 583 q 843 581 792 581 q 926 582 892 581 q 993 583 961 583 q 993 540 997 563 q 933 531 958 538 q 888 507 907 525 q 849 455 872 492 q 799 367 826 418 q 762 305 782 339 q 719 238 742 271 q 819 120 774 168 q 915 72 865 72 q 954 78 931 72 q 1000 94 978 83 q 1010 75 1007 86 q 1015 56 1014 64 q 829 -6 935 -6 m 599 169 q 513 278 556 226 q 422 385 471 331 q 310 504 374 440 q 224 421 257 474 q 192 293 192 368 q 251 129 192 192 q 408 67 310 67 q 512 92 469 67 q 599 169 554 118 m 406 592 q 515 769 515 644 q 489 869 515 832 q 413 907 463 907 q 338 874 367 907 q 308 785 308 842 q 335 683 308 729 q 406 592 361 636 z "},"`":{"ha":500,"x_min":113,"x_max":331,"o":"m 113 1031 l 113 1036 q 215 1044 161 1044 q 263 1038 256 1044 l 331 765 q 310 761 322 763 q 290 761 297 760 l 113 1031 z "},"´":{"ha":500,"x_min":169,"x_max":388,"o":"m 388 1036 l 388 1031 l 210 761 q 190 761 203 760 q 169 765 178 763 l 238 1038 q 285 1044 244 1044 q 388 1036 340 1044 z "},"ˆ":{"ha":500,"x_min":26,"x_max":472,"o":"m 249 932 q 161 849 207 892 q 67 761 115 806 q 47 768 57 764 q 26 779 36 772 q 112 908 67 836 q 189 1039 157 981 q 218 1043 203 1042 q 250 1044 233 1044 q 282 1043 267 1044 q 311 1039 297 1042 q 388 908 343 981 q 472 779 433 836 q 432 761 456 765 q 336 849 382 806 q 249 932 290 892 z "},"˜":{"ha":500,"x_min":6,"x_max":493,"o":"m 449 1008 q 472 1001 461 1006 q 493 993 483 997 q 422 865 465 910 q 324 819 379 819 q 283 826 306 819 q 233 850 261 833 q 184 878 208 865 q 133 892 160 892 q 50 811 83 892 q 6 826 31 815 q 79 953 36 907 q 178 999 122 999 q 217 992 196 999 q 267 968 239 985 q 317 940 292 954 q 367 925 343 925 q 449 1008 415 925 z "},"¨":{"ha":500,"x_min":22,"x_max":476,"o":"m 22 922 q 46 983 22 958 q 108 1008 69 1008 q 171 983 147 1008 q 194 922 194 958 q 171 860 194 886 q 108 835 147 835 q 46 860 69 835 q 22 922 22 886 m 304 922 q 328 983 304 958 q 390 1008 351 1008 q 453 983 429 1008 q 476 922 476 958 q 453 860 476 886 q 390 835 429 835 q 328 860 351 835 q 304 922 304 886 z "},"¯":{"ha":500,"x_min":50,"x_max":450,"o":"m 54 918 l 446 918 q 446 849 450 883 l 54 849 q 54 918 50 883 z "},"˚":{"ha":500,"x_min":83,"x_max":417,"o":"m 83 886 q 133 992 83 956 q 250 1028 182 1028 q 368 994 319 1028 q 417 889 417 960 q 367 786 417 825 q 250 747 317 747 q 133 783 182 747 q 83 886 83 818 m 250 988 q 192 961 213 988 q 171 889 171 935 q 192 818 171 846 q 250 790 213 790 q 308 817 288 790 q 329 886 329 843 q 308 959 329 931 q 250 988 286 988 z "},"¸":{"ha":500,"x_min":72,"x_max":375,"o":"m 249 14 l 307 14 l 250 -74 q 347 -125 319 -90 q 375 -203 375 -160 q 348 -287 375 -253 q 276 -341 321 -322 q 179 -360 232 -360 q 97 -337 122 -360 q 72 -292 72 -315 q 88 -256 72 -271 q 125 -242 103 -242 q 167 -258 143 -242 q 206 -315 190 -274 q 269 -294 251 -312 q 288 -250 288 -275 q 248 -183 288 -208 q 142 -151 208 -157 l 139 -144 l 249 14 z "},"̀":{"ha":0,"x_min":-568,"x_max":-350,"o":"m -568 1031 l -568 1036 q -465 1044 -519 1044 q -418 1038 -425 1044 l -350 765 q -371 761 -358 763 q -390 761 -383 760 l -568 1031 z "},"́":{"ha":0,"x_min":-444,"x_max":-226,"o":"m -226 1036 l -226 1031 l -404 761 q -424 761 -411 760 q -444 765 -436 763 l -376 1038 q -329 1044 -369 1044 q -226 1036 -274 1044 z "},"̂":{"ha":0,"x_min":-621,"x_max":-175,"o":"m -399 932 q -486 849 -440 892 q -581 761 -532 806 q -601 768 -590 764 q -621 779 -611 772 q -535 908 -581 836 q -458 1039 -490 981 q -429 1043 -444 1042 q -397 1044 -414 1044 q -365 1043 -381 1044 q -336 1039 -350 1042 q -259 908 -304 981 q -175 779 -214 836 q -215 761 -192 765 q -311 849 -265 806 q -399 932 -357 892 z "},"̃":{"ha":0,"x_min":-635,"x_max":-147,"o":"m -192 1008 q -168 1001 -179 1006 q -147 993 -157 997 q -218 865 -175 910 q -317 819 -261 819 q -357 826 -335 819 q -407 850 -379 833 q -456 878 -432 865 q -507 892 -481 892 q -590 811 -557 892 q -635 826 -610 815 q -561 953 -604 907 q -462 999 -518 999 q -423 992 -444 999 q -374 968 -401 985 q -323 940 -349 954 q -274 925 -297 925 q -192 1008 -225 925 z "},"̄":{"ha":0,"x_min":-597,"x_max":-197,"o":"m -593 918 l -201 918 q -201 849 -197 883 l -593 849 q -593 918 -597 883 z "},"̆":{"ha":0,"x_min":-600,"x_max":-190,"o":"m -558 1031 q -501 903 -543 942 q -396 865 -460 865 q -285 906 -328 865 q -232 1031 -243 947 q -190 1021 -207 1028 q -255 822 -201 890 q -397 753 -308 753 q -537 822 -486 753 q -600 1021 -587 890 q -558 1031 -583 1028 z "},"̇":{"ha":0,"x_min":-494,"x_max":-301,"o":"m -494 926 q -466 994 -494 967 q -397 1022 -437 1022 q -330 994 -358 1022 q -301 928 -301 967 q -329 862 -301 892 q -400 832 -357 832 q -467 860 -439 832 q -494 926 -494 888 z "},"̈":{"ha":0,"x_min":-625,"x_max":-171,"o":"m -625 922 q -601 983 -625 958 q -539 1008 -578 1008 q -476 983 -500 1008 q -453 922 -453 958 q -476 860 -453 886 q -539 835 -500 835 q -601 860 -578 835 q -625 922 -625 886 m -343 922 q -319 983 -343 958 q -257 1008 -296 1008 q -194 983 -218 1008 q -171 922 -171 958 q -194 860 -171 886 q -257 835 -218 835 q -319 860 -296 835 q -343 922 -343 886 z "},"̊":{"ha":0,"x_min":-564,"x_max":-231,"o":"m -564 886 q -515 992 -564 956 q -397 1028 -465 1028 q -279 994 -328 1028 q -231 889 -231 960 q -281 786 -231 825 q -397 747 -331 747 q -515 783 -465 747 q -564 886 -564 818 m -397 988 q -456 961 -435 988 q -476 889 -476 935 q -456 818 -476 846 q -397 790 -435 790 q -339 817 -360 790 q -318 886 -318 843 q -340 959 -318 931 q -397 988 -361 988 z "}}}
